SplineFontDB: 3.0
FontName: Rationale-Regular
FullName: Rationale
FamilyName: Rationale
Weight: Regular
Copyright: Copyright (c) 2011, Cyreal (www.cyreal.org) with Reserved Font Name "Rationale".
Version: 1.002
ItalicAngle: 0
UnderlinePosition: -50
UnderlineWidth: 50
Ascent: 800
Descent: 200
sfntRevision: 0x00010041
LayerCount: 2
Layer: 0 1 "Back"  1
Layer: 1 1 "Fore"  0
XUID: [1021 288 713564382 6645917]
FSType: 0
OS2Version: 3
OS2_WeightWidthSlopeOnly: 0
OS2_UseTypoMetrics: 1
CreationTime: 1312124640
ModificationTime: 1312212951
PfmFamily: 17
TTFWeight: 400
TTFWidth: 5
LineGap: 0
VLineGap: 0
Panose: 2 0 5 6 5 0 0 2 0 3
OS2TypoAscent: 103
OS2TypoAOffset: 1
OS2TypoDescent: -50
OS2TypoDOffset: 1
OS2TypoLinegap: 0
OS2WinAscent: 0
OS2WinAOffset: 1
OS2WinDescent: 0
OS2WinDOffset: 1
HheadAscent: 0
HheadAOffset: 1
HheadDescent: 0
HheadDOffset: 1
OS2SubXSize: 700
OS2SubYSize: 650
OS2SubXOff: 0
OS2SubYOff: 140
OS2SupXSize: 700
OS2SupYSize: 650
OS2SupXOff: 0
OS2SupYOff: 477
OS2StrikeYSize: 50
OS2StrikeYPos: 250
OS2Vendor: 'pyrs'
OS2CodePages: 00000003.00000000
OS2UnicodeRanges: 800000a7.00000043.00000000.00000000
Lookup: 258 0 0 "'kern' Horizontal Kerning in Latin lookup 0"  {"'kern' Horizontal Kerning in Latin lookup 0 per glyph data 0"  "'kern' Horizontal Kerning in Latin lookup 0 kerning class 1"  } ['kern' ('latn' <'dflt' > ) ]
MarkAttachClasses: 1
DEI: 91125
KernClass2: 50+ 39 "'kern' Horizontal Kerning in Latin lookup 0 kerning class 1" 
 20 quotedbl quotesingle
 28 hyphen uni00AD endash emdash
 40 comma period quotesinglbase quotedblbase
 5 slash
 5 seven
 9 backslash
 10 exclamdown
 12 questiondown
 22 quoteleft quotedblleft
 24 quoteright quotedblright
 27 guillemotleft guilsinglleft
 29 guillemotright guilsinglright
 50 A Agrave Aacute Acircumflex Atilde Adieresis Aring
 10 C Ccedilla
 5 D Eth
 43 E AE Egrave Eacute Ecircumflex Edieresis OE
 1 F
 1 K
 1 L
 53 O Q Ograve Oacute Ocircumflex Otilde Odieresis Oslash
 1 P
 1 R
 1 S
 1 T
 1 X
 8 Y Yacute
 1 Z
 5 Thorn

StartChar: exclam
Encoding: 33 33 4
Width: 226
GlyphClass: 2
Flags: HW
LayerCount: 2
Fore
SplineSet
152 700 m 1,0,-1
 152 187 l 2,1,2
 152 171 152 171 146.5 165.5 c 128,-1,3
 141 160 141 160 125 160 c 2,4,-1
 72 160 l 1,5,-1
 72 673 l 2,6,7
 72 689 72 689 77.5 694.5 c 128,-1,8
 83 700 83 700 99 700 c 2,9,-1
 152 700 l 1,0,-1
160 0 m 1,10,-1
 99 0 l 2,11,12
 83 0 83 0 77.5 5.5 c 128,-1,13
 72 11 72 11 72 27 c 2,14,-1
 72 80 l 1,15,-1
 133 80 l 2,16,17
 149 80 149 80 154.5 74.5 c 128,-1,18
 160 69 160 69 160 53 c 2,19,-1
 160 0 l 1,10,-1
EndSplineSet
EndChar

StartChar: quotedbl
Encoding: 34 34 5
Width: 321
GlyphClass: 2
Flags: HW
LayerCount: 2
Fore
SplineSet
129 540 m 1,0,-1
 88 540 l 2,1,2
 72 540 72 540 66.5 545.5 c 128,-1,3
 61 551 61 551 61 567 c 2,4,-1
 61 700 l 1,5,-1
 102 700 l 2,6,7
 118 700 118 700 123.5 694.5 c 128,-1,8
 129 689 129 689 129 673 c 2,9,-1
 129 540 l 1,0,-1
259 540 m 1,10,-1
 218 540 l 2,11,12
 202 540 202 540 196.5 545.5 c 128,-1,13
 191 551 191 551 191 567 c 2,14,-1
 191 700 l 1,15,-1
 232 700 l 2,16,17
 248 700 248 700 253.5 694.5 c 128,-1,18
 259 689 259 689 259 673 c 2,19,-1
 259 540 l 1,10,-1
EndSplineSet
EndChar

StartChar: numbersign
Encoding: 35 35 6
Width: 800
GlyphClass: 2
Flags: HW
LayerCount: 2
Fore
SplineSet
438 700 m 1,0,-1
 438 27 l 2,1,2
 438 11 438 11 432.5 5.5 c 128,-1,3
 427 0 427 0 411 0 c 2,4,-1
 367 0 l 1,5,-1
 183 442 l 1,6,-1
 145 553 l 1,7,-1
 143 553 l 1,8,-1
 152 438 l 1,9,-1
 152 27 l 2,10,11
 152 11 152 11 146.5 5.5 c 128,-1,12
 141 0 141 0 125 0 c 2,13,-1
 72 0 l 1,14,-1
 72 673 l 2,15,16
 72 689 72 689 77.5 694.5 c 128,-1,17
 83 700 83 700 99 700 c 2,18,-1
 156 700 l 1,19,-1
 329 279 l 1,20,-1
 365 168 l 1,21,-1
 367 168 l 1,22,-1
 358 281 l 1,23,-1
 358 673 l 2,24,25
 358 689 358 689 363.5 694.5 c 128,-1,26
 369 700 369 700 385 700 c 2,27,-1
 438 700 l 1,0,-1
617 410 m 2,28,29
 565 410 565 410 548.5 426.5 c 128,-1,30
 532 443 532 443 532 495 c 2,31,-1
 532 615 l 2,32,33
 532 667 532 667 548.5 683.5 c 128,-1,34
 565 700 565 700 617 700 c 2,35,-1
 661 700 l 2,36,37
 713 700 713 700 729.5 683.5 c 128,-1,38
 746 667 746 667 746 615 c 2,39,-1
 746 495 l 2,40,41
 746 443 746 443 729.5 426.5 c 128,-1,42
 713 410 713 410 661 410 c 2,43,-1
 617 410 l 2,28,29
597 510 m 2,44,45
 597 479 597 479 606 471 c 128,-1,46
 615 463 615 463 639.5 463 c 128,-1,47
 664 463 664 463 672.5 471 c 128,-1,48
 681 479 681 479 681 510 c 2,49,-1
 681 600 l 2,50,51
 681 631 681 631 672 639 c 128,-1,52
 663 647 663 647 638.5 647 c 128,-1,53
 614 647 614 647 605.5 639 c 128,-1,54
 597 631 597 631 597 600 c 2,55,-1
 597 510 l 2,44,45
532 358 m 1,56,-1
 719 358 l 2,57,58
 735 358 735 358 740.5 352.5 c 128,-1,59
 746 347 746 347 746 331 c 2,60,-1
 746 300 l 1,61,-1
 559 300 l 2,62,63
 543 300 543 300 537.5 305.5 c 128,-1,64
 532 311 532 311 532 327 c 2,65,-1
 532 358 l 1,56,-1
EndSplineSet
EndChar

StartChar: dollar
Encoding: 36 36 7
Width: 435
GlyphClass: 2
Flags: HW
LayerCount: 2
Fore
SplineSet
114 80 m 2,0,1
 85 80 85 80 75.5 94.5 c 128,-1,2
 66 109 66 109 64 138 c 1,3,-1
 244 138 l 2,4,5
 275 138 275 138 283 151 c 128,-1,6
 291 164 291 164 291 195 c 2,7,-1
 291 277 l 2,8,9
 291 308 291 308 282.5 321 c 128,-1,10
 274 334 274 334 240 334 c 2,11,-1
 159 334 l 2,12,13
 107 334 107 334 85.5 355.5 c 128,-1,14
 64 377 64 377 64 429 c 2,15,-1
 64 515 l 2,16,17
 64 567 64 567 85.5 588.5 c 128,-1,18
 107 610 107 610 159 610 c 2,19,-1
 187 610 l 1,20,-1
 187 673 l 2,21,22
 187 689 187 689 192.5 694.5 c 128,-1,23
 198 700 198 700 214 700 c 2,24,-1
 255 700 l 1,25,-1
 255 610 l 1,26,-1
 313 610 l 2,27,28
 342 610 342 610 351.5 595.5 c 128,-1,29
 361 581 361 581 363 552 c 1,30,-1
 191 552 l 2,31,32
 160 552 160 552 152 539 c 128,-1,33
 144 526 144 526 144 495 c 2,34,-1
 144 449 l 2,35,36
 144 418 144 418 152 405 c 128,-1,37
 160 392 160 392 191 392 c 2,38,-1
 276 392 l 2,39,40
 328 392 328 392 349.5 370.5 c 128,-1,41
 371 349 371 349 371 297 c 2,42,-1
 371 175 l 2,43,44
 371 123 371 123 349.5 101.5 c 128,-1,45
 328 80 328 80 276 80 c 2,46,-1
 256 80 l 1,47,-1
 256 27 l 2,48,49
 256 11 256 11 250.5 5.5 c 128,-1,50
 245 0 245 0 229 0 c 2,51,-1
 190 0 l 1,52,-1
 190 80 l 1,53,-1
 114 80 l 2,0,1
EndSplineSet
EndChar

StartChar: percent
Encoding: 37 37 8
Width: 631
GlyphClass: 2
Flags: HW
LayerCount: 2
Fore
SplineSet
516 700 m 1,0,-1
 188 27 l 2,1,2
 180 11 180 11 172 5.5 c 128,-1,3
 164 0 164 0 148 0 c 2,4,-1
 95 0 l 1,5,-1
 423 673 l 2,6,7
 431 689 431 689 439 694.5 c 128,-1,8
 447 700 447 700 463 700 c 2,9,-1
 516 700 l 1,0,-1
137 410 m 2,10,11
 85 410 85 410 68.5 426.5 c 128,-1,12
 52 443 52 443 52 495 c 2,13,-1
 52 615 l 2,14,15
 52 667 52 667 68.5 683.5 c 128,-1,16
 85 700 85 700 137 700 c 2,17,-1
 181 700 l 2,18,19
 233 700 233 700 249.5 683.5 c 128,-1,20
 266 667 266 667 266 615 c 2,21,-1
 266 495 l 2,22,23
 266 443 266 443 249.5 426.5 c 128,-1,24
 233 410 233 410 181 410 c 2,25,-1
 137 410 l 2,10,11
117 510 m 2,26,27
 117 479 117 479 126 471 c 128,-1,28
 135 463 135 463 159.5 463 c 128,-1,29
 184 463 184 463 192.5 471 c 128,-1,30
 201 479 201 479 201 510 c 2,31,-1
 201 600 l 2,32,33
 201 631 201 631 192 639 c 128,-1,34
 183 647 183 647 158.5 647 c 128,-1,35
 134 647 134 647 125.5 639 c 128,-1,36
 117 631 117 631 117 600 c 2,37,-1
 117 510 l 2,26,27
451 0 m 2,38,39
 399 0 399 0 382.5 16.5 c 128,-1,40
 366 33 366 33 366 85 c 2,41,-1
 366 205 l 2,42,43
 366 257 366 257 382.5 273.5 c 128,-1,44
 399 290 399 290 451 290 c 2,45,-1
 495 290 l 2,46,47
 547 290 547 290 563.5 273.5 c 128,-1,48
 580 257 580 257 580 205 c 2,49,-1
 580 85 l 2,50,51
 580 33 580 33 563.5 16.5 c 128,-1,52
 547 0 547 0 495 0 c 2,53,-1
 451 0 l 2,38,39
431 100 m 2,54,55
 431 69 431 69 440 61 c 128,-1,56
 449 53 449 53 473.5 53 c 128,-1,57
 498 53 498 53 506.5 61 c 128,-1,58
 515 69 515 69 515 100 c 2,59,-1
 515 190 l 2,60,61
 515 221 515 221 506 229 c 128,-1,62
 497 237 497 237 472.5 237 c 128,-1,63
 448 237 448 237 439.5 229 c 128,-1,64
 431 221 431 221 431 190 c 2,65,-1
 431 100 l 2,54,55
EndSplineSet
EndChar

StartChar: ampersand
Encoding: 38 38 9
Width: 453
GlyphClass: 2
Flags: HW
LayerCount: 2
Fore
SplineSet
422 334 m 1,0,-1
 359 334 l 1,1,-1
 359 27 l 2,2,3
 359 11 359 11 353.5 5.5 c 128,-1,4
 348 0 348 0 332 0 c 2,5,-1
 285 0 l 1,6,-1
 285 334 l 1,7,-1
 193 334 l 2,8,9
 162 334 162 334 154 321 c 128,-1,10
 146 308 146 308 146 277 c 2,11,-1
 146 115 l 2,12,13
 146 84 146 84 154 71 c 128,-1,14
 162 58 162 58 193 58 c 2,15,-1
 265 58 l 1,16,-1
 265 27 l 2,17,18
 265 11 265 11 260.5 5.5 c 128,-1,19
 256 0 256 0 240 0 c 2,20,-1
 161 0 l 2,21,22
 109 0 109 0 87.5 21.5 c 128,-1,23
 66 43 66 43 66 95 c 2,24,-1
 66 277 l 2,25,26
 66 353 66 353 121 367 c 1,27,-1
 121 369 l 1,28,29
 92 376 92 376 79 397 c 128,-1,30
 66 418 66 418 66 459 c 2,31,-1
 66 605 l 2,32,33
 66 657 66 657 87.5 678.5 c 128,-1,34
 109 700 109 700 161 700 c 2,35,-1
 289 700 l 2,36,37
 318 700 318 700 327.5 685.5 c 128,-1,38
 337 671 337 671 339 642 c 1,39,-1
 193 642 l 2,40,41
 162 642 162 642 154 629 c 128,-1,42
 146 616 146 616 146 585 c 2,43,-1
 146 449 l 2,44,45
 146 418 146 418 154 405 c 128,-1,46
 162 392 162 392 193 392 c 2,47,-1
 285 392 l 1,48,-1
 285 423 l 2,49,50
 285 439 285 439 290.5 444.5 c 128,-1,51
 296 450 296 450 312 450 c 2,52,-1
 359 450 l 1,53,-1
 359 392 l 1,54,-1
 397 392 l 2,55,56
 413 392 413 392 417.5 386.5 c 128,-1,57
 422 381 422 381 422 365 c 2,58,-1
 422 334 l 1,0,-1
EndSplineSet
EndChar

StartChar: quotesingle
Encoding: 39 39 10
Width: 191
GlyphClass: 2
Flags: HW
LayerCount: 2
Fore
SplineSet
129 540 m 1,0,-1
 88 540 l 2,1,2
 72 540 72 540 66.5 545.5 c 128,-1,3
 61 551 61 551 61 567 c 2,4,-1
 61 700 l 1,5,-1
 102 700 l 2,6,7
 118 700 118 700 123.5 694.5 c 128,-1,8
 129 689 129 689 129 673 c 2,9,-1
 129 540 l 1,0,-1
EndSplineSet
EndChar

StartChar: parenleft
Encoding: 40 40 11
Width: 280
GlyphClass: 2
Flags: HW
LayerCount: 2
Fore
SplineSet
216 755 m 2,0,1
 232 755 232 755 236.5 750 c 128,-1,2
 241 745 241 745 241 728 c 2,3,-1
 241 697 l 1,4,-1
 194 697 l 2,5,6
 163 697 163 697 155 684 c 128,-1,7
 147 671 147 671 147 640 c 2,8,-1
 147 10 l 2,9,10
 147 -21 147 -21 155 -34 c 128,-1,11
 163 -47 163 -47 194 -47 c 2,12,-1
 241 -47 l 1,13,-1
 241 -78 l 2,14,15
 241 -95 241 -95 236.5 -100 c 128,-1,16
 232 -105 232 -105 216 -105 c 2,17,-1
 162 -105 l 2,18,19
 110 -105 110 -105 90.5 -83.5 c 128,-1,20
 71 -62 71 -62 71 -10 c 2,21,-1
 71 660 l 2,22,23
 71 712 71 712 90.5 733.5 c 128,-1,24
 110 755 110 755 162 755 c 2,25,-1
 216 755 l 2,0,1
EndSplineSet
EndChar

StartChar: parenright
Encoding: 41 41 12
Width: 281
GlyphClass: 2
Flags: HW
LayerCount: 2
Fore
SplineSet
118 755 m 2,0,1
 170 755 170 755 189.5 733.5 c 128,-1,2
 209 712 209 712 209 660 c 2,3,-1
 209 -10 l 2,4,5
 209 -62 209 -62 189.5 -83.5 c 128,-1,6
 170 -105 170 -105 118 -105 c 2,7,-1
 64 -105 l 2,8,9
 48 -105 48 -105 43.5 -100 c 128,-1,10
 39 -95 39 -95 39 -78 c 2,11,-1
 39 -47 l 1,12,-1
 86 -47 l 2,13,14
 117 -47 117 -47 125 -34 c 128,-1,15
 133 -21 133 -21 133 10 c 2,16,-1
 133 640 l 2,17,18
 133 671 133 671 125 684 c 128,-1,19
 117 697 117 697 86 697 c 2,20,-1
 39 697 l 1,21,-1
 39 728 l 2,22,23
 39 745 39 745 43.5 750 c 128,-1,24
 48 755 48 755 64 755 c 2,25,-1
 118 755 l 2,0,1
EndSplineSet
EndChar

StartChar: asterisk
Encoding: 42 42 13
Width: 441
GlyphClass: 2
Flags: HW
LayerCount: 2
Fore
SplineSet
79 656 m 1,0,-1
 191 591 l 1,1,-1
 191 694 l 2,2,3
 191 710 191 710 196.5 715.5 c 128,-1,4
 202 721 202 721 218 721 c 2,5,-1
 249 721 l 1,6,-1
 249 591 l 1,7,-1
 338 643 l 2,8,9
 352 651 352 651 359 649 c 128,-1,10
 366 647 366 647 374 633 c 2,11,-1
 390 606 l 1,12,-1
 278 541 l 1,13,-1
 367 490 l 2,14,15
 381 482 381 482 382.5 474.5 c 128,-1,16
 384 467 384 467 376 453 c 2,17,-1
 361 427 l 1,18,-1
 249 491 l 1,19,-1
 249 389 l 2,20,21
 249 373 249 373 243.5 367.5 c 128,-1,22
 238 362 238 362 222 362 c 2,23,-1
 191 362 l 1,24,-1
 191 491 l 1,25,-1
 102 440 l 2,26,27
 88 432 88 432 81 434 c 128,-1,28
 74 436 74 436 66 450 c 2,29,-1
 50 477 l 1,30,-1
 162 541 l 1,31,-1
 73 593 l 2,32,33
 59 601 59 601 57.5 608.5 c 128,-1,34
 56 616 56 616 64 630 c 2,35,-1
 79 656 l 1,0,-1
EndSplineSet
EndChar

StartChar: plus
Encoding: 43 43 14
Width: 436
GlyphClass: 2
Flags: HW
LayerCount: 2
Fore
SplineSet
247 512 m 1,0,-1
 247 392 l 1,1,-1
 341 392 l 2,2,3
 357 392 357 392 362.5 386.5 c 128,-1,4
 368 381 368 381 368 365 c 2,5,-1
 368 334 l 1,6,-1
 247 334 l 1,7,-1
 247 239 l 2,8,9
 247 223 247 223 241.5 217.5 c 128,-1,10
 236 212 236 212 220 212 c 2,11,-1
 189 212 l 1,12,-1
 189 334 l 1,13,-1
 95 334 l 2,14,15
 79 334 79 334 73.5 339.5 c 128,-1,16
 68 345 68 345 68 361 c 2,17,-1
 68 392 l 1,18,-1
 189 392 l 1,19,-1
 189 485 l 2,20,21
 189 501 189 501 194.5 506.5 c 128,-1,22
 200 512 200 512 216 512 c 2,23,-1
 247 512 l 1,0,-1
EndSplineSet
EndChar

StartChar: comma
Encoding: 44 44 15
Width: 215
GlyphClass: 2
Flags: HW
LayerCount: 2
Fore
SplineSet
95 0 m 1,0,-1
 92 0 l 2,1,2
 76 0 76 0 70.5 5.5 c 128,-1,3
 65 11 65 11 65 27 c 2,4,-1
 65 80 l 1,5,-1
 126 80 l 2,6,7
 142 80 142 80 147.5 74.5 c 128,-1,8
 153 69 153 69 153 53 c 2,9,-1
 153 -32 l 2,10,11
 153 -91 153 -91 120 -122.5 c 0,12,13
 109 -133 109 -133 95 -136 c 1,14,-1
 95 0 l 1,0,-1
EndSplineSet
EndChar

StartChar: hyphen
Encoding: 45 45 16
Width: 432
GlyphClass: 2
Flags: HW
LayerCount: 2
Fore
SplineSet
66 392 m 1,0,-1
 339 392 l 2,1,2
 355 392 355 392 360.5 386.5 c 128,-1,3
 366 381 366 381 366 365 c 2,4,-1
 366 334 l 1,5,-1
 93 334 l 2,6,7
 77 334 77 334 71.5 339.5 c 128,-1,8
 66 345 66 345 66 361 c 2,9,-1
 66 392 l 1,0,-1
EndSplineSet
EndChar

StartChar: period
Encoding: 46 46 17
Width: 215
GlyphClass: 2
Flags: HW
LayerCount: 2
Fore
SplineSet
153 0 m 1,0,-1
 92 0 l 2,1,2
 76 0 76 0 70.5 5.5 c 128,-1,3
 65 11 65 11 65 27 c 2,4,-1
 65 80 l 1,5,-1
 126 80 l 2,6,7
 142 80 142 80 147.5 74.5 c 128,-1,8
 153 69 153 69 153 53 c 2,9,-1
 153 0 l 1,0,-1
EndSplineSet
EndChar

StartChar: slash
Encoding: 47 47 18
Width: 392
GlyphClass: 2
Flags: HW
LayerCount: 2
Fore
SplineSet
351 760 m 1,0,-1
 124 -94 l 2,1,2
 119 -110 119 -110 112.5 -115.5 c 128,-1,3
 106 -121 106 -121 90 -121 c 2,4,-1
 41 -121 l 1,5,-1
 268 733 l 2,6,7
 273 749 273 749 279.5 754.5 c 128,-1,8
 286 760 286 760 302 760 c 2,9,-1
 351 760 l 1,0,-1
EndSplineSet
EndChar

StartChar: zero
Encoding: 48 48 19
Width: 439
GlyphClass: 2
Flags: HW
LayerCount: 2
Fore
SplineSet
145 115 m 2,0,1
 145 84 145 84 153 71 c 128,-1,2
 161 58 161 58 192 58 c 2,3,-1
 247 58 l 2,4,5
 278 58 278 58 286 71 c 128,-1,6
 294 84 294 84 294 115 c 2,7,-1
 294 585 l 2,8,9
 294 616 294 616 286 629 c 128,-1,10
 278 642 278 642 247 642 c 2,11,-1
 192 642 l 2,12,13
 161 642 161 642 153 629 c 128,-1,14
 145 616 145 616 145 585 c 2,15,-1
 145 115 l 2,0,1
70 605 m 2,16,17
 70 657 70 657 91.5 678.5 c 128,-1,18
 113 700 113 700 165 700 c 2,19,-1
 274 700 l 2,20,21
 326 700 326 700 347.5 678.5 c 128,-1,22
 369 657 369 657 369 605 c 2,23,-1
 369 95 l 2,24,25
 369 43 369 43 347.5 21.5 c 128,-1,26
 326 0 326 0 274 0 c 2,27,-1
 165 0 l 2,28,29
 113 0 113 0 91.5 21.5 c 128,-1,30
 70 43 70 43 70 95 c 2,31,-1
 70 605 l 2,16,17
EndSplineSet
EndChar

StartChar: one
Encoding: 49 49 20
Width: 224
GlyphClass: 2
Flags: HW
LayerCount: 2
Fore
SplineSet
152 27 m 2,0,1
 152 11 152 11 146.5 5.5 c 128,-1,2
 141 0 141 0 125 0 c 2,3,-1
 72 0 l 1,4,-1
 72 617 l 2,5,6
 72 658 72 658 92 675 c 128,-1,7
 112 692 112 692 152 700 c 1,8,-1
 152 27 l 2,0,1
EndSplineSet
EndChar

StartChar: two
Encoding: 50 50 21
Width: 402
GlyphClass: 2
Flags: HW
LayerCount: 2
Fore
SplineSet
340 429 m 2,0,1
 340 371.590909091 340 371.590909091 320 352.5 c 0,2,3
 300.619047619 334 300.619047619 334 245 334 c 2,4,-1
 187 334 l 2,5,6
 157.166666667 334 157.166666667 334 150.083333333 325.5 c 0,7,8
 140 313.4 140 313.4 140 277 c 2,9,-1
 140 115 l 2,10,11
 140 84 140 84 148 71 c 128,-1,12
 156 58 156 58 187 58 c 2,13,-1
 340 58 l 1,14,-1
 340 27 l 2,15,16
 340 11 340 11 334.5 5.5 c 128,-1,17
 329 0 329 0 313 0 c 2,18,-1
 155 0 l 2,19,20
 103 0 103 0 81.5 21.5 c 128,-1,21
 60 43 60 43 60 95 c 2,22,-1
 60 297 l 2,23,24
 60 354.409090909 60 354.409090909 80 373.5 c 0,25,26
 99.380952381 392 99.380952381 392 155 392 c 2,27,-1
 213 392 l 2,28,29
 242.833333333 392 242.833333333 392 249.916666667 400.5 c 0,30,31
 260 412.6 260 412.6 260 449 c 2,32,-1
 260 585 l 2,33,34
 260 616 260 616 252 629 c 128,-1,35
 244 642 244 642 213 642 c 2,36,-1
 66 642 l 1,37,38
 72 671 72 671 84.5 685.5 c 128,-1,39
 97 700 97 700 126 700 c 2,40,-1
 245 700 l 2,41,42
 297 700 297 700 318.5 678.5 c 128,-1,43
 340 657 340 657 340 605 c 2,44,-1
 340 429 l 2,0,1
EndSplineSet
EndChar

StartChar: three
Encoding: 51 51 22
Width: 392
GlyphClass: 2
Flags: HW
LayerCount: 2
Fore
SplineSet
238 585 m 2,0,1
 238 616 238 616 230 629 c 128,-1,2
 222 642 222 642 191 642 c 2,3,-1
 44 642 l 1,4,5
 50 671 50 671 62.5 685.5 c 128,-1,6
 75 700 75 700 104 700 c 2,7,-1
 223 700 l 2,8,9
 275 700 275 700 296.5 678.5 c 128,-1,10
 318 657 318 657 318 605 c 2,11,-1
 318 459 l 2,12,13
 318 418 318 418 309 397 c 128,-1,14
 300 376 300 376 271 369 c 1,15,-1
 271 368 l 1,16,17
 326 354 326 354 326 277 c 2,18,-1
 326 95 l 2,19,20
 326 43 326 43 304.5 21.5 c 128,-1,21
 283 0 283 0 231 0 c 2,22,-1
 112 0 l 2,23,24
 83 0 83 0 70.5 14.5 c 128,-1,25
 58 29 58 29 52 58 c 1,26,-1
 199 58 l 2,27,28
 230 58 230 58 238 71 c 128,-1,29
 246 84 246 84 246 115 c 2,30,-1
 246 277 l 2,31,32
 246 308 246 308 233 321 c 128,-1,33
 220 334 220 334 189 334 c 2,34,-1
 105 334 l 1,35,-1
 105 365 l 2,36,37
 105 381 105 381 110.5 386.5 c 128,-1,38
 116 392 116 392 132 392 c 2,39,-1
 195 392 l 1,40,41
 222 393 222 393 230 406.5 c 128,-1,42
 238 420 238 420 238 449 c 2,43,-1
 238 585 l 2,0,1
EndSplineSet
EndChar

StartChar: four
Encoding: 52 52 23
Width: 430
GlyphClass: 2
Flags: HW
LayerCount: 2
Fore
SplineSet
358 27 m 2,0,1
 358 11 358 11 352.5 5.5 c 128,-1,2
 347 0 347 0 331 0 c 2,3,-1
 278 0 l 1,4,-1
 278 334 l 1,5,-1
 143 334 l 2,6,7
 87.380952381 334 87.380952381 334 68 352.5 c 0,8,9
 48 371.590909091 48 371.590909091 48 429 c 2,10,-1
 48 673 l 2,11,12
 48 689 48 689 53.5 694.5 c 128,-1,13
 59 700 59 700 75 700 c 2,14,-1
 128 700 l 1,15,-1
 128 449 l 2,16,17
 128 412.6 128 412.6 134.5 404.8 c 0,18,19
 145.166666667 392 145.166666667 392 175 392 c 2,20,-1
 278 392 l 1,21,-1
 278 673 l 2,22,23
 278 689 278 689 283.5 694.5 c 128,-1,24
 289 700 289 700 305 700 c 2,25,-1
 358 700 l 1,26,-1
 358 27 l 2,0,1
EndSplineSet
EndChar

StartChar: five
Encoding: 53 53 24
Width: 410
GlyphClass: 2
Flags: HW
LayerCount: 2
Fore
SplineSet
142 642 m 1,0,-1
 141 392 l 1,1,-1
 257 392 l 2,2,3
 309 392 309 392 330.5 370.5 c 128,-1,4
 352 349 352 349 352 297 c 2,5,-1
 352 95 l 2,6,7
 352 43 352 43 330.5 21.5 c 128,-1,8
 309 0 309 0 257 0 c 2,9,-1
 121 0 l 2,10,11
 92 0 92 0 79.5 14.5 c 128,-1,12
 67 29 67 29 61 58 c 1,13,-1
 225 58 l 2,14,15
 256 58 256 58 264 71 c 128,-1,16
 272 84 272 84 272 115 c 2,17,-1
 272 277 l 2,18,19
 272 308 272 308 264 321 c 128,-1,20
 256 334 256 334 225 334 c 2,21,-1
 93 334 l 2,22,23
 77 334 77 334 71.5 339.5 c 128,-1,24
 66 345 66 345 66 361 c 2,25,-1
 66 673 l 2,26,27
 66 689 66 689 71.5 694.5 c 128,-1,28
 77 700 77 700 93 700 c 2,29,-1
 339 700 l 1,30,-1
 339 669 l 2,31,32
 339 653 339 653 334.5 647.5 c 128,-1,33
 330 642 330 642 314 642 c 2,34,-1
 142 642 l 1,0,-1
EndSplineSet
EndChar

StartChar: six
Encoding: 54 54 25
Width: 437
GlyphClass: 2
Flags: HW
LayerCount: 2
Fore
SplineSet
284 392 m 2,0,1
 336 392 336 392 357.5 370.5 c 128,-1,2
 379 349 379 349 379 297 c 2,3,-1
 379 95 l 2,4,5
 379 43 379 43 357.5 21.5 c 128,-1,6
 336 0 336 0 284 0 c 2,7,-1
 165 0 l 2,8,9
 113 0 113 0 91.5 21.5 c 128,-1,10
 70 43 70 43 70 95 c 2,11,-1
 70 605 l 2,12,13
 70 657 70 657 91.5 678.5 c 128,-1,14
 113 700 113 700 165 700 c 2,15,-1
 304 700 l 2,16,17
 333 700 333 700 345.5 685.5 c 128,-1,18
 358 671 358 671 364 642 c 1,19,-1
 197 642 l 2,20,21
 166 642 166 642 158 629 c 128,-1,22
 150 616 150 616 150 585 c 2,23,-1
 150 115 l 2,24,25
 150 84 150 84 158 71 c 128,-1,26
 166 58 166 58 197 58 c 2,27,-1
 252 58 l 2,28,29
 283 58 283 58 291 71 c 128,-1,30
 299 84 299 84 299 115 c 2,31,-1
 299 277 l 2,32,33
 299 308 299 308 291 321 c 128,-1,34
 283 334 283 334 252 334 c 2,35,-1
 170 334 l 1,36,-1
 170 365 l 2,37,38
 170 381 170 381 174.5 386.5 c 128,-1,39
 179 392 179 392 195 392 c 2,40,-1
 284 392 l 2,0,1
EndSplineSet
EndChar

StartChar: seven
Encoding: 55 55 26
Width: 358
GlyphClass: 2
Flags: HW
LayerCount: 2
Fore
SplineSet
302 700 m 2,0,1
 317 700 317 700 321 694.5 c 128,-1,2
 325 689 325 689 326 673 c 1,3,-1
 326 642 l 1,4,-1
 154 0 l 1,5,-1
 78 0 l 1,6,-1
 249 642 l 1,7,-1
 33 642 l 1,8,-1
 33 673 l 2,9,10
 33 689 33 689 38.5 694.5 c 128,-1,11
 44 700 44 700 60 700 c 2,12,-1
 302 700 l 2,0,1
EndSplineSet
EndChar

StartChar: eight
Encoding: 56 56 27
Width: 444
GlyphClass: 2
Flags: HW
LayerCount: 2
Fore
SplineSet
295 277 m 2,0,1
 295 308 295 308 287 321 c 128,-1,2
 279 334 279 334 248 334 c 2,3,-1
 196 334 l 2,4,5
 165 334 165 334 157 321 c 128,-1,6
 149 308 149 308 149 277 c 2,7,-1
 149 115 l 2,8,9
 149 84 149 84 157 71 c 128,-1,10
 165 58 165 58 196 58 c 2,11,-1
 248 58 l 2,12,13
 279 58 279 58 287 71 c 128,-1,14
 295 84 295 84 295 115 c 2,15,-1
 295 277 l 2,0,1
295 589 m 2,16,17
 295 620 295 620 287 633 c 128,-1,18
 279 646 279 646 248 646 c 2,19,-1
 196 646 l 2,20,21
 165 646 165 646 157 633 c 128,-1,22
 149 620 149 620 149 589 c 2,23,-1
 149 449 l 2,24,25
 149 418 149 418 157 405 c 128,-1,26
 165 392 165 392 196 392 c 2,27,-1
 248 392 l 2,28,29
 279 392 279 392 287 405 c 128,-1,30
 295 418 295 418 295 449 c 2,31,-1
 295 589 l 2,16,17
69 277 m 2,32,33
 69 354 69 354 124 368 c 1,34,-1
 124 369 l 1,35,36
 95 376 95 376 82 397 c 128,-1,37
 69 418 69 418 69 459 c 2,38,-1
 69 605 l 2,39,40
 69 657 69 657 88 678.5 c 128,-1,41
 107 700 107 700 159 700 c 2,42,-1
 285 700 l 2,43,44
 337 700 337 700 356 678.5 c 128,-1,45
 375 657 375 657 375 605 c 2,46,-1
 375 459 l 2,47,48
 375 418 375 418 362 397 c 128,-1,49
 349 376 349 376 320 369 c 1,50,-1
 320 368 l 1,51,52
 375 354 375 354 375 277 c 2,53,-1
 375 95 l 2,54,55
 375 43 375 43 357.5 21.5 c 128,-1,56
 340 0 340 0 288 0 c 2,57,-1
 159 0 l 2,58,59
 107 0 107 0 88 21.5 c 128,-1,60
 69 43 69 43 69 95 c 2,61,-1
 69 277 l 2,32,33
EndSplineSet
EndChar

StartChar: nine
Encoding: 57 57 28
Width: 427
GlyphClass: 2
Flags: HW
LayerCount: 2
Fore
SplineSet
153 308 m 2,0,1
 101 308 101 308 79.5 329.5 c 128,-1,2
 58 351 58 351 58 403 c 2,3,-1
 58 605 l 2,4,5
 58 657 58 657 79.5 678.5 c 128,-1,6
 101 700 101 700 153 700 c 2,7,-1
 262 700 l 2,8,9
 314 700 314 700 335.5 678.5 c 128,-1,10
 357 657 357 657 357 605 c 2,11,-1
 357 95 l 2,12,13
 357 43 357 43 335.5 21.5 c 128,-1,14
 314 0 314 0 262 0 c 2,15,-1
 132 0 l 2,16,17
 103 0 103 0 90.5 14.5 c 128,-1,18
 78 29 78 29 72 58 c 1,19,-1
 230 58 l 2,20,21
 261 58 261 58 269 71 c 128,-1,22
 277 84 277 84 277 115 c 2,23,-1
 277 589 l 2,24,25
 277 620 277 620 269 633 c 128,-1,26
 261 646 261 646 230 646 c 2,27,-1
 185 646 l 2,28,29
 154 646 154 646 146 633 c 128,-1,30
 138 620 138 620 138 589 c 2,31,-1
 138 423 l 2,32,33
 138 392 138 392 146 379 c 128,-1,34
 154 366 154 366 185 366 c 2,35,-1
 257 366 l 1,36,-1
 257 335 l 2,37,38
 257 319 257 319 252.5 313.5 c 128,-1,39
 248 308 248 308 232 308 c 2,40,-1
 153 308 l 2,0,1
EndSplineSet
EndChar

StartChar: colon
Encoding: 58 58 29
Width: 220
GlyphClass: 2
Flags: HW
LayerCount: 2
Fore
SplineSet
154 0 m 1,0,-1
 93 0 l 2,1,2
 77 0 77 0 71.5 5.5 c 128,-1,3
 66 11 66 11 66 27 c 2,4,-1
 66 80 l 1,5,-1
 127 80 l 2,6,7
 143 80 143 80 148.5 74.5 c 128,-1,8
 154 69 154 69 154 53 c 2,9,-1
 154 0 l 1,0,-1
154 370 m 1,10,-1
 93 370 l 2,11,12
 77 370 77 370 71.5 375.5 c 128,-1,13
 66 381 66 381 66 397 c 2,14,-1
 66 450 l 1,15,-1
 127 450 l 2,16,17
 143 450 143 450 148.5 444.5 c 128,-1,18
 154 439 154 439 154 423 c 2,19,-1
 154 370 l 1,10,-1
EndSplineSet
EndChar

StartChar: less
Encoding: 60 60 31
Width: 349
GlyphClass: 2
Flags: HW
LayerCount: 2
Fore
SplineSet
258 567 m 1,0,-1
 281 544 l 2,1,2
 292 533 292 533 292 526 c 128,-1,3
 292 519 292 519 280 507 c 2,4,-1
 118 346 l 1,5,-1
 280 185 l 2,6,7
 292 173 292 173 292 166 c 128,-1,8
 292 159 292 159 281 148 c 2,9,-1
 258 125 l 1,10,-1
 53 328 l 2,11,12
 44 337 44 337 44 346 c 128,-1,13
 44 355 44 355 53 364 c 2,14,-1
 258 567 l 1,0,-1
EndSplineSet
EndChar

StartChar: equal
Encoding: 61 61 32
Width: 436
GlyphClass: 2
Flags: HW
LayerCount: 2
Fore
SplineSet
68 442 m 1,0,-1
 341 442 l 2,1,2
 357 442 357 442 362.5 436.5 c 128,-1,3
 368 431 368 431 368 415 c 2,4,-1
 368 384 l 1,5,-1
 95 384 l 2,6,7
 79 384 79 384 73.5 389.5 c 128,-1,8
 68 395 68 395 68 411 c 2,9,-1
 68 442 l 1,0,-1
68 307 m 1,10,-1
 341 307 l 2,11,12
 357 307 357 307 362.5 301.5 c 128,-1,13
 368 296 368 296 368 280 c 2,14,-1
 368 249 l 1,15,-1
 95 249 l 2,16,17
 79 249 79 249 73.5 254.5 c 128,-1,18
 68 260 68 260 68 276 c 2,19,-1
 68 307 l 1,10,-1
EndSplineSet
EndChar

StartChar: greater
Encoding: 62 62 33
Width: 348
GlyphClass: 2
Flags: HW
LayerCount: 2
Fore
SplineSet
91 125 m 1,0,-1
 68 148 l 2,1,2
 57 159 57 159 57 166 c 128,-1,3
 57 173 57 173 69 185 c 2,4,-1
 231 346 l 1,5,-1
 69 507 l 2,6,7
 57 519 57 519 57 526 c 128,-1,8
 57 533 57 533 68 544 c 2,9,-1
 91 567 l 1,10,-1
 296 364 l 2,11,12
 306 355 306 355 306 346 c 128,-1,13
 306 337 306 337 296 328 c 2,14,-1
 91 125 l 1,0,-1
EndSplineSet
EndChar

StartChar: question
Encoding: 63 63 34
Width: 379
GlyphClass: 2
Flags: HW
LayerCount: 2
Fore
SplineSet
184 0 m 1,0,-1
 123 0 l 2,1,2
 107 0 107 0 101.5 5.5 c 128,-1,3
 96 11 96 11 96 27 c 2,4,-1
 96 80 l 1,5,-1
 157 80 l 2,6,7
 173 80 173 80 178.5 74.5 c 128,-1,8
 184 69 184 69 184 53 c 2,9,-1
 184 0 l 1,0,-1
223 352 m 2,10,11
 192 352 192 352 184 339 c 128,-1,12
 176 326 176 326 176 295 c 2,13,-1
 176 156 l 1,14,-1
 96 156 l 1,15,-1
 96 315 l 2,16,17
 96 367 96 367 117.5 388.5 c 128,-1,18
 139 410 139 410 191 410 c 2,19,-1
 198 410 l 2,20,21
 229 410 229 410 237 423 c 128,-1,22
 245 436 245 436 245 467 c 2,23,-1
 245 585 l 2,24,25
 245 616 245 616 237 629 c 128,-1,26
 229 642 229 642 198 642 c 2,27,-1
 49 642 l 1,28,29
 55 671 55 671 67.5 685.5 c 128,-1,30
 80 700 80 700 109 700 c 2,31,-1
 230 700 l 2,32,33
 282 700 282 700 303.5 678.5 c 128,-1,34
 325 657 325 657 325 605 c 2,35,-1
 325 447 l 2,36,37
 325 395 325 395 303.5 373.5 c 128,-1,38
 282 352 282 352 230 352 c 2,39,-1
 223 352 l 2,10,11
EndSplineSet
EndChar

StartChar: at
Encoding: 64 64 35
Width: 498
GlyphClass: 2
Flags: HW
LayerCount: 2
Fore
SplineSet
304 128 m 2,0,1
 252 128 252 128 230.5 149.5 c 128,-1,2
 209 171 209 171 209 223 c 2,3,-1
 209 274 l 2,4,5
 209 326 209 326 230.5 347.5 c 128,-1,6
 252 369 252 369 304 369 c 2,7,-1
 362 369 l 1,8,-1
 362 382 l 2,9,10
 362 411 362 411 354.5 424 c 128,-1,11
 347 437 347 437 321 439 c 1,12,-1
 188 439 l 2,13,14
 157 439 157 439 149 426 c 128,-1,15
 141 413 141 413 141 382 c 2,16,-1
 141 115 l 2,17,18
 141 84 141 84 149 71 c 128,-1,19
 157 58 157 58 188 58 c 2,20,-1
 425 58 l 1,21,-1
 425 27 l 2,22,23
 425 11 425 11 419.5 5.5 c 128,-1,24
 414 0 414 0 398 0 c 2,25,-1
 161 0 l 2,26,27
 109 0 109 0 87.5 21.5 c 128,-1,28
 66 43 66 43 66 95 c 2,29,-1
 66 402 l 2,30,31
 66 454 66 454 87.5 475.5 c 128,-1,32
 109 497 109 497 161 497 c 2,33,-1
 350 497 l 1,34,35
 400 496 400 496 417.5 474.5 c 128,-1,36
 435 453 435 453 435 402 c 2,37,-1
 435 128 l 1,38,-1
 389 128 l 2,39,40
 373 128 373 128 367.5 133.5 c 128,-1,41
 362 139 362 139 362 155 c 2,42,-1
 362 311 l 1,43,-1
 336 311 l 2,44,45
 299 311 299 311 291 303 c 0,46,47
 279 291 279 291 279 254 c 2,48,-1
 279 243 l 2,49,50
 279 205.6 279 205.6 285.5 197.8 c 0,51,52
 295.333333333 186 295.333333333 186 326 186 c 2,53,-1
 342 186 l 1,54,-1
 342 155 l 2,55,56
 342 139 342 139 337.5 133.5 c 128,-1,57
 333 128 333 128 317 128 c 2,58,-1
 304 128 l 2,0,1
EndSplineSet
EndChar

StartChar: A
Encoding: 65 65 36
Width: 477
GlyphClass: 2
Flags: HW
LayerCount: 2
Fore
SplineSet
152 334 m 1,0,-1
 152 27 l 2,1,2
 152 11 152 11 146.5 5.5 c 128,-1,3
 141 0 141 0 125 0 c 2,4,-1
 72 0 l 1,5,-1
 72 605 l 2,6,7
 72 657 72 657 93.5 678.5 c 128,-1,8
 115 700 115 700 167 700 c 2,9,-1
 311 700 l 2,10,11
 363 700 363 700 384.5 678.5 c 128,-1,12
 406 657 406 657 406 605 c 2,13,-1
 406 27 l 2,14,15
 406 11 406 11 400.5 5.5 c 128,-1,16
 395 0 395 0 379 0 c 2,17,-1
 326 0 l 1,18,-1
 326 585 l 2,19,20
 326 614 326 614 318.5 627 c 128,-1,21
 311 640 311 640 285 642 c 1,22,-1
 193 642 l 1,23,24
 166 640 166 640 159 627 c 128,-1,25
 152 614 152 614 152 585 c 2,26,-1
 152 392 l 1,27,-1
 306 392 l 1,28,-1
 306 361 l 2,29,30
 306 345 306 345 301.5 339.5 c 128,-1,31
 297 334 297 334 281 334 c 2,32,-1
 152 334 l 1,0,-1
EndSplineSet
EndChar

StartChar: B
Encoding: 66 66 37
Width: 465
GlyphClass: 2
Flags: HW
LayerCount: 2
Fore
SplineSet
197 0 m 2,0,1
 181 0 181 0 176.5 5.5 c 128,-1,2
 172 11 172 11 172 27 c 2,3,-1
 172 58 l 1,4,-1
 269 58 l 2,5,6
 300 58 300 58 308 71 c 128,-1,7
 316 84 316 84 316 115 c 2,8,-1
 316 277 l 2,9,10
 316 308 316 308 308 321 c 128,-1,11
 300 334 300 334 269 334 c 2,12,-1
 152 334 l 1,13,-1
 152 0 l 1,14,-1
 72 0 l 1,15,-1
 72 673 l 2,16,17
 72 689 72 689 77.5 694.5 c 128,-1,18
 83 700 83 700 99 700 c 2,19,-1
 301 700 l 2,20,21
 353 700 353 700 374.5 678.5 c 128,-1,22
 396 657 396 657 396 605 c 2,23,-1
 396 459 l 2,24,25
 396 382 396 382 341 369 c 1,26,-1
 341 367 l 1,27,28
 370 359 370 359 383 338 c 128,-1,29
 396 317 396 317 396 277 c 2,30,-1
 396 95 l 2,31,32
 396 43 396 43 374.5 21.5 c 128,-1,33
 353 0 353 0 301 0 c 2,34,-1
 197 0 l 2,0,1
152 642 m 1,35,-1
 152 392 l 1,36,-1
 275 392 l 1,37,38
 301 393 301 393 308.5 406.5 c 128,-1,39
 316 420 316 420 316 449 c 2,40,-1
 316 585 l 2,41,42
 316 616 316 616 308 629 c 128,-1,43
 300 642 300 642 269 642 c 2,44,-1
 152 642 l 1,35,-1
EndSplineSet
EndChar

StartChar: C
Encoding: 67 67 38
Width: 390
GlyphClass: 2
Flags: HW
LayerCount: 2
Fore
SplineSet
165 0 m 2,0,1
 113 0 113 0 91.5 21.5 c 128,-1,2
 70 43 70 43 70 95 c 2,3,-1
 70 605 l 2,4,5
 70 657 70 657 91.5 678.5 c 128,-1,6
 113 700 113 700 165 700 c 2,7,-1
 294 700 l 2,8,9
 323 700 323 700 335.5 685.5 c 128,-1,10
 348 671 348 671 354 642 c 1,11,-1
 197 642 l 2,12,13
 166 642 166 642 158 629 c 128,-1,14
 150 616 150 616 150 585 c 2,15,-1
 150 115 l 2,16,17
 150 84 150 84 158 71 c 128,-1,18
 166 58 166 58 197 58 c 2,19,-1
 354 58 l 1,20,-1
 354 27 l 2,21,22
 354 11 354 11 349.5 5.5 c 128,-1,23
 345 0 345 0 329 0 c 2,24,-1
 165 0 l 2,0,1
EndSplineSet
EndChar

StartChar: D
Encoding: 68 68 39
Width: 476
GlyphClass: 2
Flags: HW
LayerCount: 2
Fore
SplineSet
197 0 m 2,0,1
 181 0 181 0 176.5 5.5 c 128,-1,2
 172 11 172 11 172 27 c 2,3,-1
 172 58 l 1,4,-1
 279 58 l 2,5,6
 310 58 310 58 318 71 c 128,-1,7
 326 84 326 84 326 115 c 2,8,-1
 326 585 l 2,9,10
 326 616 326 616 318 629 c 128,-1,11
 310 642 310 642 279 642 c 2,12,-1
 152 642 l 1,13,-1
 152 0 l 1,14,-1
 72 0 l 1,15,-1
 72 673 l 2,16,17
 72 689 72 689 77.5 694.5 c 128,-1,18
 83 700 83 700 99 700 c 2,19,-1
 311 700 l 2,20,21
 363 700 363 700 384.5 678.5 c 128,-1,22
 406 657 406 657 406 605 c 2,23,-1
 406 95 l 2,24,25
 406 43 406 43 384.5 21.5 c 128,-1,26
 363 0 363 0 311 0 c 2,27,-1
 197 0 l 2,0,1
EndSplineSet
EndChar

StartChar: E
Encoding: 69 69 40
Width: 389
GlyphClass: 2
Flags: HW
LayerCount: 2
Fore
SplineSet
152 334 m 1,0,-1
 152 58 l 1,1,-1
 343 58 l 1,2,-1
 343 27 l 2,3,4
 343 11 343 11 337.5 5.5 c 128,-1,5
 332 0 332 0 316 0 c 2,6,-1
 72 0 l 1,7,-1
 72 673 l 2,8,9
 72 689 72 689 77.5 694.5 c 128,-1,10
 83 700 83 700 99 700 c 2,11,-1
 343 700 l 1,12,-1
 343 669 l 2,13,14
 343 653 343 653 338.5 647.5 c 128,-1,15
 334 642 334 642 318 642 c 2,16,-1
 152 642 l 1,17,-1
 152 392 l 1,18,-1
 313 392 l 1,19,-1
 313 361 l 2,20,21
 313 345 313 345 308.5 339.5 c 128,-1,22
 304 334 304 334 288 334 c 2,23,-1
 152 334 l 1,0,-1
EndSplineSet
EndChar

StartChar: F
Encoding: 70 70 41
Width: 373
GlyphClass: 2
Flags: HW
LayerCount: 2
Fore
SplineSet
343 700 m 1,0,-1
 343 669 l 2,1,2
 343 653 343 653 338.5 647.5 c 128,-1,3
 334 642 334 642 318 642 c 2,4,-1
 152 642 l 1,5,-1
 152 392 l 1,6,-1
 313 392 l 1,7,-1
 313 361 l 2,8,9
 313 345 313 345 308.5 339.5 c 128,-1,10
 304 334 304 334 288 334 c 2,11,-1
 152 334 l 1,12,-1
 152 27 l 2,13,14
 152 11 152 11 146.5 5.5 c 128,-1,15
 141 0 141 0 125 0 c 2,16,-1
 72 0 l 1,17,-1
 72 673 l 2,18,19
 72 689 72 689 77.5 694.5 c 128,-1,20
 83 700 83 700 99 700 c 2,21,-1
 343 700 l 1,0,-1
EndSplineSet
EndChar

StartChar: G
Encoding: 71 71 42
Width: 464
GlyphClass: 2
Flags: HW
LayerCount: 2
Fore
SplineSet
165 0 m 2,0,1
 113 0 113 0 91.5 21.5 c 128,-1,2
 70 43 70 43 70 95 c 2,3,-1
 70 605 l 2,4,5
 70 657 70 657 91.5 678.5 c 128,-1,6
 113 700 113 700 165 700 c 2,7,-1
 360 700 l 2,8,9
 376 700 376 700 380.5 694.5 c 128,-1,10
 385 689 385 689 385 673 c 2,11,-1
 385 642 l 1,12,-1
 197 642 l 2,13,14
 166 642 166 642 158 629 c 128,-1,15
 150 616 150 616 150 585 c 2,16,-1
 150 115 l 2,17,18
 150 84 150 84 158 71 c 128,-1,19
 166 58 166 58 197 58 c 2,20,-1
 277 58 l 2,21,22
 308 58 308 58 316 71 c 128,-1,23
 324 84 324 84 324 115 c 2,24,-1
 324 334 l 1,25,-1
 238 334 l 1,26,-1
 238 365 l 2,27,28
 238 381 238 381 243.5 386.5 c 128,-1,29
 249 392 249 392 265 392 c 2,30,-1
 404 392 l 1,31,-1
 404 95 l 2,32,33
 404 43 404 43 382 21.5 c 128,-1,34
 360 0 360 0 308 0 c 2,35,-1
 165 0 l 2,0,1
EndSplineSet
EndChar

StartChar: H
Encoding: 72 72 43
Width: 498
GlyphClass: 2
Flags: HW
LayerCount: 2
Fore
SplineSet
426 700 m 1,0,-1
 426 27 l 2,1,2
 426 11 426 11 420.5 5.5 c 128,-1,3
 415 0 415 0 399 0 c 2,4,-1
 346 0 l 1,5,-1
 346 673 l 2,6,7
 346 689 346 689 351.5 694.5 c 128,-1,8
 357 700 357 700 373 700 c 2,9,-1
 426 700 l 1,0,-1
152 334 m 1,10,-1
 152 27 l 2,11,12
 152 11 152 11 146.5 5.5 c 128,-1,13
 141 0 141 0 125 0 c 2,14,-1
 72 0 l 1,15,-1
 72 673 l 2,16,17
 72 689 72 689 77.5 694.5 c 128,-1,18
 83 700 83 700 99 700 c 2,19,-1
 152 700 l 1,20,-1
 152 392 l 1,21,-1
 326 392 l 1,22,-1
 326 361 l 2,23,24
 326 345 326 345 321.5 339.5 c 128,-1,25
 317 334 317 334 301 334 c 2,26,-1
 152 334 l 1,10,-1
EndSplineSet
EndChar

StartChar: I
Encoding: 73 73 44
Width: 224
GlyphClass: 2
Flags: HW
LayerCount: 2
Fore
SplineSet
152 700 m 1,0,-1
 152 27 l 2,1,2
 152 11 152 11 146.5 5.5 c 128,-1,3
 141 0 141 0 125 0 c 2,4,-1
 72 0 l 1,5,-1
 72 673 l 2,6,7
 72 689 72 689 77.5 694.5 c 128,-1,8
 83 700 83 700 99 700 c 2,9,-1
 152 700 l 1,0,-1
EndSplineSet
EndChar

StartChar: J
Encoding: 74 74 45
Width: 224
GlyphClass: 2
Flags: HW
LayerCount: 2
Fore
SplineSet
-32 -84 m 2,0,1
 -32 -68 -32 -68 -27.5 -62.5 c 128,-1,2
 -23 -57 -23 -57 -7 -57 c 2,3,-1
 25 -57 l 2,4,5
 56 -57 56 -57 64 -44 c 128,-1,6
 72 -31 72 -31 72 0 c 2,7,-1
 72 673 l 2,8,9
 72 689 72 689 77.5 694.5 c 128,-1,10
 83 700 83 700 99 700 c 2,11,-1
 152 700 l 1,12,-1
 152 -20 l 2,13,14
 152 -72 152 -72 130.5 -93.5 c 128,-1,15
 109 -115 109 -115 57 -115 c 2,16,-1
 -32 -115 l 1,17,-1
 -32 -84 l 2,0,1
EndSplineSet
EndChar

StartChar: K
Encoding: 75 75 46
Width: 447
GlyphClass: 2
Flags: HW
LayerCount: 2
Fore
SplineSet
152 700 m 1,0,-1
 152 27 l 2,1,2
 152 11 152 11 146.5 5.5 c 128,-1,3
 141 0 141 0 125 0 c 2,4,-1
 72 0 l 1,5,-1
 72 673 l 2,6,7
 72 689 72 689 77.5 694.5 c 128,-1,8
 83 700 83 700 99 700 c 2,9,-1
 152 700 l 1,0,-1
431 0 m 1,10,-1
 382 0 l 2,11,12
 344.5 0 344.5 0 331 27 c 2,13,-1
 153 364 l 1,14,-1
 323 673 l 1,15,16
 336.5 700 336.5 700 374 700 c 2,17,-1
 418 700 l 1,18,-1
 232 366 l 1,19,-1
 431 0 l 1,10,-1
EndSplineSet
EndChar

StartChar: L
Encoding: 76 76 47
Width: 388
GlyphClass: 2
Flags: HW
LayerCount: 2
Fore
SplineSet
72 0 m 1,0,-1
 72 673 l 2,1,2
 72 689 72 689 77.5 694.5 c 128,-1,3
 83 700 83 700 99 700 c 2,4,-1
 152 700 l 1,5,-1
 152 58 l 1,6,-1
 363 58 l 1,7,-1
 363 27 l 2,8,9
 363 11 363 11 357.5 5.5 c 128,-1,10
 352 0 352 0 336 0 c 2,11,-1
 72 0 l 1,0,-1
EndSplineSet
EndChar

StartChar: M
Encoding: 77 77 48
Width: 598
GlyphClass: 2
Flags: HW
LayerCount: 2
Fore
SplineSet
331 243 m 2,0,1
 324 228 324 228 317.5 222 c 128,-1,2
 311 216 311 216 298 216 c 2,3,-1
 268 216 l 1,4,-1
 177 445 l 1,5,-1
 142 543 l 1,6,-1
 140 543 l 1,7,-1
 147 441 l 1,8,-1
 152 27 l 2,9,10
 152 11 152 11 146.5 5.5 c 128,-1,11
 141 0 141 0 125 0 c 2,12,-1
 72 0 l 1,13,-1
 72 673 l 2,14,15
 72 689 72 689 77.5 694.5 c 128,-1,16
 83 700 83 700 99 700 c 2,17,-1
 145 700 l 1,18,-1
 266 402 l 1,19,-1
 298 294 l 1,20,-1
 300 294 l 1,21,-1
 334 409 l 1,22,-1
 443 673 l 2,23,24
 449 687 449 687 457 693.5 c 128,-1,25
 465 700 465 700 480 700 c 2,26,-1
 526 700 l 1,27,-1
 526 27 l 2,28,29
 526 11 526 11 520.5 5.5 c 128,-1,30
 515 0 515 0 499 0 c 2,31,-1
 446 0 l 1,32,-1
 446 441 l 1,33,-1
 453 540 l 1,34,-1
 451 540 l 1,35,-1
 331 243 l 2,0,1
EndSplineSet
EndChar

StartChar: N
Encoding: 78 78 49
Width: 515
GlyphClass: 2
Flags: HW
LayerCount: 2
Fore
SplineSet
370 155 m 1,0,-1
 372 155 l 1,1,-1
 363 274 l 1,2,-1
 363 673 l 2,3,4
 363 689 363 689 368.5 694.5 c 128,-1,5
 374 700 374 700 390 700 c 2,6,-1
 443 700 l 1,7,-1
 443 27 l 2,8,9
 443 11 443 11 437.5 5.5 c 128,-1,10
 432 0 432 0 416 0 c 2,11,-1
 375 0 l 1,12,-1
 185 442 l 1,13,-1
 147 553 l 1,14,-1
 145 553 l 1,15,-1
 152 441 l 1,16,-1
 152 27 l 2,17,18
 152 11 152 11 146.5 5.5 c 128,-1,19
 141 0 141 0 125 0 c 2,20,-1
 72 0 l 1,21,-1
 72 673 l 2,22,23
 72 689 72 689 77.5 694.5 c 128,-1,24
 83 700 83 700 99 700 c 2,25,-1
 151 700 l 1,26,-1
 332 273 l 1,27,-1
 370 155 l 1,0,-1
EndSplineSet
EndChar

StartChar: O
Encoding: 79 79 50
Width: 484
GlyphClass: 2
Flags: HW
LayerCount: 2
Fore
SplineSet
150 115 m 2,0,1
 150 84 150 84 158 71 c 128,-1,2
 166 58 166 58 197 58 c 2,3,-1
 287 58 l 2,4,5
 318 58 318 58 326 71 c 128,-1,6
 334 84 334 84 334 115 c 2,7,-1
 334 585 l 2,8,9
 334 616 334 616 326 629 c 128,-1,10
 318 642 318 642 287 642 c 2,11,-1
 197 642 l 2,12,13
 166 642 166 642 158 629 c 128,-1,14
 150 616 150 616 150 585 c 2,15,-1
 150 115 l 2,0,1
70 605 m 2,16,17
 70 657 70 657 91.5 678.5 c 128,-1,18
 113 700 113 700 165 700 c 2,19,-1
 319 700 l 2,20,21
 371 700 371 700 392.5 678.5 c 128,-1,22
 414 657 414 657 414 605 c 2,23,-1
 414 95 l 2,24,25
 414 43 414 43 392.5 21.5 c 128,-1,26
 371 0 371 0 319 0 c 2,27,-1
 165 0 l 2,28,29
 113 0 113 0 91.5 21.5 c 128,-1,30
 70 43 70 43 70 95 c 2,31,-1
 70 605 l 2,16,17
EndSplineSet
EndChar

StartChar: P
Encoding: 80 80 51
Width: 445
GlyphClass: 2
Flags: HW
LayerCount: 2
Fore
SplineSet
269 352 m 2,0,1
 300 352 300 352 308 365 c 128,-1,2
 316 378 316 378 316 409 c 2,3,-1
 316 585 l 2,4,5
 316 616 316 616 308 629 c 128,-1,6
 300 642 300 642 269 642 c 2,7,-1
 152 642 l 1,8,-1
 152 27 l 2,9,10
 152 11 152 11 146.5 5.5 c 128,-1,11
 141 0 141 0 125 0 c 2,12,-1
 72 0 l 1,13,-1
 72 673 l 2,14,15
 72 689 72 689 77.5 694.5 c 128,-1,16
 83 700 83 700 99 700 c 2,17,-1
 301 700 l 2,18,19
 353 700 353 700 374.5 678.5 c 128,-1,20
 396 657 396 657 396 605 c 2,21,-1
 396 389 l 2,22,23
 396 337 396 337 374.5 315.5 c 128,-1,24
 353 294 353 294 301 294 c 2,25,-1
 197 294 l 2,26,27
 181 294 181 294 176.5 299.5 c 128,-1,28
 172 305 172 305 172 321 c 2,29,-1
 172 352 l 1,30,-1
 269 352 l 2,0,1
EndSplineSet
EndChar

StartChar: Q
Encoding: 81 81 52
Width: 484
GlyphClass: 2
Flags: HW
LayerCount: 2
Fore
SplineSet
70 605 m 2,0,1
 70 657 70 657 91.5 678.5 c 128,-1,2
 113 700 113 700 165 700 c 2,3,-1
 319 700 l 2,4,5
 371 700 371 700 392.5 678.5 c 128,-1,6
 414 657 414 657 414 605 c 2,7,-1
 414 95 l 2,8,9
 414 43 414 43 392.5 21.5 c 128,-1,10
 371 0 371 0 319 0 c 2,11,-1
 263 0 l 1,12,-1
 263 -8 l 2,13,14
 263 -43 263 -43 272 -54 c 128,-1,15
 281 -65 281 -65 310 -65 c 2,16,-1
 353 -65 l 1,17,-1
 353 -96 l 2,18,19
 353 -112 353 -112 348.5 -117.5 c 128,-1,20
 344 -123 344 -123 328 -123 c 2,21,-1
 290 -123 l 2,22,23
 247 -123 247 -123 226 -101 c 128,-1,24
 205 -79 205 -79 205 -28 c 2,25,-1
 205 0 l 1,26,-1
 165 0 l 2,27,28
 113 0 113 0 91.5 21.5 c 128,-1,29
 70 43 70 43 70 95 c 2,30,-1
 70 605 l 2,0,1
150 115 m 2,31,32
 150 84 150 84 158 71 c 128,-1,33
 166 58 166 58 197 58 c 2,34,-1
 287 58 l 2,35,36
 318 58 318 58 326 71 c 128,-1,37
 334 84 334 84 334 115 c 2,38,-1
 334 585 l 2,39,40
 334 616 334 616 326 629 c 128,-1,41
 318 642 318 642 287 642 c 2,42,-1
 197 642 l 2,43,44
 166 642 166 642 158 629 c 128,-1,45
 150 616 150 616 150 585 c 2,46,-1
 150 115 l 2,31,32
EndSplineSet
EndChar

StartChar: R
Encoding: 82 82 53
Width: 468
GlyphClass: 2
Flags: HW
LayerCount: 2
Fore
SplineSet
274 392 m 2,0,1
 305 392 305 392 313 405 c 128,-1,2
 321 418 321 418 321 449 c 2,3,-1
 321 585 l 2,4,5
 321 616 321 616 313 629 c 128,-1,6
 305 642 305 642 274 642 c 2,7,-1
 152 642 l 1,8,-1
 152 27 l 2,9,10
 152 11 152 11 146.5 5.5 c 128,-1,11
 141 0 141 0 125 0 c 2,12,-1
 72 0 l 1,13,-1
 72 673 l 2,14,15
 72 689 72 689 77.5 694.5 c 128,-1,16
 83 700 83 700 99 700 c 2,17,-1
 306 700 l 2,18,19
 358 700 358 700 379.5 678.5 c 128,-1,20
 401 657 401 657 401 605 c 2,21,-1
 401 429 l 2,22,23
 401 382 401 382 384 360.5 c 128,-1,24
 367 339 367 339 326 335 c 1,25,-1
 427 0 l 1,26,-1
 376 0 l 2,27,28
 360 0 360 0 352.5 5.5 c 128,-1,29
 345 11 345 11 340 27 c 2,30,-1
 247 334 l 1,31,-1
 197 334 l 2,32,33
 181 334 181 334 176.5 339.5 c 128,-1,34
 172 345 172 345 172 361 c 2,35,-1
 172 392 l 1,36,-1
 274 392 l 2,0,1
EndSplineSet
EndChar

StartChar: S
Encoding: 83 83 54
Width: 396
GlyphClass: 2
Flags: HW
LayerCount: 2
Fore
SplineSet
336 95 m 2,0,1
 336 43 336 43 314.5 21.5 c 128,-1,2
 293 0 293 0 241 0 c 2,3,-1
 119 0 l 2,4,5
 90 0 90 0 77.5 14.5 c 128,-1,6
 65 29 65 29 59 58 c 1,7,-1
 209 58 l 2,8,9
 240 58 240 58 248 71 c 128,-1,10
 256 84 256 84 256 115 c 2,11,-1
 256 277 l 2,12,13
 256 308 256 308 247.5 321 c 128,-1,14
 239 334 239 334 205 334 c 2,15,-1
 154 334 l 2,16,17
 102 334 102 334 80.5 355.5 c 128,-1,18
 59 377 59 377 59 429 c 2,19,-1
 59 605 l 2,20,21
 59 657 59 657 80.5 678.5 c 128,-1,22
 102 700 102 700 154 700 c 2,23,-1
 273 700 l 2,24,25
 302 700 302 700 314.5 685.5 c 128,-1,26
 327 671 327 671 333 642 c 1,27,-1
 186 642 l 2,28,29
 155 642 155 642 147 629 c 128,-1,30
 139 616 139 616 139 585 c 2,31,-1
 139 449 l 2,32,33
 139 418 139 418 147 405 c 128,-1,34
 155 392 155 392 186 392 c 2,35,-1
 241 392 l 2,36,37
 293 392 293 392 314.5 370.5 c 128,-1,38
 336 349 336 349 336 297 c 2,39,-1
 336 95 l 2,0,1
EndSplineSet
EndChar

StartChar: T
Encoding: 84 84 55
Width: 422
GlyphClass: 2
Flags: HW
LayerCount: 2
Fore
SplineSet
398 700 m 1,0,-1
 398 669 l 2,1,2
 398 653 398 653 392.5 647.5 c 128,-1,3
 387 642 387 642 371 642 c 2,4,-1
 251 642 l 1,5,-1
 251 27 l 2,6,7
 251 11 251 11 245.5 5.5 c 128,-1,8
 240 0 240 0 224 0 c 2,9,-1
 171 0 l 1,10,-1
 171 642 l 1,11,-1
 26 642 l 1,12,-1
 26 673 l 2,13,14
 26 689 26 689 31.5 694.5 c 128,-1,15
 37 700 37 700 53 700 c 2,16,-1
 398 700 l 1,0,-1
EndSplineSet
EndChar

StartChar: U
Encoding: 85 85 56
Width: 492
GlyphClass: 2
Flags: HW
LayerCount: 2
Fore
SplineSet
420 700 m 1,0,-1
 420 95 l 2,1,2
 420 43 420 43 398.5 21.5 c 128,-1,3
 377 0 377 0 325 0 c 2,4,-1
 166 0 l 2,5,6
 114 0 114 0 92.5 21.5 c 128,-1,7
 71 43 71 43 71 95 c 2,8,-1
 71 673 l 2,9,10
 71 689 71 689 76.5 694.5 c 128,-1,11
 82 700 82 700 98 700 c 2,12,-1
 151 700 l 1,13,-1
 151 115 l 2,14,15
 151 84 151 84 159 71 c 128,-1,16
 167 58 167 58 198 58 c 2,17,-1
 293 58 l 2,18,19
 324 58 324 58 332 71 c 128,-1,20
 340 84 340 84 340 115 c 2,21,-1
 340 673 l 2,22,23
 340 689 340 689 345.5 694.5 c 128,-1,24
 351 700 351 700 367 700 c 2,25,-1
 420 700 l 1,0,-1
EndSplineSet
EndChar

StartChar: V
Encoding: 86 86 57
Width: 453
GlyphClass: 2
Flags: HW
LayerCount: 2
Fore
SplineSet
31 673 m 2,0,1
 30 678 30 678 30 682 c 0,2,3
 30 700 30 700 51 700 c 2,4,-1
 106 700 l 1,5,-1
 213 196 l 1,6,-1
 225 92 l 1,7,-1
 227 92 l 1,8,-1
 239 196 l 1,9,-1
 339 673 l 2,10,11
 343 689 343 689 350 694.5 c 128,-1,12
 357 700 357 700 373 700 c 2,13,-1
 426 700 l 1,14,-1
 282 27 l 2,15,16
 278 11 278 11 271.5 5.5 c 128,-1,17
 265 0 265 0 249 0 c 2,18,-1
 175 0 l 1,19,-1
 31 673 l 2,0,1
EndSplineSet
EndChar

StartChar: W
Encoding: 87 87 58
Width: 691
GlyphClass: 2
Flags: HW
LayerCount: 2
Fore
SplineSet
340 391 m 1,0,-1
 338 391 l 1,1,-1
 301 212 l 1,2,-1
 259 27 l 2,3,4
 255 11 255 11 248.5 5.5 c 128,-1,5
 242 0 242 0 226 0 c 2,6,-1
 161 0 l 1,7,-1
 32 673 l 2,8,9
 31 678 31 678 31 682 c 0,10,11
 31 700 31 700 52 700 c 2,12,-1
 112 700 l 1,13,-1
 201 212 l 1,14,-1
 216 93 l 1,15,-1
 218 93 l 1,16,-1
 237 212 l 1,17,-1
 308 498 l 1,18,19
 314 513 314 513 329 513 c 2,20,-1
 374 513 l 1,21,-1
 451 212 l 1,22,-1
 477 93 l 1,23,-1
 479 93 l 1,24,-1
 494 212 l 1,25,-1
 576 673 l 2,26,27
 579 689 579 689 586.5 694.5 c 128,-1,28
 594 700 594 700 610 700 c 2,29,-1
 663 700 l 1,30,-1
 534 27 l 2,31,32
 530 11 530 11 523.5 5.5 c 128,-1,33
 517 0 517 0 501 0 c 2,34,-1
 432 0 l 1,35,-1
 379 212 l 1,36,-1
 340 391 l 1,0,-1
EndSplineSet
EndChar

StartChar: X
Encoding: 88 88 59
Width: 437
GlyphClass: 2
Flags: HW
LayerCount: 2
Fore
SplineSet
59 700 m 2,0,-1
 102 700 l 1,1,-1
 197 476 l 1,2,-1
 218 411 l 1,3,-1
 240 476 l 1,4,-1
 335 700 l 1,5,-1
 378 700 l 2,6,7
 394 700 394 700 398.5 694.5 c 128,-1,8
 403 689 403 689 403 673 c 1,9,-1
 261 348 l 1,10,-1
 402 27 l 1,11,12
 402 11 402 11 397.5 5.5 c 128,-1,13
 393 0 393 0 377 0 c 2,14,-1
 334 0 l 1,15,-1
 239 224 l 1,16,-1
 218 285 l 1,17,-1
 198 224 l 1,18,-1
 103 0 l 1,19,-1
 60 0 l 2,20,21
 44 0 44 0 39.5 5.5 c 128,-1,22
 35 11 35 11 35 27 c 1,23,-1
 176 348 l 1,24,-1
 34 673 l 1,25,26
 34 689 34 689 38.5 694.5 c 128,-1,27
 43 700 43 700 59 700 c 2,0,-1
EndSplineSet
EndChar

StartChar: Y
Encoding: 89 89 60
Width: 410
GlyphClass: 2
Flags: HW
LayerCount: 2
Fore
SplineSet
91 700 m 1,0,-1
 176 476 l 1,1,-1
 204 392 l 1,2,-1
 206 392 l 1,3,-1
 234 475 l 1,4,-1
 309 673 l 2,5,6
 314 688 314 688 321 694 c 128,-1,7
 328 700 328 700 345 700 c 2,8,-1
 394 700 l 1,9,-1
 244 324 l 1,10,-1
 244 28 l 2,11,12
 244 11 244 11 238 5.5 c 128,-1,13
 232 0 232 0 216 0 c 2,14,-1
 164 0 l 1,15,-1
 164 328 l 1,16,-1
 23 673 l 1,17,18
 23 689 23 689 27.5 694.5 c 128,-1,19
 32 700 32 700 48 700 c 2,20,-1
 91 700 l 1,0,-1
EndSplineSet
EndChar

StartChar: Z
Encoding: 90 90 61
Width: 409
GlyphClass: 2
Flags: HW
LayerCount: 2
Fore
SplineSet
63 0 m 2,0,1
 47 0 47 0 42.5 5.5 c 128,-1,2
 38 11 38 11 38 27 c 2,3,-1
 38 58 l 1,4,-1
 286 642 l 1,5,-1
 52 642 l 1,6,-1
 52 673 l 2,7,8
 52 689 52 689 56.5 694.5 c 128,-1,9
 61 700 61 700 77 700 c 2,10,-1
 341 700 l 2,11,12
 357 700 357 700 361.5 694.5 c 128,-1,13
 366 689 366 689 366 673 c 2,14,-1
 366 642 l 1,15,-1
 117 58 l 1,16,-1
 363 58 l 1,17,-1
 363 27 l 2,18,19
 363 11 363 11 358.5 5.5 c 128,-1,20
 354 0 354 0 338 0 c 2,21,-1
 63 0 l 2,0,1
EndSplineSet
EndChar

StartChar: bracketleft
Encoding: 91 91 62
Width: 318
GlyphClass: 2
Flags: HW
LayerCount: 2
Fore
SplineSet
74 -130 m 1,0,-1
 74 733 l 2,1,2
 74 749 74 749 79.5 754.5 c 128,-1,3
 85 760 85 760 101 760 c 2,4,-1
 280 760 l 1,5,-1
 280 702 l 1,6,-1
 154 702 l 1,7,-1
 154 -72 l 1,8,-1
 280 -72 l 1,9,-1
 280 -130 l 1,10,-1
 74 -130 l 1,0,-1
EndSplineSet
EndChar

StartChar: backslash
Encoding: 92 92 63
Width: 386
GlyphClass: 2
Flags: HW
LayerCount: 2
Fore
SplineSet
42 747 m 0,0,1
 42 760 42 760 65 760 c 2,2,-1
 114 760 l 1,3,-1
 342 -94 l 2,4,5
 345 -102 345 -102 345 -108 c 0,6,7
 345 -121 345 -121 322 -121 c 2,8,-1
 273 -121 l 1,9,-1
 45 733 l 2,10,11
 42 741 42 741 42 747 c 0,0,1
EndSplineSet
EndChar

StartChar: bracketright
Encoding: 93 93 64
Width: 318
GlyphClass: 2
Flags: HW
LayerCount: 2
Fore
SplineSet
244 760 m 1,0,-1
 244 -103 l 2,1,2
 244 -119 244 -119 238.5 -124.5 c 128,-1,3
 233 -130 233 -130 217 -130 c 2,4,-1
 38 -130 l 1,5,-1
 38 -72 l 1,6,-1
 164 -72 l 1,7,-1
 164 702 l 1,8,-1
 38 702 l 1,9,-1
 38 760 l 1,10,-1
 244 760 l 1,0,-1
EndSplineSet
EndChar

StartChar: underscore
Encoding: 95 95 66
Width: 479
GlyphClass: 2
Flags: HW
LayerCount: 2
Fore
SplineSet
24 0 m 1,0,-1
 447 0 l 2,1,2
 463 0 463 0 468.5 -5.5 c 128,-1,3
 474 -11 474 -11 474 -27 c 2,4,-1
 474 -58 l 1,5,-1
 51 -58 l 2,6,7
 35 -58 35 -58 29.5 -52.5 c 128,-1,8
 24 -47 24 -47 24 -31 c 2,9,-1
 24 0 l 1,0,-1
EndSplineSet
EndChar

StartChar: grave
Encoding: 96 96 67
Width: 255
GlyphClass: 2
Flags: HW
LayerCount: 2
Fore
SplineSet
72 676 m 1,0,1
 72 690 72 690 77 695 c 128,-1,2
 82 700 82 700 97 700 c 2,3,-1
 146 700 l 1,4,-1
 203 583 l 2,5,6
 206 579 206 579 206 571 c 0,7,8
 206 559 206 559 187 559 c 2,9,-1
 161 559 l 1,10,-1
 72 676 l 1,0,1
EndSplineSet
EndChar

StartChar: a
Encoding: 97 97 68
Width: 436
GlyphClass: 2
Flags: HW
LayerCount: 2
Fore
SplineSet
291 393 m 2,0,1
 291 424 291 424 283 437 c 128,-1,2
 275 450 275 450 244 450 c 2,3,-1
 71 450 l 1,4,5
 77 479 77 479 89.5 493.5 c 128,-1,6
 102 508 102 508 131 508 c 2,7,-1
 276 508 l 2,8,9
 328 508 328 508 349.5 486.5 c 128,-1,10
 371 465 371 465 371 413 c 2,11,-1
 371 0 l 1,12,-1
 318 0 l 2,13,14
 302 0 302 0 296.5 5.5 c 128,-1,15
 291 11 291 11 291 27 c 2,16,-1
 291 393 l 2,0,1
146 0 m 2,17,18
 94 0 94 0 72.5 21.5 c 128,-1,19
 51 43 51 43 51 95 c 2,20,-1
 51 205 l 2,21,22
 51 257 51 257 72.5 278.5 c 128,-1,23
 94 300 94 300 146 300 c 2,24,-1
 231 300 l 2,25,26
 260 300 260 300 272.5 285.5 c 128,-1,27
 285 271 285 271 291 242 c 1,28,-1
 188 242 l 2,29,30
 157 242 157 242 144 229 c 128,-1,31
 131 216 131 216 131 185 c 2,32,-1
 131 115 l 2,33,34
 131 84 131 84 144 71 c 128,-1,35
 157 58 157 58 188 58 c 2,36,-1
 271 58 l 1,37,-1
 271 27 l 2,38,39
 271 11 271 11 266.5 5.5 c 128,-1,40
 262 0 262 0 246 0 c 2,41,-1
 146 0 l 2,17,18
EndSplineSet
EndChar

StartChar: b
Encoding: 98 98 69
Width: 459
GlyphClass: 2
Flags: HW
LayerCount: 2
Fore
SplineSet
301 508 m 2,0,1
 353 508 353 508 374.5 486.5 c 128,-1,2
 396 465 396 465 396 413 c 2,3,-1
 396 95 l 2,4,5
 396 43 396 43 374.5 21.5 c 128,-1,6
 353 0 353 0 301 0 c 2,7,-1
 206 0 l 2,8,9
 177 0 177 0 164.5 14.5 c 128,-1,10
 152 29 152 29 146 58 c 1,11,-1
 146 27 l 2,12,13
 146 11 146 11 140.5 5.5 c 128,-1,14
 135 0 135 0 119 0 c 2,15,-1
 66 0 l 1,16,-1
 66 673 l 2,17,18
 66 689 66 689 71.5 694.5 c 128,-1,19
 77 700 77 700 93 700 c 2,20,-1
 146 700 l 1,21,-1
 146 58 l 1,22,-1
 269 58 l 2,23,24
 300 58 300 58 308 71 c 128,-1,25
 316 84 316 84 316 115 c 2,26,-1
 316 393 l 2,27,28
 316 424 316 424 308 437 c 128,-1,29
 300 450 300 450 269 450 c 2,30,-1
 166 450 l 1,31,-1
 166 481 l 2,32,33
 166 497 166 497 170.5 502.5 c 128,-1,34
 175 508 175 508 191 508 c 2,35,-1
 301 508 l 2,0,1
EndSplineSet
EndChar

StartChar: c
Encoding: 99 99 70
Width: 355
GlyphClass: 2
Flags: HW
LayerCount: 2
Fore
SplineSet
288 508 m 2,0,1
 304 508 304 508 308.5 502.5 c 128,-1,2
 313 497 313 497 313 481 c 2,3,-1
 313 450 l 1,4,-1
 190 450 l 2,5,6
 159 450 159 450 151 437 c 128,-1,7
 143 424 143 424 143 393 c 2,8,-1
 143 115 l 2,9,10
 143 84 143 84 151 71 c 128,-1,11
 159 58 159 58 190 58 c 2,12,-1
 313 58 l 1,13,-1
 313 27 l 2,14,15
 313 11 313 11 308.5 5.5 c 128,-1,16
 304 0 304 0 288 0 c 2,17,-1
 158 0 l 2,18,19
 106 0 106 0 84.5 21.5 c 128,-1,20
 63 43 63 43 63 95 c 2,21,-1
 63 413 l 2,22,23
 63 465 63 465 84.5 486.5 c 128,-1,24
 106 508 106 508 158 508 c 2,25,-1
 288 508 l 2,0,1
EndSplineSet
EndChar

StartChar: d
Encoding: 100 100 71
Width: 458
GlyphClass: 2
Flags: HW
LayerCount: 2
Fore
SplineSet
393 700 m 1,0,-1
 393 27 l 2,1,2
 393 11 393 11 387.5 5.5 c 128,-1,3
 382 0 382 0 366 0 c 2,4,-1
 313 0 l 1,5,-1
 313 673 l 2,6,7
 313 689 313 689 318.5 694.5 c 128,-1,8
 324 700 324 700 340 700 c 2,9,-1
 393 700 l 1,0,-1
158 0 m 2,10,11
 106 0 106 0 84.5 21.5 c 128,-1,12
 63 43 63 43 63 95 c 2,13,-1
 63 413 l 2,14,15
 63 465 63 465 84.5 486.5 c 128,-1,16
 106 508 106 508 158 508 c 2,17,-1
 253 508 l 2,18,19
 282 508 282 508 294.5 493.5 c 128,-1,20
 307 479 307 479 313 450 c 1,21,-1
 190 450 l 2,22,23
 159 450 159 450 151 437 c 128,-1,24
 143 424 143 424 143 393 c 2,25,-1
 143 115 l 2,26,27
 143 84 143 84 151 71 c 128,-1,28
 159 58 159 58 190 58 c 2,29,-1
 293 58 l 1,30,-1
 293 27 l 2,31,32
 293 11 293 11 288.5 5.5 c 128,-1,33
 284 0 284 0 268 0 c 2,34,-1
 158 0 l 2,10,11
EndSplineSet
EndChar

StartChar: e
Encoding: 101 101 72
Width: 433
GlyphClass: 2
Flags: HW
LayerCount: 2
Fore
SplineSet
354 58 m 1,0,-1
 354 27 l 2,1,2
 354 11 354 11 349.5 5.5 c 128,-1,3
 345 0 345 0 329 0 c 2,4,-1
 158 0 l 2,5,6
 106 0 106 0 84.5 21.5 c 128,-1,7
 63 43 63 43 63 95 c 2,8,-1
 63 413 l 2,9,10
 63 465 63 465 84.5 486.5 c 128,-1,11
 106 508 106 508 158 508 c 2,12,-1
 288 508 l 2,13,14
 340 508 340 508 361.5 486.5 c 128,-1,15
 383 465 383 465 383 413 c 2,16,-1
 383 301 l 2,17,18
 383 249 383 249 361.5 227.5 c 128,-1,19
 340 206 340 206 288 206 c 2,20,-1
 188 206 l 2,21,22
 172 206 172 206 167.5 211.5 c 128,-1,23
 163 217 163 217 163 233 c 2,24,-1
 163 264 l 1,25,-1
 256 264 l 2,26,27
 287 264 287 264 295 277 c 128,-1,28
 303 290 303 290 303 321 c 2,29,-1
 303 393 l 2,30,31
 303 424 303 424 290 437 c 128,-1,32
 277 450 277 450 246 450 c 2,33,-1
 200 450 l 2,34,35
 169 450 169 450 156 437 c 128,-1,36
 143 424 143 424 143 393 c 2,37,-1
 143 115 l 2,38,39
 143 84 143 84 151 71 c 128,-1,40
 159 58 159 58 190 58 c 2,41,-1
 354 58 l 1,0,-1
EndSplineSet
EndChar

StartChar: f
Encoding: 102 102 73
Width: 301
GlyphClass: 2
Flags: HW
LayerCount: 2
Fore
SplineSet
281 700 m 2,0,1
 297 700 297 700 301.5 694.5 c 128,-1,2
 306 689 306 689 306 673 c 2,3,-1
 306 642 l 1,4,-1
 193 642 l 2,5,6
 162.333333333 642 162.333333333 642 155.666666667 634 c 0,7,8
 146 622.4 146 622.4 146 585 c 2,9,-1
 146 508 l 1,10,-1
 244 508 l 2,11,12
 260 508 260 508 264.5 502.5 c 128,-1,13
 269 497 269 497 269 481 c 2,14,-1
 269 450 l 1,15,-1
 146 450 l 1,16,-1
 146 27 l 2,17,18
 146 11 146 11 140.5 5.5 c 128,-1,19
 135 0 135 0 119 0 c 2,20,-1
 66 0 l 1,21,-1
 66 605 l 2,22,23
 66 657 66 657 87.5 678.5 c 128,-1,24
 109 700 109 700 161 700 c 2,25,-1
 281 700 l 2,0,1
EndSplineSet
EndChar

StartChar: g
Encoding: 103 103 74
Width: 473
GlyphClass: 2
Flags: HW
LayerCount: 2
Fore
SplineSet
158 0 m 2,0,1
 106 0 106 0 84.5 21.5 c 128,-1,2
 63 43 63 43 63 95 c 2,3,-1
 63 413 l 2,4,5
 63 465 63 465 84.5 486.5 c 128,-1,6
 106 508 106 508 158 508 c 2,7,-1
 253 508 l 2,8,9
 282 508 282 508 294.5 493.5 c 128,-1,10
 307 479 307 479 313 450 c 1,11,-1
 190 450 l 2,12,13
 159 450 159 450 151 437 c 128,-1,14
 143 424 143 424 143 393 c 2,15,-1
 143 115 l 2,16,17
 143 84 143 84 151 71 c 128,-1,18
 159 58 159 58 190 58 c 2,19,-1
 293 58 l 1,20,-1
 293 27 l 2,21,22
 293 11 293 11 288.5 5.5 c 128,-1,23
 284 0 284 0 268 0 c 2,24,-1
 158 0 l 2,0,1
88 -201 m 2,25,26
 72 -201 72 -201 67.5 -195.5 c 128,-1,27
 63 -190 63 -190 63 -174 c 2,28,-1
 63 -143 l 1,29,-1
 266 -143 l 2,30,31
 296.666666667 -143 296.666666667 -143 303.333333333 -135 c 0,32,33
 313 -123.4 313 -123.4 313 -86 c 2,34,-1
 313 481 l 2,35,36
 313 497 313 497 318.5 502.5 c 128,-1,37
 324 508 324 508 340 508 c 2,38,-1
 393 508 l 1,39,-1
 393 -106 l 2,40,41
 393 -158 393 -158 371.5 -179.5 c 128,-1,42
 350 -201 350 -201 298 -201 c 2,43,-1
 88 -201 l 2,25,26
EndSplineSet
EndChar

StartChar: h
Encoding: 104 104 75
Width: 460
GlyphClass: 2
Flags: HW
LayerCount: 2
Fore
SplineSet
396 27 m 2,0,1
 396 11 396 11 390.5 5.5 c 128,-1,2
 385 0 385 0 369 0 c 2,3,-1
 316 0 l 1,4,-1
 316 393 l 2,5,6
 316 424 316 424 308 437 c 128,-1,7
 300 450 300 450 269 450 c 2,8,-1
 146 450 l 1,9,-1
 146 27 l 2,10,11
 146 11 146 11 140.5 5.5 c 128,-1,12
 135 0 135 0 119 0 c 2,13,-1
 66 0 l 1,14,-1
 66 673 l 2,15,16
 66 689 66 689 71.5 694.5 c 128,-1,17
 77 700 77 700 93 700 c 2,18,-1
 146 700 l 1,19,-1
 146 450 l 1,20,21
 152 479 152 479 164.5 493.5 c 128,-1,22
 177 508 177 508 206 508 c 2,23,-1
 301 508 l 2,24,25
 353 508 353 508 374.5 486.5 c 128,-1,26
 396 465 396 465 396 413 c 2,27,-1
 396 27 l 2,0,1
EndSplineSet
EndChar

StartChar: i
Encoding: 105 105 76
Width: 210
GlyphClass: 2
Flags: HW
LayerCount: 2
Fore
SplineSet
61 615 m 2,0,1
 61 631 61 631 66.5 636.5 c 128,-1,2
 72 642 72 642 88 642 c 2,3,-1
 149 642 l 1,4,-1
 149 589 l 2,5,6
 149 573 149 573 143.5 567.5 c 128,-1,7
 138 562 138 562 122 562 c 2,8,-1
 61 562 l 1,9,-1
 61 615 l 2,0,1
145 508 m 1,10,-1
 145 27 l 2,11,12
 145 11 145 11 139.5 5.5 c 128,-1,13
 134 0 134 0 118 0 c 2,14,-1
 65 0 l 1,15,-1
 65 481 l 2,16,17
 65 497 65 497 70.5 502.5 c 128,-1,18
 76 508 76 508 92 508 c 2,19,-1
 145 508 l 1,10,-1
EndSplineSet
EndChar

StartChar: j
Encoding: 106 106 77
Width: 211
GlyphClass: 2
Flags: HW
LayerCount: 2
Fore
SplineSet
65 481 m 2,0,1
 65 497 65 497 70.5 502.5 c 128,-1,2
 76 508 76 508 92 508 c 2,3,-1
 145 508 l 1,4,-1
 145 -118 l 2,5,6
 145 -159 145 -159 125 -176 c 128,-1,7
 105 -193 105 -193 65 -201 c 1,8,-1
 65 481 l 2,0,1
61 615 m 2,9,10
 61 631 61 631 66.5 636.5 c 128,-1,11
 72 642 72 642 88 642 c 2,12,-1
 149 642 l 1,13,-1
 149 589 l 2,14,15
 149 573 149 573 143.5 567.5 c 128,-1,16
 138 562 138 562 122 562 c 2,17,-1
 61 562 l 1,18,-1
 61 615 l 2,9,10
EndSplineSet
EndChar

StartChar: k
Encoding: 107 107 78
Width: 418
GlyphClass: 2
Flags: HW
LayerCount: 2
Fore
SplineSet
397 0 m 1,0,-1
 328 0 l 2,1,2
 312 0 312 0 305 6.5 c 128,-1,3
 298 13 298 13 290 27 c 2,4,-1
 146 278 l 1,5,-1
 146 27 l 2,6,7
 146 11 146 11 140.5 5.5 c 128,-1,8
 135 0 135 0 119 0 c 2,9,-1
 66 0 l 1,10,-1
 66 673 l 2,11,12
 66 689 66 689 71.5 694.5 c 128,-1,13
 77 700 77 700 93 700 c 2,14,-1
 146 700 l 1,15,-1
 146 278 l 1,16,-1
 285 480 l 2,17,18
 294 493 294 493 300.5 500 c 128,-1,19
 307 507 307 507 323 507 c 2,20,-1
 390 507 l 1,21,-1
 225 278 l 1,22,-1
 397 0 l 1,0,-1
EndSplineSet
EndChar

StartChar: l
Encoding: 108 108 79
Width: 221
GlyphClass: 2
Flags: HW
LayerCount: 2
Fore
SplineSet
151 700 m 1,0,-1
 151 27 l 2,1,2
 151 11 151 11 145.5 5.5 c 128,-1,3
 140 0 140 0 124 0 c 2,4,-1
 71 0 l 1,5,-1
 71 673 l 2,6,7
 71 689 71 689 76.5 694.5 c 128,-1,8
 82 700 82 700 98 700 c 2,9,-1
 151 700 l 1,0,-1
EndSplineSet
EndChar

StartChar: m
Encoding: 109 109 80
Width: 697
GlyphClass: 2
Flags: HW
LayerCount: 2
Fore
SplineSet
389 27 m 2,0,1
 389 11 389 11 383.5 5.5 c 128,-1,2
 378 0 378 0 362 0 c 2,3,-1
 309 0 l 1,4,-1
 309 393 l 2,5,6
 309 424 309 424 301 437 c 128,-1,7
 293 450 293 450 262 450 c 2,8,-1
 145 450 l 1,9,-1
 145 27 l 2,10,11
 145 11 145 11 139.5 5.5 c 128,-1,12
 134 0 134 0 118 0 c 2,13,-1
 65 0 l 1,14,-1
 65 481 l 2,15,16
 65 497 65 497 70.5 502.5 c 128,-1,17
 76 508 76 508 92 508 c 2,18,-1
 145 508 l 1,19,-1
 145 450 l 1,20,21
 151 479 151 479 163.5 493.5 c 128,-1,22
 176 508 176 508 205 508 c 2,23,-1
 294 508 l 2,24,25
 346 508 346 508 367.5 486.5 c 128,-1,26
 389 465 389 465 389 413 c 2,27,-1
 389 27 l 2,0,1
633 27 m 2,28,29
 633 11 633 11 627.5 5.5 c 128,-1,30
 622 0 622 0 606 0 c 2,31,-1
 553 0 l 1,32,-1
 553 393 l 2,33,34
 553 424 553 424 545 437 c 128,-1,35
 537 450 537 450 506 450 c 2,36,-1
 386 450 l 1,37,38
 392 479 392 479 404.5 493.5 c 128,-1,39
 417 508 417 508 446 508 c 2,40,-1
 538 508 l 2,41,42
 590 508 590 508 611.5 486.5 c 128,-1,43
 633 465 633 465 633 413 c 2,44,-1
 633 27 l 2,28,29
EndSplineSet
EndChar

StartChar: n
Encoding: 110 110 81
Width: 459
GlyphClass: 2
Flags: HW
LayerCount: 2
Fore
SplineSet
300 508 m 2,0,1
 352 508 352 508 373.5 486.5 c 128,-1,2
 395 465 395 465 395 413 c 2,3,-1
 395 27 l 2,4,5
 395 11 395 11 389.5 5.5 c 128,-1,6
 384 0 384 0 368 0 c 2,7,-1
 315 0 l 1,8,-1
 315 393 l 2,9,10
 315 424 315 424 307 437 c 128,-1,11
 299 450 299 450 268 450 c 2,12,-1
 145 450 l 1,13,-1
 145 27 l 2,14,15
 145 11 145 11 139.5 5.5 c 128,-1,16
 134 0 134 0 118 0 c 2,17,-1
 65 0 l 1,18,-1
 65 481 l 2,19,20
 65 497 65 497 70.5 502.5 c 128,-1,21
 76 508 76 508 92 508 c 2,22,-1
 145 508 l 1,23,-1
 145 450 l 1,24,25
 151 479 151 479 163.5 493.5 c 128,-1,26
 176 508 176 508 205 508 c 2,27,-1
 300 508 l 2,0,1
EndSplineSet
EndChar

StartChar: o
Encoding: 111 111 82
Width: 456
GlyphClass: 2
Flags: HW
LayerCount: 2
Fore
SplineSet
63 413 m 2,0,1
 63 465 63 465 84.5 486.5 c 128,-1,2
 106 508 106 508 158 508 c 2,3,-1
 298 508 l 2,4,5
 350 508 350 508 371.5 486.5 c 128,-1,6
 393 465 393 465 393 413 c 2,7,-1
 393 95 l 2,8,9
 393 43 393 43 371.5 21.5 c 128,-1,10
 350 0 350 0 298 0 c 2,11,-1
 158 0 l 2,12,13
 106 0 106 0 84.5 21.5 c 128,-1,14
 63 43 63 43 63 95 c 2,15,-1
 63 413 l 2,0,1
190 450 m 2,16,17
 159 450 159 450 151 437 c 128,-1,18
 143 424 143 424 143 393 c 2,19,-1
 143 115 l 2,20,21
 143 84 143 84 151 71 c 128,-1,22
 159 58 159 58 190 58 c 2,23,-1
 266 58 l 2,24,25
 297 58 297 58 305 71 c 128,-1,26
 313 84 313 84 313 115 c 2,27,-1
 313 393 l 2,28,29
 313 424 313 424 305 437 c 128,-1,30
 297 450 297 450 266 450 c 2,31,-1
 190 450 l 2,16,17
EndSplineSet
EndChar

StartChar: p
Encoding: 112 112 83
Width: 458
GlyphClass: 2
Flags: HW
LayerCount: 2
Fore
SplineSet
300 508 m 2,0,1
 352 508 352 508 373.5 486.5 c 128,-1,2
 395 465 395 465 395 413 c 2,3,-1
 395 95 l 2,4,5
 395 43 395 43 373.5 21.5 c 128,-1,6
 352 0 352 0 300 0 c 2,7,-1
 205 0 l 2,8,9
 176 0 176 0 163.5 14.5 c 128,-1,10
 151 29 151 29 145 58 c 1,11,-1
 145 -174 l 2,12,13
 145 -190 145 -190 139.5 -195.5 c 128,-1,14
 134 -201 134 -201 118 -201 c 2,15,-1
 65 -201 l 1,16,-1
 65 481 l 2,17,18
 65 497 65 497 70.5 502.5 c 128,-1,19
 76 508 76 508 92 508 c 2,20,-1
 145 508 l 1,21,-1
 145 58 l 1,22,-1
 268 58 l 2,23,24
 299 58 299 58 307 71 c 128,-1,25
 315 84 315 84 315 115 c 2,26,-1
 315 393 l 2,27,28
 315 424 315 424 307 437 c 128,-1,29
 299 450 299 450 268 450 c 2,30,-1
 165 450 l 1,31,-1
 165 481 l 2,32,33
 165 497 165 497 169.5 502.5 c 128,-1,34
 174 508 174 508 190 508 c 2,35,-1
 300 508 l 2,0,1
EndSplineSet
EndChar

StartChar: q
Encoding: 113 113 84
Width: 459
GlyphClass: 2
Flags: HW
LayerCount: 2
Fore
SplineSet
313 -201 m 1,0,-1
 313 481 l 2,1,2
 313 497 313 497 318.5 502.5 c 128,-1,3
 324 508 324 508 340 508 c 2,4,-1
 393 508 l 1,5,-1
 393 -174 l 2,6,7
 393 -190 393 -190 387.5 -195.5 c 128,-1,8
 382 -201 382 -201 366 -201 c 2,9,-1
 313 -201 l 1,0,-1
158 0 m 2,10,11
 106 0 106 0 84.5 21.5 c 128,-1,12
 63 43 63 43 63 95 c 2,13,-1
 63 413 l 2,14,15
 63 465 63 465 84.5 486.5 c 128,-1,16
 106 508 106 508 158 508 c 2,17,-1
 253 508 l 2,18,19
 282 508 282 508 294.5 493.5 c 128,-1,20
 307 479 307 479 313 450 c 1,21,-1
 190 450 l 2,22,23
 159 450 159 450 151 437 c 128,-1,24
 143 424 143 424 143 393 c 2,25,-1
 143 115 l 2,26,27
 143 84 143 84 151 71 c 128,-1,28
 159 58 159 58 190 58 c 2,29,-1
 293 58 l 1,30,-1
 293 27 l 2,31,32
 293 11 293 11 288.5 5.5 c 128,-1,33
 284 0 284 0 268 0 c 2,34,-1
 158 0 l 2,10,11
EndSplineSet
EndChar

StartChar: r
Encoding: 114 114 85
Width: 310
GlyphClass: 2
Flags: HW
LayerCount: 2
Fore
SplineSet
145 450 m 1,0,-1
 145 27 l 2,1,2
 145 11 145 11 139.5 5.5 c 128,-1,3
 134 0 134 0 118 0 c 2,4,-1
 65 0 l 1,5,-1
 65 481 l 2,6,7
 65 497 65 497 70.5 502.5 c 128,-1,8
 76 508 76 508 92 508 c 2,9,-1
 145 508 l 1,10,-1
 145 450 l 1,11,12
 158 484 158 484 172 496 c 128,-1,13
 186 508 186 508 215 508 c 2,14,-1
 254 508 l 2,15,16
 270 508 270 508 274.5 502.5 c 128,-1,17
 279 497 279 497 279 481 c 2,18,-1
 279 450 l 1,19,-1
 145 450 l 1,0,-1
EndSplineSet
EndChar

StartChar: s
Encoding: 115 115 86
Width: 375
GlyphClass: 2
Flags: HW
LayerCount: 2
Fore
SplineSet
142 225 m 2,0,1
 90.2380952381 225 90.2380952381 225 73.5 243.5 c 0,2,3
 57 261.736842105 57 261.736842105 57 314 c 2,4,-1
 57 413 l 2,5,6
 57 465 57 465 78.5 486.5 c 128,-1,7
 100 508 100 508 152 508 c 2,8,-1
 286 508 l 2,9,10
 302 508 302 508 306.5 502.5 c 128,-1,11
 311 497 311 497 311 481 c 2,12,-1
 311 450 l 1,13,-1
 184 450 l 2,14,15
 153 450 153 450 145 437 c 128,-1,16
 137 424 137 424 137 393 c 2,17,-1
 137 340 l 2,18,19
 137 302.6 137 302.6 143.5 294.8 c 0,20,21
 153.333333333 283 153.333333333 283 184 283 c 2,22,-1
 236 283 l 2,23,24
 287.761904762 283 287.761904762 283 304.5 264.5 c 0,25,26
 321 246.263157895 321 246.263157895 321 194 c 2,27,-1
 321 95 l 2,28,29
 321 43 321 43 299.5 21.5 c 128,-1,30
 278 0 278 0 226 0 c 2,31,-1
 82 0 l 2,32,33
 66 0 66 0 61.5 5.5 c 128,-1,34
 57 11 57 11 57 27 c 2,35,-1
 57 58 l 1,36,-1
 194 58 l 2,37,38
 225 58 225 58 233 71 c 128,-1,39
 241 84 241 84 241 115 c 2,40,-1
 241 168 l 2,41,42
 241 199 241 199 233 212 c 128,-1,43
 225 225 225 225 194 225 c 2,44,-1
 142 225 l 2,0,1
EndSplineSet
EndChar

StartChar: t
Encoding: 116 116 87
Width: 304
GlyphClass: 2
Flags: HW
LayerCount: 2
Fore
SplineSet
244 508 m 2,0,1
 260 508 260 508 264.5 502.5 c 128,-1,2
 269 497 269 497 269 481 c 2,3,-1
 269 450 l 1,4,-1
 146 450 l 1,5,-1
 146 115 l 2,6,7
 146 84 146 84 154 71 c 128,-1,8
 162 58 162 58 193 58 c 2,9,-1
 280 58 l 1,10,11
 278 29 278 29 268.5 14.5 c 128,-1,12
 259 0 259 0 230 0 c 2,13,-1
 161 0 l 2,14,15
 109 0 109 0 87.5 21.5 c 128,-1,16
 66 43 66 43 66 95 c 2,17,-1
 66 597 l 2,18,19
 66 613 66 613 71.5 618.5 c 128,-1,20
 77 624 77 624 93 624 c 2,21,-1
 146 624 l 1,22,-1
 146 508 l 1,23,-1
 244 508 l 2,0,1
EndSplineSet
EndChar

StartChar: u
Encoding: 117 117 88
Width: 459
GlyphClass: 2
Flags: HW
LayerCount: 2
Fore
SplineSet
314 0 m 1,0,-1
 314 481 l 2,1,2
 314 497 314 497 319.5 502.5 c 128,-1,3
 325 508 325 508 341 508 c 2,4,-1
 394 508 l 1,5,-1
 394 27 l 2,6,7
 394 11 394 11 388.5 5.5 c 128,-1,8
 383 0 383 0 367 0 c 2,9,-1
 314 0 l 1,0,-1
64 481 m 2,10,11
 64 497 64 497 69.5 502.5 c 128,-1,12
 75 508 75 508 91 508 c 2,13,-1
 144 508 l 1,14,-1
 144 115 l 2,15,16
 144 84 144 84 152 71 c 128,-1,17
 160 58 160 58 191 58 c 2,18,-1
 294 58 l 1,19,-1
 294 27 l 2,20,21
 294 11 294 11 289.5 5.5 c 128,-1,22
 285 0 285 0 269 0 c 2,23,-1
 159 0 l 2,24,25
 107 0 107 0 85.5 21.5 c 128,-1,26
 64 43 64 43 64 95 c 2,27,-1
 64 481 l 2,10,11
EndSplineSet
EndChar

StartChar: v
Encoding: 118 118 89
Width: 404
GlyphClass: 2
Flags: HW
LayerCount: 2
Fore
SplineSet
254 27 m 2,0,1
 250 11 250 11 243.5 5.5 c 128,-1,2
 237 0 237 0 221 0 c 2,3,-1
 153 0 l 1,4,-1
 31 481 l 2,5,6
 30 486 30 486 30 490 c 0,7,8
 30 508 30 508 51 508 c 2,9,-1
 101 508 l 1,10,-1
 179 193 l 1,11,-1
 202 74 l 1,12,-1
 204 74 l 1,13,-1
 228 193 l 1,14,-1
 302 481 l 2,15,16
 306 497 306 497 313 502.5 c 128,-1,17
 320 508 320 508 336 508 c 2,18,-1
 378 508 l 1,19,-1
 254 27 l 2,0,1
EndSplineSet
EndChar

StartChar: w
Encoding: 119 119 90
Width: 539
GlyphClass: 2
Flags: HW
LayerCount: 2
Fore
SplineSet
440 25 m 2,0,1
 438 13 438 13 433 6.5 c 128,-1,2
 428 0 428 0 415 0 c 2,3,-1
 340 0 l 1,4,-1
 298 184 l 1,5,-1
 276 314 l 1,6,-1
 274 314 l 1,7,-1
 251 184 l 1,8,-1
 213 26 l 1,9,10
 208 11 208 11 201 5.5 c 128,-1,11
 194 0 194 0 182 0 c 2,12,-1
 112 0 l 1,13,-1
 37 487 l 1,14,15
 37 492 l 2,16,17
 37 507 37 507 52 507 c 2,18,-1
 112 507 l 1,19,-1
 156 216 l 1,20,-1
 169 63 l 1,21,-1
 171 63 l 1,22,-1
 238 375 l 1,23,24
 243 392 243 392 260 393 c 1,25,-1
 315 393 l 1,26,-1
 359 185 l 1,27,-1
 380 63 l 1,28,-1
 382 63 l 1,29,-1
 394 217 l 1,30,-1
 428 487 l 2,31,32
 430 499 430 499 435.5 503 c 128,-1,33
 441 507 441 507 453 507 c 2,34,-1
 500 507 l 1,35,-1
 440 25 l 2,0,1
EndSplineSet
EndChar

StartChar: x
Encoding: 120 120 91
Width: 405
GlyphClass: 2
Flags: HW
LayerCount: 2
Fore
SplineSet
170 377 m 1,0,-1
 199 309 l 1,1,-1
 201 309 l 1,2,-1
 231 377 l 1,3,-1
 300 508 l 1,4,-1
 351 508 l 2,5,6
 369 508 369 508 370.5 500 c 128,-1,7
 372 492 372 492 367 484 c 2,8,-1
 240 252 l 1,9,-1
 369 24 l 2,10,11
 373 18 373 18 373 12 c 0,12,13
 373 0 373 0 353 0 c 2,14,-1
 304 0 l 1,15,-1
 226 138 l 1,16,-1
 200 204 l 1,17,-1
 198 204 l 1,18,-1
 169 138 l 1,19,-1
 105 0 l 1,20,-1
 54 0 l 2,21,22
 36 0 36 0 34.5 8 c 128,-1,23
 33 16 33 16 38 24 c 2,24,-1
 156 262 l 1,25,-1
 37 484 l 2,26,27
 33 490 33 490 33 496 c 0,28,29
 33 508 33 508 53 508 c 2,30,-1
 102 508 l 1,31,-1
 170 377 l 1,0,-1
EndSplineSet
EndChar

StartChar: y
Encoding: 121 121 92
Width: 424
GlyphClass: 2
Flags: HW
LayerCount: 2
Fore
SplineSet
398 508 m 1,0,-1
 216 -174 l 2,1,2
 211 -190 211 -190 204.5 -195.5 c 128,-1,3
 198 -201 198 -201 182 -201 c 2,4,-1
 129 -201 l 1,5,-1
 182 0 l 1,6,-1
 155 0 l 1,7,-1
 28 481 l 2,8,9
 27 486 27 486 27 490 c 0,10,11
 27 508 27 508 48 508 c 2,12,-1
 102 508 l 1,13,-1
 185 193 l 1,14,-1
 212 75 l 1,15,-1
 215 75 l 1,16,-1
 233 185 l 1,17,-1
 311 481 l 2,18,19
 315 497 315 497 322 502.5 c 128,-1,20
 329 508 329 508 345 508 c 2,21,-1
 398 508 l 1,0,-1
EndSplineSet
EndChar

StartChar: z
Encoding: 122 122 93
Width: 368
GlyphClass: 2
Flags: HW
LayerCount: 2
Fore
SplineSet
63 0 m 2,0,1
 47 0 47 0 42.5 5.5 c 128,-1,2
 38 11 38 11 38 27 c 2,3,-1
 38 58 l 1,4,-1
 211 398 l 1,5,-1
 243 450 l 1,6,-1
 47 450 l 1,7,-1
 47 481 l 2,8,9
 47 497 47 497 51.5 502.5 c 128,-1,10
 56 508 56 508 72 508 c 2,11,-1
 293 508 l 2,12,13
 309 508 309 508 313.5 502.5 c 128,-1,14
 318 497 318 497 318 481 c 2,15,-1
 318 450 l 1,16,-1
 154 125 l 1,17,-1
 114 58 l 1,18,-1
 318 58 l 1,19,-1
 318 27 l 2,20,21
 318 11 318 11 313.5 5.5 c 128,-1,22
 309 0 309 0 293 0 c 2,23,-1
 63 0 l 2,0,1
EndSplineSet
EndChar

StartChar: braceleft
Encoding: 123 123 94
Width: 363
GlyphClass: 2
Flags: HW
LayerCount: 2
Fore
SplineSet
207 -13 m 2,0,1
 207 -44 207 -44 220 -57 c 128,-1,2
 233 -70 233 -70 264 -70 c 2,3,-1
 302 -70 l 2,4,5
 318 -70 318 -70 322.5 -75.5 c 128,-1,6
 327 -81 327 -81 327 -97 c 2,7,-1
 327 -128 l 1,8,-1
 222 -128 l 2,9,10
 170 -128 170 -128 148.5 -106.5 c 128,-1,11
 127 -85 127 -85 127 -33 c 2,12,-1
 127 231 l 2,13,14
 127 269.769230769 127 269.769230769 118 277.384615385 c 128,-1,15
 109 285 109 285 97.5 286 c 128,-1,16
 86 287 86 287 68 287 c 2,17,-1
 48 287 l 1,18,19
 31 286 31 286 26.5 293 c 128,-1,20
 22 300 22 300 22 316 c 256,21,22
 22 332 22 332 26.5 338.5 c 128,-1,23
 31 345 31 345 48 345 c 2,24,-1
 69 345 l 2,25,26
 106.75 345 106.75 345 114.875 352.5 c 0,27,28
 127 363.692307692 127 363.692307692 127 401 c 2,29,-1
 127 665 l 2,30,31
 127 717 127 717 148.5 738.5 c 128,-1,32
 170 760 170 760 222 760 c 2,33,-1
 327 760 l 1,34,-1
 327 729 l 2,35,36
 327 713 327 713 322.5 707.5 c 128,-1,37
 318 702 318 702 302 702 c 2,38,-1
 264 702 l 2,39,40
 233 702 233 702 220 689 c 128,-1,41
 207 676 207 676 207 645 c 2,42,-1
 207 411 l 2,43,44
 207 364 207 364 195 341.5 c 128,-1,45
 183 319 183 319 151 317 c 1,46,-1
 151 315 l 1,47,48
 183 313 183 313 195 291.5 c 128,-1,49
 207 270 207 270 207 221 c 2,50,-1
 207 -13 l 2,0,1
EndSplineSet
EndChar

StartChar: bar
Encoding: 124 124 95
Width: 228
GlyphClass: 2
Flags: HW
LayerCount: 2
Fore
SplineSet
154 760 m 1,0,-1
 154 -101 l 2,1,2
 154 -117 154 -117 148.5 -122.5 c 128,-1,3
 143 -128 143 -128 127 -128 c 2,4,-1
 74 -128 l 1,5,-1
 74 733 l 2,6,7
 74 749 74 749 79.5 754.5 c 128,-1,8
 85 760 85 760 101 760 c 2,9,-1
 154 760 l 1,0,-1
EndSplineSet
EndChar

StartChar: braceright
Encoding: 125 125 96
Width: 363
GlyphClass: 2
Flags: HW
LayerCount: 2
Fore
SplineSet
156 221 m 2,0,1
 156 270 156 270 168 291.5 c 128,-1,2
 180 313 180 313 212 315 c 1,3,-1
 212 317 l 1,4,5
 180 319 180 319 168 341.5 c 128,-1,6
 156 364 156 364 156 411 c 2,7,-1
 156 645 l 2,8,9
 156 676 156 676 143 689 c 128,-1,10
 130 702 130 702 99 702 c 2,11,-1
 61 702 l 2,12,13
 45 702 45 702 40.5 707.5 c 128,-1,14
 36 713 36 713 36 729 c 2,15,-1
 36 760 l 1,16,-1
 141 760 l 2,17,18
 193 760 193 760 214.5 738.5 c 128,-1,19
 236 717 236 717 236 665 c 2,20,-1
 236 401 l 2,21,22
 236 363.692307692 236 363.692307692 244.5 355.846153846 c 128,-1,23
 253 348 253 348 264.5 346.5 c 128,-1,24
 276 345 276 345 294 345 c 2,25,-1
 315 345 l 2,26,27
 332 345 332 345 336.5 338.5 c 128,-1,28
 341 332 341 332 341 316 c 256,29,30
 341 300 341 300 336.5 293 c 128,-1,31
 332 286 332 286 315 287 c 1,32,-1
 295 287 l 2,33,34
 256.363636364 287 256.363636364 287 248.681818182 280.5 c 0,35,36
 236 269.769230769 236 269.769230769 236 231 c 2,37,-1
 236 -33 l 2,38,39
 236 -85 236 -85 214.5 -106.5 c 128,-1,40
 193 -128 193 -128 141 -128 c 2,41,-1
 36 -128 l 1,42,-1
 36 -97 l 2,43,44
 36 -81 36 -81 40.5 -75.5 c 128,-1,45
 45 -70 45 -70 61 -70 c 2,46,-1
 99 -70 l 2,47,48
 130 -70 130 -70 143 -57 c 128,-1,49
 156 -44 156 -44 156 -13 c 2,50,-1
 156 221 l 2,0,1
EndSplineSet
EndChar

StartChar: asciitilde
Encoding: 126 126 97
Width: 457
GlyphClass: 2
Flags: HW
LayerCount: 2
Fore
SplineSet
192 358 m 2,0,1
 165 385 165 385 151 385 c 128,-1,2
 137 385 137 385 118 366 c 2,3,-1
 66 314 l 1,4,5
 48 340 48 340 48 359 c 128,-1,6
 48 378 48 378 68 397 c 1,7,-1
 84 414 l 1,8,9
 121 450 121 450 151.5 450 c 128,-1,10
 182 450 182 450 218 414 c 2,11,-1
 266 366 l 2,12,13
 293 339 293 339 307 339 c 128,-1,14
 321 339 321 339 340 358 c 2,15,-1
 392 410 l 1,16,17
 410 384 410 384 410 365 c 128,-1,18
 410 346 410 346 390 327 c 1,19,-1
 374 310 l 1,20,21
 337 274 337 274 306.5 274 c 128,-1,22
 276 274 276 274 240 310 c 2,23,-1
 192 358 l 2,0,1
EndSplineSet
EndChar

StartChar: exclamdown
Encoding: 161 161 99
Width: 224
GlyphClass: 2
Flags: HW
LayerCount: 2
Fore
SplineSet
73 -250 m 1,0,-1
 73 263 l 2,1,2
 73 279 73 279 78.5 284.5 c 128,-1,3
 84 290 84 290 100 290 c 2,4,-1
 153 290 l 1,5,-1
 153 -223 l 2,6,7
 153 -239 153 -239 147.5 -244.5 c 128,-1,8
 142 -250 142 -250 126 -250 c 2,9,-1
 73 -250 l 1,0,-1
65 450 m 1,10,-1
 126 450 l 2,11,12
 142 450 142 450 147.5 444.5 c 128,-1,13
 153 439 153 439 153 423 c 2,14,-1
 153 370 l 1,15,-1
 92 370 l 2,16,17
 76 370 76 370 70.5 375.5 c 128,-1,18
 65 381 65 381 65 397 c 2,19,-1
 65 450 l 1,10,-1
EndSplineSet
EndChar

StartChar: cent
Encoding: 162 162 100
Width: 424
GlyphClass: 2
Flags: HW
LayerCount: 2
Fore
SplineSet
151 195 m 2,0,1
 151 164 151 164 159 151 c 128,-1,2
 167 138 167 138 198 138 c 2,3,-1
 365 138 l 1,4,5
 359 109 359 109 346.5 94.5 c 128,-1,6
 334 80 334 80 305 80 c 2,7,-1
 264 80 l 1,8,-1
 264 27 l 2,9,10
 264 11 264 11 258.5 5.5 c 128,-1,11
 253 0 253 0 237 0 c 2,12,-1
 184 0 l 1,13,-1
 184 80 l 1,14,-1
 166 80 l 2,15,16
 114 80 114 80 92.5 101.5 c 128,-1,17
 71 123 71 123 71 175 c 2,18,-1
 71 493 l 2,19,20
 71 545 71 545 92.5 566.5 c 128,-1,21
 114 588 114 588 166 588 c 2,22,-1
 184 588 l 1,23,-1
 184 654 l 2,24,25
 184 670 184 670 189.5 675.5 c 128,-1,26
 195 681 195 681 211 681 c 2,27,-1
 264 681 l 1,28,-1
 264 588 l 1,29,-1
 305 588 l 2,30,31
 334 588 334 588 346.5 573.5 c 128,-1,32
 359 559 359 559 365 530 c 1,33,-1
 198 530 l 2,34,35
 167 530 167 530 159 517 c 128,-1,36
 151 504 151 504 151 473 c 2,37,-1
 151 195 l 2,0,1
EndSplineSet
EndChar

StartChar: sterling
Encoding: 163 163 101
Width: 443
GlyphClass: 2
Flags: HW
LayerCount: 2
Fore
SplineSet
217 27 m 2,0,1
 217 11 217 11 211.5 5.5 c 128,-1,2
 206 0 206 0 190 0 c 2,3,-1
 108 0 l 2,4,5
 76 0 76 0 63 14.5 c 128,-1,6
 50 29 50 29 44 58 c 1,7,-1
 137 58 l 1,8,-1
 137 605 l 2,9,10
 137 657 137 657 158.5 678.5 c 128,-1,11
 180 700 180 700 232 700 c 2,12,-1
 327 700 l 2,13,14
 359 700 359 700 372 685.5 c 128,-1,15
 385 671 385 671 391 642 c 1,16,-1
 264 642 l 2,17,18
 233.333333333 642 233.333333333 642 226.666666667 634 c 0,19,20
 217 622.4 217 622.4 217 585 c 2,21,-1
 217 450 l 1,22,-1
 325 450 l 2,23,24
 341 450 341 450 345.5 444.5 c 128,-1,25
 350 439 350 439 350 423 c 2,26,-1
 350 392 l 1,27,-1
 217 392 l 1,28,-1
 217 27 l 2,0,1
308 58 m 2,29,30
 340 58 340 58 353 43.5 c 128,-1,31
 366 29 366 29 372 0 c 1,32,-1
 262 0 l 2,33,34
 246 0 246 0 241.5 5.5 c 128,-1,35
 237 11 237 11 237 27 c 2,36,-1
 237 58 l 1,37,-1
 308 58 l 2,29,30
EndSplineSet
EndChar

StartChar: currency
Encoding: 164 164 102
Width: 508
GlyphClass: 2
Flags: HW
LayerCount: 2
Fore
SplineSet
301 560 m 2,0,1
 315 560 315 560 327 558 c 1,2,-1
 380 611 l 2,3,4
 391 622 391 622 399 622 c 128,-1,5
 407 622 407 622 418 611 c 2,6,-1
 455 574 l 1,7,-1
 390 509 l 1,8,9
 396 491 396 491 396 465 c 2,10,-1
 396 345 l 2,11,12
 396 323 396 323 392 308 c 1,13,-1
 443 258 l 2,14,15
 454 247 454 247 454 239 c 128,-1,16
 454 231 454 231 443 220 c 2,17,-1
 406 183 l 1,18,-1
 336 253 l 1,19,20
 321 250 321 250 301 250 c 2,21,-1
 203 250 l 2,22,23
 190 250 190 250 185 251 c 1,24,-1
 129 195 l 2,25,26
 118 184 118 184 110 184 c 128,-1,27
 102 184 102 184 91 195 c 2,28,-1
 54 232 l 1,29,-1
 115 293 l 1,30,31
 108 313 108 313 108 345 c 2,32,-1
 108 465 l 2,33,34
 108 485 108 485 111 502 c 1,35,-1
 66 548 l 2,36,37
 55 559 55 559 55 567 c 128,-1,38
 55 575 55 575 66 586 c 2,39,-1
 103 623 l 1,40,-1
 169 557 l 1,41,42
 184 560 184 560 203 560 c 2,43,-1
 301 560 l 2,0,1
188 365 m 2,44,45
 188 334 188 334 201 321 c 128,-1,46
 214 308 214 308 245 308 c 2,47,-1
 259 308 l 2,48,49
 290 308 290 308 303 321 c 128,-1,50
 316 334 316 334 316 365 c 2,51,-1
 316 445 l 2,52,53
 316 476 316 476 303 489 c 128,-1,54
 290 502 290 502 259 502 c 2,55,-1
 245 502 l 2,56,57
 214 502 214 502 201 489 c 128,-1,58
 188 476 188 476 188 445 c 2,59,-1
 188 365 l 2,44,45
EndSplineSet
EndChar

StartChar: yen
Encoding: 165 165 103
Width: 489
GlyphClass: 2
Flags: HW
LayerCount: 2
Fore
SplineSet
131 700 m 1,0,-1
 216 476 l 1,1,-1
 244 392 l 1,2,-1
 246 392 l 1,3,-1
 274 475 l 1,4,-1
 349 673 l 2,5,6
 354 688 354 688 361 694 c 128,-1,7
 368 700 368 700 385 700 c 2,8,-1
 434 700 l 1,9,-1
 299 361 l 1,10,-1
 408 361 l 2,11,12
 424 361 424 361 429.5 355.5 c 128,-1,13
 435 350 435 350 435 334 c 2,14,-1
 435 303 l 1,15,-1
 284 303 l 1,16,-1
 284 241 l 1,17,-1
 407 241 l 2,18,19
 423 241 423 241 428.5 235.5 c 128,-1,20
 434 230 434 230 434 214 c 2,21,-1
 434 183 l 1,22,-1
 284 183 l 1,23,-1
 284 28 l 2,24,25
 284 11 284 11 278 5.5 c 128,-1,26
 272 0 272 0 256 0 c 2,27,-1
 204 0 l 1,28,-1
 204 183 l 1,29,-1
 80 183 l 2,30,31
 64 183 64 183 58.5 188.5 c 128,-1,32
 53 194 53 194 53 210 c 2,33,-1
 53 241 l 1,34,-1
 204 241 l 1,35,-1
 204 303 l 1,36,-1
 80 303 l 2,37,38
 64 303 64 303 58.5 308.5 c 128,-1,39
 53 314 53 314 53 330 c 2,40,-1
 53 361 l 1,41,-1
 190 361 l 1,42,-1
 63 673 l 1,43,44
 63 689 63 689 67.5 694.5 c 128,-1,45
 72 700 72 700 88 700 c 2,46,-1
 131 700 l 1,0,-1
EndSplineSet
EndChar

StartChar: brokenbar
Encoding: 166 166 104
Width: 230
GlyphClass: 2
Flags: HW
LayerCount: 2
Fore
SplineSet
155 170 m 1,0,-1
 155 -213 l 2,1,2
 155 -229 155 -229 149.5 -234.5 c 128,-1,3
 144 -240 144 -240 128 -240 c 2,4,-1
 75 -240 l 1,5,-1
 75 143 l 2,6,7
 75 159 75 159 80.5 164.5 c 128,-1,8
 86 170 86 170 102 170 c 2,9,-1
 155 170 l 1,0,-1
155 760 m 1,10,-1
 155 377 l 2,11,12
 155 361 155 361 149.5 355.5 c 128,-1,13
 144 350 144 350 128 350 c 2,14,-1
 75 350 l 1,15,-1
 75 733 l 2,16,17
 75 749 75 749 80.5 754.5 c 128,-1,18
 86 760 86 760 102 760 c 2,19,-1
 155 760 l 1,10,-1
EndSplineSet
EndChar

StartChar: section
Encoding: 167 167 105
Width: 418
GlyphClass: 2
Flags: HW
LayerCount: 2
Fore
SplineSet
358 337 m 2,0,1
 358 297 358 297 337.5 280 c 128,-1,2
 317 263 317 263 278 255 c 1,3,-1
 278 389 l 2,4,5
 278 420 278 420 270 433 c 128,-1,6
 262 446 262 446 231 446 c 2,7,-1
 155 446 l 2,8,9
 103 446 103 446 81.5 467.5 c 128,-1,10
 60 489 60 489 60 541 c 2,11,-1
 60 605 l 2,12,13
 60 657 60 657 81.5 678.5 c 128,-1,14
 103 700 103 700 155 700 c 2,15,-1
 268 700 l 2,16,17
 297 700 297 700 309.5 685.5 c 128,-1,18
 322 671 322 671 328 642 c 1,19,-1
 187 642 l 2,20,21
 156 642 156 642 148 629 c 128,-1,22
 140 616 140 616 140 585 c 2,23,-1
 140 561 l 2,24,25
 140 530 140 530 148 517 c 128,-1,26
 156 504 156 504 187 504 c 2,27,-1
 263 504 l 2,28,29
 315 504 315 504 336.5 482.5 c 128,-1,30
 358 461 358 461 358 409 c 2,31,-1
 358 337 l 2,0,1
60 364 m 2,32,33
 60 404 60 404 80.5 421 c 128,-1,34
 101 438 101 438 140 446 c 1,35,-1
 140 312 l 2,36,37
 140 281 140 281 148 268 c 128,-1,38
 156 255 156 255 187 255 c 2,39,-1
 263 255 l 2,40,41
 315 255 315 255 336.5 233.5 c 128,-1,42
 358 212 358 212 358 160 c 2,43,-1
 358 96 l 2,44,45
 358 44 358 44 336.5 22.5 c 128,-1,46
 315 1 315 1 263 1 c 2,47,-1
 150 1 l 2,48,49
 121 1 121 1 108.5 15.5 c 128,-1,50
 96 30 96 30 90 59 c 1,51,-1
 231 59 l 2,52,53
 262 59 262 59 270 72 c 128,-1,54
 278 85 278 85 278 116 c 2,55,-1
 278 140 l 2,56,57
 278 171 278 171 270 184 c 128,-1,58
 262 197 262 197 231 197 c 2,59,-1
 155 197 l 2,60,61
 103 197 103 197 81.5 218.5 c 128,-1,62
 60 240 60 240 60 292 c 2,63,-1
 60 364 l 2,32,33
EndSplineSet
EndChar

StartChar: dieresis
Encoding: 168 168 106
Width: 342
GlyphClass: 2
Flags: HW
LayerCount: 2
Fore
SplineSet
148 600 m 1,0,-1
 87 600 l 2,1,2
 71 600 71 600 65.5 605.5 c 128,-1,3
 60 611 60 611 60 627 c 2,4,-1
 60 680 l 1,5,-1
 121 680 l 2,6,7
 137 680 137 680 142.5 674.5 c 128,-1,8
 148 669 148 669 148 653 c 2,9,-1
 148 600 l 1,0,-1
282 600 m 1,10,-1
 221 600 l 2,11,12
 205 600 205 600 199.5 605.5 c 128,-1,13
 194 611 194 611 194 627 c 2,14,-1
 194 680 l 1,15,-1
 255 680 l 2,16,17
 271 680 271 680 276.5 674.5 c 128,-1,18
 282 669 282 669 282 653 c 2,19,-1
 282 600 l 1,10,-1
EndSplineSet
EndChar

StartChar: copyright
Encoding: 169 169 107
Width: 674
GlyphClass: 2
Flags: HW
LayerCount: 2
Fore
SplineSet
150 115 m 2,0,1
 150 84 150 84 158 71 c 128,-1,2
 166 58 166 58 197 58 c 2,3,-1
 477 58 l 2,4,5
 508 58 508 58 516 71 c 128,-1,6
 524 84 524 84 524 115 c 2,7,-1
 524 585 l 2,8,9
 524 616 524 616 516 629 c 128,-1,10
 508 642 508 642 477 642 c 2,11,-1
 197 642 l 2,12,13
 166 642 166 642 158 629 c 128,-1,14
 150 616 150 616 150 585 c 2,15,-1
 150 115 l 2,0,1
70 605 m 2,16,17
 70 657 70 657 91.5 678.5 c 128,-1,18
 113 700 113 700 165 700 c 2,19,-1
 509 700 l 2,20,21
 561 700 561 700 582.5 678.5 c 128,-1,22
 604 657 604 657 604 605 c 2,23,-1
 604 95 l 2,24,25
 604 43 604 43 582.5 21.5 c 128,-1,26
 561 0 561 0 509 0 c 2,27,-1
 165 0 l 2,28,29
 113 0 113 0 91.5 21.5 c 128,-1,30
 70 43 70 43 70 95 c 2,31,-1
 70 605 l 2,16,17
425 585 m 2,32,33
 441 585 441 585 445.5 579.5 c 128,-1,34
 450 574 450 574 450 558 c 2,35,-1
 450 527 l 1,36,-1
 337 527 l 2,37,38
 306 527 306 527 298 514 c 128,-1,39
 290 501 290 501 290 470 c 2,40,-1
 290 232 l 2,41,42
 290 201 290 201 298 188 c 128,-1,43
 306 175 306 175 337 175 c 2,44,-1
 450 175 l 1,45,-1
 450 144 l 2,46,47
 450 128 450 128 445.5 122.5 c 128,-1,48
 441 117 441 117 425 117 c 2,49,-1
 305 117 l 2,50,51
 253 117 253 117 231.5 138.5 c 128,-1,52
 210 160 210 160 210 212 c 2,53,-1
 210 490 l 2,54,55
 210 542 210 542 231.5 563.5 c 128,-1,56
 253 585 253 585 305 585 c 2,57,-1
 425 585 l 2,32,33
EndSplineSet
EndChar

StartChar: ordfeminine
Encoding: 170 170 108
Width: 394
GlyphClass: 2
Flags: HW
LayerCount: 2
Fore
SplineSet
148 300 m 2,0,1
 96 300 96 300 74.5 321.5 c 128,-1,2
 53 343 53 343 53 395 c 2,3,-1
 53 456 l 2,4,5
 53 508 53 508 74.5 529.5 c 128,-1,6
 96 551 96 551 148 551 c 2,7,-1
 247 551 l 1,8,-1
 247 585 l 2,9,10
 247 616 247 616 239 629 c 128,-1,11
 231 642 231 642 200 642 c 2,12,-1
 73 642 l 1,13,14
 79 671 79 671 91.5 685.5 c 128,-1,15
 104 700 104 700 133 700 c 2,16,-1
 232 700 l 2,17,18
 284 700 284 700 305.5 678.5 c 128,-1,19
 327 657 327 657 327 605 c 2,20,-1
 327 300 l 1,21,-1
 274 300 l 2,22,23
 258 300 258 300 252.5 305.5 c 128,-1,24
 247 311 247 311 247 327 c 2,25,-1
 247 493 l 1,26,-1
 185 493 l 2,27,28
 154 493 154 493 141 480 c 128,-1,29
 128 467 128 467 128 436 c 2,30,-1
 128 415 l 2,31,32
 128 384 128 384 141 371 c 128,-1,33
 154 358 154 358 185 358 c 2,34,-1
 227 358 l 1,35,-1
 227 327 l 2,36,37
 227 311 227 311 222.5 305.5 c 128,-1,38
 218 300 218 300 202 300 c 2,39,-1
 148 300 l 2,0,1
EndSplineSet
EndChar

StartChar: guillemotleft
Encoding: 171 171 109
Width: 445
GlyphClass: 2
Flags: HW
LayerCount: 2
Fore
SplineSet
126 297 m 1,0,-1
 183 239 l 1,1,2
 221.847352025 196.267912773 221.847352025 196.267912773 220.5 154.5 c 0,3,4
 220 139 220 139 212 127 c 1,5,-1
 46 292 l 1,6,-1
 46 302 l 1,7,-1
 214 468 l 1,8,9
 222 456 222 456 222 440.5 c 128,-1,10
 222 425 222 425 217 410 c 0,11,12
 207 380 207 380 184 357 c 2,13,-1
 126 299 l 1,14,-1
 126 297 l 1,0,-1
281 297 m 1,15,-1
 338 239 l 1,16,17
 376.847352025 196.267912773 376.847352025 196.267912773 375.5 154.5 c 0,18,19
 375 139 375 139 367 127 c 1,20,-1
 201 292 l 1,21,-1
 201 302 l 1,22,-1
 369 468 l 1,23,24
 377 456 377 456 377 440.5 c 128,-1,25
 377 425 377 425 372 410 c 0,26,27
 362 380 362 380 339 357 c 2,28,-1
 281 299 l 1,29,-1
 281 297 l 1,15,-1
EndSplineSet
EndChar

StartChar: logicalnot
Encoding: 172 172 110
Width: 436
GlyphClass: 2
Flags: HW
LayerCount: 2
Fore
SplineSet
68 390 m 1,0,-1
 341 390 l 2,1,2
 357 390 357 390 362.5 385.5 c 128,-1,3
 368 381 368 381 368 365 c 2,4,-1
 368 228 l 1,5,-1
 315 228 l 2,6,7
 299 228 299 228 293.5 232.5 c 128,-1,8
 288 237 288 237 288 253 c 2,9,-1
 288 332 l 1,10,-1
 95 332 l 2,11,12
 79 332 79 332 73.5 337.5 c 128,-1,13
 68 343 68 343 68 359 c 2,14,-1
 68 390 l 1,0,-1
EndSplineSet
EndChar

StartChar: uni00AD
Encoding: 173 173 111
Width: 432
GlyphClass: 2
Flags: HW
LayerCount: 2
Fore
SplineSet
66 392 m 1,0,-1
 339 392 l 2,1,2
 355 392 355 392 360.5 386.5 c 128,-1,3
 366 381 366 381 366 365 c 2,4,-1
 366 334 l 1,5,-1
 93 334 l 2,6,7
 77 334 77 334 71.5 339.5 c 128,-1,8
 66 345 66 345 66 361 c 2,9,-1
 66 392 l 1,0,-1
EndSplineSet
EndChar

StartChar: registered
Encoding: 174 174 112
Width: 674
GlyphClass: 2
Flags: HW
LayerCount: 2
Fore
SplineSet
150 115 m 2,0,1
 150 84 150 84 158 71 c 128,-1,2
 166 58 166 58 197 58 c 2,3,-1
 477 58 l 2,4,5
 508 58 508 58 516 71 c 128,-1,6
 524 84 524 84 524 115 c 2,7,-1
 524 585 l 2,8,9
 524 616 524 616 516 629 c 128,-1,10
 508 642 508 642 477 642 c 2,11,-1
 197 642 l 2,12,13
 166 642 166 642 158 629 c 128,-1,14
 150 616 150 616 150 585 c 2,15,-1
 150 115 l 2,0,1
70 605 m 2,16,17
 70 657 70 657 91.5 678.5 c 128,-1,18
 113 700 113 700 165 700 c 2,19,-1
 509 700 l 2,20,21
 561 700 561 700 582.5 678.5 c 128,-1,22
 604 657 604 657 604 605 c 2,23,-1
 604 95 l 2,24,25
 604 43 604 43 582.5 21.5 c 128,-1,26
 561 0 561 0 509 0 c 2,27,-1
 165 0 l 2,28,29
 113 0 113 0 91.5 21.5 c 128,-1,30
 70 43 70 43 70 95 c 2,31,-1
 70 605 l 2,16,17
372 585 m 2,32,33
 424 585 424 585 445.5 563.5 c 128,-1,34
 467 542 467 542 467 490 c 2,35,-1
 467 424 l 2,36,37
 467 382 467 382 453 360 c 128,-1,38
 439 338 439 338 407 332 c 1,39,-1
 472 118 l 1,40,-1
 431 118 l 2,41,42
 415 118 415 118 407.5 123.5 c 128,-1,43
 400 129 400 129 395 145 c 2,44,-1
 339 329 l 1,45,-1
 275 329 l 1,46,-1
 275 145 l 2,47,48
 275 129 275 129 269.5 123.5 c 128,-1,49
 264 118 264 118 248 118 c 2,50,-1
 205 118 l 1,51,-1
 205 558 l 2,52,53
 205 574 205 574 210.5 579.5 c 128,-1,54
 216 585 216 585 232 585 c 2,55,-1
 372 585 l 2,32,33
397 470 m 2,56,57
 397 501 397 501 389 514 c 128,-1,58
 381 527 381 527 350 527 c 2,59,-1
 275 527 l 1,60,-1
 275 377 l 1,61,-1
 350 377 l 2,62,63
 381 377 381 377 389 390 c 128,-1,64
 397 403 397 403 397 434 c 2,65,-1
 397 470 l 2,56,57
EndSplineSet
EndChar

StartChar: macron
Encoding: 175 175 113
Width: 405
GlyphClass: 2
Flags: HW
LayerCount: 2
Fore
SplineSet
47 651 m 1,0,-1
 320 651 l 2,1,2
 336 651 336 651 341.5 645.5 c 128,-1,3
 347 640 347 640 347 624 c 2,4,-1
 347 593 l 1,5,-1
 74 593 l 2,6,7
 58 593 58 593 52.5 598.5 c 128,-1,8
 47 604 47 604 47 620 c 2,9,-1
 47 651 l 1,0,-1
EndSplineSet
EndChar

StartChar: degree
Encoding: 176 176 114
Width: 393
GlyphClass: 2
Flags: HW
LayerCount: 2
Fore
SplineSet
45 562 m 256,0,1
 45 625 45 625 89.5 669.5 c 128,-1,2
 134 714 134 714 196 714 c 256,3,4
 259 714 259 714 303.5 669.5 c 128,-1,5
 348 625 348 625 348 562 c 256,6,7
 348 500 348 500 303.5 455.5 c 128,-1,8
 259 411 259 411 196 411 c 256,9,10
 134 411 134 411 89.5 455.5 c 128,-1,11
 45 500 45 500 45 562 c 256,0,1
105 562 m 256,12,13
 105 524 105 524 131.5 497.5 c 0,14,15
 159 470 159 470 196 470 c 256,16,17
 234 470 234 470 261.5 497.5 c 0,18,19
 288 524 288 524 288 562 c 256,20,21
 288 601 288 601 261.5 627.5 c 0,22,23
 234 655 234 655 196 655 c 256,24,25
 159 655 159 655 131.5 627.5 c 0,26,27
 105 601 105 601 105 562 c 256,12,13
EndSplineSet
EndChar

StartChar: plusminus
Encoding: 177 177 115
Width: 436
GlyphClass: 2
Flags: HW
LayerCount: 2
Fore
SplineSet
247 512 m 1,0,-1
 247 392 l 1,1,-1
 341 392 l 2,2,3
 357 392 357 392 362.5 386.5 c 128,-1,4
 368 381 368 381 368 365 c 2,5,-1
 368 334 l 1,6,-1
 247 334 l 1,7,-1
 247 239 l 2,8,9
 247 223 247 223 241.5 217.5 c 128,-1,10
 236 212 236 212 220 212 c 2,11,-1
 189 212 l 1,12,-1
 189 334 l 1,13,-1
 95 334 l 2,14,15
 79 334 79 334 73.5 339.5 c 128,-1,16
 68 345 68 345 68 361 c 2,17,-1
 68 392 l 1,18,-1
 189 392 l 1,19,-1
 189 485 l 2,20,21
 189 501 189 501 194.5 506.5 c 128,-1,22
 200 512 200 512 216 512 c 2,23,-1
 247 512 l 1,0,-1
68 190 m 1,24,-1
 341 190 l 2,25,26
 357 190 357 190 362.5 184.5 c 128,-1,27
 368 179 368 179 368 163 c 2,28,-1
 368 132 l 1,29,-1
 95 132 l 2,30,31
 79 132 79 132 73.5 137.5 c 128,-1,32
 68 143 68 143 68 159 c 2,33,-1
 68 190 l 1,24,-1
EndSplineSet
EndChar

StartChar: twosuperior
Encoding: 178 178 116
Width: 352
GlyphClass: 2
Flags: HW
LayerCount: 2
Fore
SplineSet
57 300 m 1,0,-1
 57 358 l 1,1,2
 108 415 108 415 138.5 444.5 c 128,-1,3
 169 474 169 474 184.5 491 c 128,-1,4
 200 508 200 508 205 521 c 128,-1,5
 210 534 210 534 210 558 c 2,6,-1
 210 585 l 2,7,8
 210 616 210 616 202 629 c 128,-1,9
 194 642 194 642 163 642 c 2,10,-1
 56 642 l 1,11,12
 62 671 62 671 74.5 685.5 c 128,-1,13
 87 700 87 700 116 700 c 2,14,-1
 195 700 l 2,15,16
 247 700 247 700 268.5 678.5 c 128,-1,17
 290 657 290 657 290 605 c 2,18,-1
 290 548 l 2,19,20
 290 497.823529412 290 497.823529412 193.5 407 c 0,21,22
 168 383 168 383 146 358 c 1,23,-1
 290 358 l 1,24,-1
 290 327 l 2,25,26
 290 311 290 311 284.5 305.5 c 128,-1,27
 279 300 279 300 263 300 c 2,28,-1
 57 300 l 1,0,-1
EndSplineSet
EndChar

StartChar: threesuperior
Encoding: 179 179 117
Width: 346
GlyphClass: 2
Flags: HW
LayerCount: 2
Fore
SplineSet
232 528 m 1,0,1
 287 512.285714286 287 512.285714286 287 438 c 0,2,3
 287 357.913043478 287 357.913043478 265.5 328 c 0,4,5
 245.375 300 245.375 300 192 300 c 2,6,-1
 113 300 l 2,7,8
 84 300 84 300 71.5 314.5 c 128,-1,9
 59 329 59 329 53 358 c 1,10,-1
 160 358 l 2,11,12
 191 358 191 358 199 375 c 128,-1,13
 207 392 207 392 207 430.5 c 128,-1,14
 207 469 207 469 194 482 c 128,-1,15
 181 495 181 495 150 495 c 2,16,-1
 103 495 l 1,17,-1
 103 526 l 2,18,19
 103 542 103 542 108.5 547.5 c 128,-1,20
 114 553 114 553 130 553 c 2,21,-1
 167 553 l 1,22,23
 186 554 186 554 196.5 562 c 128,-1,24
 207 570 207 570 207 593 c 128,-1,25
 207 616 207 616 199 629 c 128,-1,26
 191 642 191 642 160 642 c 2,27,-1
 53 642 l 1,28,29
 59 671 59 671 71.5 685.5 c 128,-1,30
 84 700 84 700 113 700 c 2,31,-1
 192 700 l 2,32,33
 244 700 244 700 265.5 678 c 128,-1,34
 287 656 287 656 287 613.5 c 128,-1,35
 287 571 287 571 274 553.5 c 128,-1,36
 261 536 261 536 232 530 c 1,37,-1
 232 528 l 1,0,1
EndSplineSet
EndChar

StartChar: acute
Encoding: 180 180 118
Width: 255
GlyphClass: 2
Flags: HW
LayerCount: 2
Fore
SplineSet
92 559 m 1,0,-1
 66 559 l 2,1,2
 47 559 47 559 47 571 c 0,3,4
 47 579 47 579 50 583 c 2,5,-1
 107 700 l 1,6,-1
 160 700 l 2,7,8
 175 700 175 700 180 695 c 128,-1,9
 185 690 185 690 185 676 c 1,10,-1
 92 559 l 1,0,-1
EndSplineSet
EndChar

StartChar: mu
Encoding: 181 181 119
AltUni2: 0003bc.ffffffff.0
Width: 426
GlyphClass: 2
Flags: HW
LayerCount: 2
Fore
SplineSet
73 423 m 2,0,1
 73 439 73 439 78.5 444.5 c 128,-1,2
 84 450 84 450 100 450 c 2,3,-1
 153 450 l 1,4,-1
 153 103 l 1,5,6
 154 79 154 79 163 68.5 c 128,-1,7
 172 58 172 58 200 58 c 2,8,-1
 267 58 l 1,9,-1
 267 27 l 2,10,11
 267 11 267 11 262.5 5.5 c 128,-1,12
 258 0 258 0 242 0 c 2,13,-1
 153 0 l 1,14,-1
 153 -174 l 2,15,16
 153 -190 153 -190 147.5 -195.5 c 128,-1,17
 142 -201 142 -201 126 -201 c 2,18,-1
 73 -201 l 1,19,-1
 73 423 l 2,0,1
287 0 m 1,20,-1
 287 423 l 2,21,22
 287 439 287 439 292.5 444.5 c 128,-1,23
 298 450 298 450 314 450 c 2,24,-1
 367 450 l 1,25,-1
 367 27 l 2,26,27
 367 11 367 11 361.5 5.5 c 128,-1,28
 356 0 356 0 340 0 c 2,29,-1
 287 0 l 1,20,-1
EndSplineSet
EndChar

StartChar: paragraph
Encoding: 182 182 120
Width: 464
GlyphClass: 2
Flags: HW
LayerCount: 2
Fore
SplineSet
226 700 m 2,0,1
 242 700 242 700 247.5 694.5 c 128,-1,2
 253 689 253 689 253 673 c 2,3,-1
 253 0 l 1,4,-1
 200 0 l 2,5,6
 184 0 184 0 178.5 5.5 c 128,-1,7
 173 11 173 11 173 27 c 2,8,-1
 173 374 l 1,9,-1
 146 374 l 2,10,11
 94 374 94 374 72.5 395.5 c 128,-1,12
 51 417 51 417 51 469 c 2,13,-1
 51 605 l 2,14,15
 51 657 51 657 72.5 678.5 c 128,-1,16
 94 700 94 700 146 700 c 2,17,-1
 226 700 l 2,0,1
389 700 m 1,18,-1
 389 27 l 2,19,20
 389 11 389 11 383.5 5.5 c 128,-1,21
 378 0 378 0 362 0 c 2,22,-1
 309 0 l 1,23,-1
 309 673 l 2,24,25
 309 689 309 689 314.5 694.5 c 128,-1,26
 320 700 320 700 336 700 c 2,27,-1
 389 700 l 1,18,-1
EndSplineSet
EndChar

StartChar: periodcentered
Encoding: 183 183 121
Width: 242
GlyphClass: 2
Flags: HW
LayerCount: 2
Fore
SplineSet
58 303 m 256,0,1
 58 341 58 341 76.5 356 c 128,-1,2
 95 371 95 371 121 371 c 256,3,4
 147 371 147 371 165.5 356 c 128,-1,5
 184 341 184 341 184 303 c 256,6,7
 184 265 184 265 165.5 250 c 128,-1,8
 147 235 147 235 121 235 c 256,9,10
 95 235 95 235 76.5 250 c 128,-1,11
 58 265 58 265 58 303 c 256,0,1
EndSplineSet
EndChar

StartChar: cedilla
Encoding: 184 184 122
Width: 251
GlyphClass: 2
Flags: HW
LayerCount: 2
Fore
SplineSet
160 31 m 1,0,-1
 160 -73 l 2,1,2
 160 -89 160 -89 154.5 -94.5 c 128,-1,3
 149 -100 149 -100 133 -100 c 2,4,-1
 102 -100 l 1,5,-1
 102 4 l 2,6,7
 102 20 102 20 107.5 25.5 c 128,-1,8
 113 31 113 31 129 31 c 2,9,-1
 160 31 l 1,0,-1
EndSplineSet
EndChar

StartChar: onesuperior
Encoding: 185 185 123
Width: 215
GlyphClass: 2
Flags: HW
LayerCount: 2
Fore
SplineSet
147 327 m 2,0,1
 147 311 147 311 141.5 305.5 c 128,-1,2
 136 300 136 300 120 300 c 2,3,-1
 67 300 l 1,4,-1
 67 617 l 2,5,6
 67 658 67 658 87 675 c 128,-1,7
 107 692 107 692 147 700 c 1,8,-1
 147 327 l 2,0,1
EndSplineSet
EndChar

StartChar: ordmasculine
Encoding: 186 186 124
Width: 398
GlyphClass: 2
Flags: HW
LayerCount: 2
Fore
SplineSet
62 605 m 2,0,1
 62 657 62 657 83.5 678.5 c 128,-1,2
 105 700 105 700 157 700 c 2,3,-1
 241 700 l 2,4,5
 293 700 293 700 314.5 678.5 c 128,-1,6
 336 657 336 657 336 605 c 2,7,-1
 336 395 l 2,8,9
 336 343 336 343 314.5 321.5 c 128,-1,10
 293 300 293 300 241 300 c 2,11,-1
 157 300 l 2,12,13
 105 300 105 300 83.5 321.5 c 128,-1,14
 62 343 62 343 62 395 c 2,15,-1
 62 605 l 2,0,1
189 642 m 2,16,17
 158 642 158 642 150 629 c 128,-1,18
 142 616 142 616 142 585 c 2,19,-1
 142 415 l 2,20,21
 142 384 142 384 150 371 c 128,-1,22
 158 358 158 358 189 358 c 2,23,-1
 209 358 l 2,24,25
 240 358 240 358 248 371 c 128,-1,26
 256 384 256 384 256 415 c 2,27,-1
 256 585 l 2,28,29
 256 616 256 616 248 629 c 128,-1,30
 240 642 240 642 209 642 c 2,31,-1
 189 642 l 2,16,17
EndSplineSet
EndChar

StartChar: guillemotright
Encoding: 187 187 125
Width: 445
GlyphClass: 2
Flags: HW
LayerCount: 2
Fore
SplineSet
318 299 m 1,0,-1
 260 357 l 2,1,2
 222 395 222 395 222 440.5 c 0,3,4
 222 456 222 456 230 468 c 1,5,-1
 398 302 l 1,6,-1
 398 292 l 1,7,-1
 232 127 l 1,8,9
 208.618181818 162.072727273 208.618181818 162.072727273 242 214 c 0,10,11
 251 228 251 228 261 239 c 2,12,-1
 318 297 l 1,13,-1
 318 299 l 1,0,-1
163 299 m 1,14,-1
 105 357 l 2,15,16
 67 395 67 395 67 440.5 c 0,17,18
 67 456 67 456 75 468 c 1,19,-1
 243 302 l 1,20,-1
 243 292 l 1,21,-1
 77 127 l 1,22,23
 53.6181818182 162.072727273 53.6181818182 162.072727273 87 214 c 0,24,25
 96 228 96 228 106 239 c 2,26,-1
 163 297 l 1,27,-1
 163 299 l 1,14,-1
EndSplineSet
EndChar

StartChar: questiondown
Encoding: 191 191 129
Width: 403
GlyphClass: 2
Flags: HW
LayerCount: 2
Fore
SplineSet
194 451 m 1,0,-1
 255 451 l 2,1,2
 271 451 271 451 276.5 445.5 c 128,-1,3
 282 440 282 440 282 424 c 2,4,-1
 282 371 l 1,5,-1
 221 371 l 2,6,7
 205 371 205 371 199.5 376.5 c 128,-1,8
 194 382 194 382 194 398 c 2,9,-1
 194 451 l 1,0,-1
282 136 m 2,10,11
 282 84 282 84 260.5 62.5 c 128,-1,12
 239 41 239 41 198.5 41 c 128,-1,13
 158 41 158 41 145.5 28 c 128,-1,14
 133 15 133 15 133 -16 c 2,15,-1
 133 -134 l 2,16,17
 133 -165 133 -165 146 -178 c 128,-1,18
 159 -191 159 -191 190 -191 c 2,19,-1
 359 -191 l 1,20,21
 346.845360825 -225.43814433 346.845360825 -225.43814433 335.422680412 -234.719072165 c 0,22,23
 317.846153846 -249 317.846153846 -249 289 -249 c 2,24,-1
 148 -249 l 2,25,26
 96 -249 96 -249 74.5 -227.5 c 128,-1,27
 53 -206 53 -206 53 -154 c 2,28,-1
 53 4 l 2,29,30
 53 56 53 56 75 77.5 c 128,-1,31
 97 99 97 99 151 99 c 1,32,33
 179 101 179 101 190.5 114 c 128,-1,34
 202 127 202 127 202 156 c 2,35,-1
 202 264 l 2,36,37
 202 280 202 280 207.5 285.5 c 128,-1,38
 213 291 213 291 229 291 c 2,39,-1
 282 291 l 1,40,-1
 282 136 l 2,10,11
EndSplineSet
EndChar

StartChar: AE
Encoding: 198 198 136
Width: 643
GlyphClass: 2
Flags: HW
LayerCount: 2
Fore
SplineSet
152 334 m 1,0,-1
 152 27 l 2,1,2
 152 11 152 11 146.5 5.5 c 128,-1,3
 141 0 141 0 125 0 c 2,4,-1
 72 0 l 1,5,-1
 72 605 l 2,6,7
 72 657 72 657 93.5 678.5 c 128,-1,8
 115 700 115 700 167 700 c 2,9,-1
 597 700 l 1,10,-1
 597 669 l 2,11,12
 597 653 597 653 592.5 647.5 c 128,-1,13
 588 642 588 642 572 642 c 2,14,-1
 406 642 l 1,15,-1
 406 392 l 1,16,-1
 567 392 l 1,17,-1
 567 361 l 2,18,19
 567 345 567 345 562.5 339.5 c 128,-1,20
 558 334 558 334 542 334 c 2,21,-1
 406 334 l 1,22,-1
 406 58 l 1,23,-1
 597 58 l 1,24,-1
 597 27 l 2,25,26
 597 11 597 11 591.5 5.5 c 128,-1,27
 586 0 586 0 570 0 c 2,28,-1
 326 0 l 1,29,-1
 326 642 l 1,30,-1
 193 642 l 1,31,32
 166 640 166 640 159 627 c 128,-1,33
 152 614 152 614 152 585 c 2,34,-1
 152 392 l 1,35,-1
 306 392 l 1,36,-1
 306 361 l 2,37,38
 306 345 306 345 301.5 339.5 c 128,-1,39
 297 334 297 334 281 334 c 2,40,-1
 152 334 l 1,0,-1
EndSplineSet
EndChar

StartChar: Ccedilla
Encoding: 199 199 137
Width: 390
GlyphClass: 2
Flags: HW
LayerCount: 2
Fore
SplineSet
250 0 m 1,0,-1
 250 -73 l 2,1,2
 250 -89 250 -89 244.5 -94.5 c 128,-1,3
 239 -100 239 -100 223 -100 c 2,4,-1
 192 -100 l 1,5,-1
 192 0 l 1,6,-1
 165 0 l 2,7,8
 113 0 113 0 91.5 21.5 c 128,-1,9
 70 43 70 43 70 95 c 2,10,-1
 70 605 l 2,11,12
 70 657 70 657 91.5 678.5 c 128,-1,13
 113 700 113 700 165 700 c 2,14,-1
 294 700 l 2,15,16
 323 700 323 700 335.5 685.5 c 128,-1,17
 348 671 348 671 354 642 c 1,18,-1
 197 642 l 2,19,20
 166 642 166 642 158 629 c 128,-1,21
 150 616 150 616 150 585 c 2,22,-1
 150 115 l 2,23,24
 150 84 150 84 158 71 c 128,-1,25
 166 58 166 58 197 58 c 2,26,-1
 354 58 l 1,27,-1
 354 27 l 2,28,29
 354 11 354 11 349.5 5.5 c 128,-1,30
 345 0 345 0 329 0 c 2,31,-1
 250 0 l 1,0,-1
EndSplineSet
EndChar

StartChar: Eth
Encoding: 208 208 146
Width: 500
GlyphClass: 2
Flags: HW
LayerCount: 2
Fore
SplineSet
76 392 m 1,0,-1
 76 673 l 2,1,2
 76 689 76 689 81.5 694.5 c 128,-1,3
 87 700 87 700 103 700 c 2,4,-1
 335 700 l 2,5,6
 387 700 387 700 408.5 678.5 c 128,-1,7
 430 657 430 657 430 605 c 2,8,-1
 430 95 l 2,9,10
 430 43 430 43 408.5 21.5 c 128,-1,11
 387 0 387 0 335 0 c 2,12,-1
 76 0 l 1,13,-1
 76 334 l 1,14,-1
 16 334 l 1,15,-1
 16 365 l 2,16,17
 16 381 16 381 21.5 386.5 c 128,-1,18
 27 392 27 392 43 392 c 2,19,-1
 76 392 l 1,0,-1
350 585 m 2,20,21
 350 616 350 616 342 629 c 128,-1,22
 334 642 334 642 303 642 c 2,23,-1
 156 642 l 1,24,-1
 156 392 l 1,25,-1
 280 392 l 1,26,27
 274 363 274 363 261 348.5 c 128,-1,28
 248 334 248 334 216 334 c 2,29,-1
 156 334 l 1,30,-1
 156 58 l 1,31,-1
 303 58 l 2,32,33
 334 58 334 58 342 71 c 128,-1,34
 350 84 350 84 350 115 c 2,35,-1
 350 585 l 2,20,21
EndSplineSet
EndChar

StartChar: multiply
Encoding: 215 215 153
Width: 436
GlyphClass: 2
Flags: HW
LayerCount: 2
Fore
SplineSet
133 489 m 1,0,-1
 218 403 l 1,1,-1
 285 470 l 2,2,3
 296 481 296 481 304 481 c 128,-1,4
 312 481 312 481 323 470 c 2,5,-1
 345 448 l 1,6,-1
 259 362 l 1,7,-1
 326 296 l 2,8,9
 337 285 337 285 337 276.5 c 128,-1,10
 337 268 337 268 326 257 c 2,11,-1
 305 235 l 1,12,-1
 218 321 l 1,13,-1
 152 255 l 2,14,15
 141 244 141 244 133 244 c 128,-1,16
 125 244 125 244 114 255 c 2,17,-1
 92 277 l 1,18,-1
 177 362 l 1,19,-1
 112 428 l 2,20,21
 101 439 101 439 101 447.5 c 128,-1,22
 101 456 101 456 112 467 c 2,23,-1
 133 489 l 1,0,-1
EndSplineSet
EndChar

StartChar: Oslash
Encoding: 216 216 154
Width: 518
GlyphClass: 2
Flags: HW
LayerCount: 2
Fore
SplineSet
-6 10 m 1,0,-1
 96 164 l 1,1,-1
 96 605 l 2,2,3
 96 657 96 657 117.5 678.5 c 128,-1,4
 139 700 139 700 191 700 c 2,5,-1
 345 700 l 2,6,7
 384 700 384 700 405.5 688 c 128,-1,8
 427 676 427 676 435 647 c 1,9,10
 450.125 669.6875 450.125 669.6875 458.5625 674.84375 c 128,-1,11
 467 680 467 680 483 680 c 2,12,-1
 520 680 l 1,13,-1
 440 559 l 1,14,-1
 440 95 l 2,15,16
 440 43 440 43 418.5 21.5 c 128,-1,17
 397 0 397 0 345 0 c 2,18,-1
 191 0 l 2,19,20
 145 0 145 0 123.5 16.5 c 128,-1,21
 102 33 102 33 97 72 c 1,22,-1
 74 37 l 2,23,24
 64 21 64 21 55 15.5 c 128,-1,25
 46 10 46 10 31 10 c 2,26,-1
 -6 10 l 1,0,-1
313 58 m 2,27,28
 344 58 344 58 352 71 c 128,-1,29
 360 84 360 84 360 115 c 2,30,-1
 360 458 l 1,31,-1
 176 181 l 1,32,-1
 176 115 l 2,33,34
 176 84 176 84 184 71 c 128,-1,35
 192 58 192 58 223 58 c 2,36,-1
 313 58 l 2,27,28
176 275 m 1,37,-1
 360 554 l 1,38,-1
 360 585 l 2,39,40
 360 616 360 616 352 629 c 128,-1,41
 344 642 344 642 313 642 c 2,42,-1
 223 642 l 2,43,44
 192 642 192 642 184 629 c 128,-1,45
 176 616 176 616 176 585 c 2,46,-1
 176 275 l 1,37,-1
EndSplineSet
EndChar

StartChar: Thorn
Encoding: 222 222 160
Width: 456
GlyphClass: 2
Flags: HW
LayerCount: 2
Fore
SplineSet
152 700 m 1,0,-1
 152 492 l 1,1,2
 158 521 158 521 170.5 535.5 c 128,-1,3
 183 550 183 550 212 550 c 2,4,-1
 311 550 l 2,5,6
 363 550 363 550 384.5 528.5 c 128,-1,7
 406 507 406 507 406 455 c 2,8,-1
 406 245 l 2,9,10
 406 193 406 193 384.5 171.5 c 128,-1,11
 363 150 363 150 311 150 c 2,12,-1
 152 150 l 1,13,-1
 152 27 l 2,14,15
 152 11 152 11 146.5 5.5 c 128,-1,16
 141 0 141 0 125 0 c 2,17,-1
 72 0 l 1,18,-1
 72 673 l 2,19,20
 72 689 72 689 77.5 694.5 c 128,-1,21
 83 700 83 700 99 700 c 2,22,-1
 152 700 l 1,0,-1
326 435 m 2,23,24
 326 466 326 466 318 479 c 128,-1,25
 310 492 310 492 279 492 c 2,26,-1
 152 492 l 1,27,-1
 152 208 l 1,28,-1
 279 208 l 2,29,30
 310 208 310 208 318 221 c 128,-1,31
 326 234 326 234 326 265 c 2,32,-1
 326 435 l 2,23,24
EndSplineSet
EndChar

StartChar: germandbls
Encoding: 223 223 161
Width: 503
GlyphClass: 2
Flags: HW
LayerCount: 2
Fore
SplineSet
235 0 m 2,0,1
 219 0 219 0 214.5 5.5 c 128,-1,2
 210 11 210 11 210 27 c 2,3,-1
 210 58 l 1,4,-1
 313 58 l 2,5,6
 344 58 344 58 352 71 c 128,-1,7
 360 84 360 84 360 115 c 2,8,-1
 360 335 l 2,9,10
 360 366 360 366 352 379 c 128,-1,11
 344 392 344 392 313 392 c 2,12,-1
 190 392 l 1,13,-1
 190 -223 l 2,14,15
 190 -239 190 -239 184.5 -244.5 c 128,-1,16
 179 -250 179 -250 163 -250 c 2,17,-1
 110 -250 l 1,18,-1
 110 392 l 1,19,-1
 47 392 l 2,20,21
 31 392 31 392 26.5 397.5 c 128,-1,22
 22 403 22 403 22 419 c 2,23,-1
 22 450 l 1,24,-1
 110 450 l 1,25,-1
 110 673 l 2,26,27
 110 689 110 689 115.5 694.5 c 128,-1,28
 121 700 121 700 137 700 c 2,29,-1
 345 700 l 2,30,31
 397 700 397 700 418.5 678.5 c 128,-1,32
 440 657 440 657 440 605 c 2,33,-1
 440 517 l 2,34,35
 440 476 440 476 427 454.5 c 128,-1,36
 414 433 414 433 385 426 c 1,37,38
 414 418 414 418 427 396.5 c 128,-1,39
 440 375 440 375 440 335 c 2,40,-1
 440 95 l 2,41,42
 440 43 440 43 418.5 21.5 c 128,-1,43
 397 0 397 0 345 0 c 2,44,-1
 235 0 l 2,0,1
190 642 m 1,45,-1
 190 450 l 1,46,-1
 313 450 l 2,47,48
 344 450 344 450 352 463 c 128,-1,49
 360 476 360 476 360 507 c 2,50,-1
 360 585 l 2,51,52
 360 616 360 616 352 629 c 128,-1,53
 344 642 344 642 313 642 c 2,54,-1
 190 642 l 1,45,-1
EndSplineSet
EndChar

StartChar: ae
Encoding: 230 230 168
Width: 671
GlyphClass: 2
Flags: HW
LayerCount: 2
Fore
SplineSet
341 496 m 1,0,1
 367.4 508 367.4 508 396 508 c 2,2,-1
 526 508 l 2,3,4
 578 508 578 508 599.5 486.5 c 128,-1,5
 621 465 621 465 621 413 c 2,6,-1
 621 301 l 2,7,8
 621 249 621 249 599.5 227.5 c 128,-1,9
 578 206 578 206 526 206 c 2,10,-1
 426 206 l 2,11,12
 410 206 410 206 405.5 211.5 c 128,-1,13
 401 217 401 217 401 233 c 2,14,-1
 401 264 l 1,15,-1
 494 264 l 2,16,17
 525 264 525 264 533 277 c 128,-1,18
 541 290 541 290 541 321 c 2,19,-1
 541 393 l 2,20,21
 541 424 541 424 528 437 c 128,-1,22
 515 450 515 450 484 450 c 2,23,-1
 438 450 l 2,24,25
 407 450 407 450 394 437 c 128,-1,26
 381 424 381 424 381 393 c 2,27,-1
 381 110 l 2,28,29
 381 82 381 82 390 70 c 128,-1,30
 399 58 399 58 428 58 c 2,31,-1
 592 58 l 1,32,-1
 592 27 l 2,33,34
 592 11 592 11 587.5 5.5 c 128,-1,35
 583 0 583 0 567 0 c 2,36,-1
 396 0 l 2,37,38
 344 0 344 0 322.5 21.5 c 128,-1,39
 301 43 301 43 301 95 c 2,40,-1
 301 404 l 1,41,42
 299 429 299 429 290.5 439.5 c 128,-1,43
 282 450 282 450 254 450 c 2,44,-1
 71 450 l 1,45,46
 76.6842105263 476.526315789 76.6842105263 476.526315789 109.5 493.5 c 0,47,48
 137.533333333 508 137.533333333 508 171 508 c 2,49,-1
 286 508 l 2,50,51
 314.6 508 314.6 508 341 496 c 1,0,1
131 115 m 2,52,53
 131 84 131 84 144 71 c 128,-1,54
 157 58 157 58 188 58 c 2,55,-1
 301 58 l 1,56,57
 295 29 295 29 282.5 14.5 c 128,-1,58
 270 0 270 0 241 0 c 2,59,-1
 146 0 l 2,60,61
 94 0 94 0 72.5 21.5 c 128,-1,62
 51 43 51 43 51 95 c 2,63,-1
 51 205 l 2,64,65
 51 257 51 257 72.5 278.5 c 128,-1,66
 94 300 94 300 146 300 c 2,67,-1
 241 300 l 2,68,69
 270 300 270 300 282.5 285.5 c 128,-1,70
 295 271 295 271 301 242 c 1,71,-1
 188 242 l 2,72,73
 157 242 157 242 144 229 c 128,-1,74
 131 216 131 216 131 185 c 2,75,-1
 131 115 l 2,52,53
EndSplineSet
EndChar

StartChar: ccedilla
Encoding: 231 231 169
Width: 355
GlyphClass: 2
Flags: HW
LayerCount: 2
Fore
SplineSet
288 508 m 2,0,1
 304 508 304 508 308.5 502.5 c 128,-1,2
 313 497 313 497 313 481 c 2,3,-1
 313 450 l 1,4,-1
 190 450 l 2,5,6
 159 450 159 450 151 437 c 128,-1,7
 143 424 143 424 143 393 c 2,8,-1
 143 115 l 2,9,10
 143 84 143 84 151 71 c 128,-1,11
 159 58 159 58 190 58 c 2,12,-1
 313 58 l 1,13,-1
 313 27 l 2,14,15
 313 11 313 11 308.5 5.5 c 128,-1,16
 304 0 304 0 288 0 c 2,17,-1
 232 0 l 1,18,-1
 232 -73 l 2,19,20
 232 -89 232 -89 226.5 -94.5 c 128,-1,21
 221 -100 221 -100 205 -100 c 2,22,-1
 174 -100 l 1,23,-1
 174 0 l 1,24,-1
 158 0 l 2,25,26
 106 0 106 0 84.5 21.5 c 128,-1,27
 63 43 63 43 63 95 c 2,28,-1
 63 413 l 2,29,30
 63 465 63 465 84.5 486.5 c 128,-1,31
 106 508 106 508 158 508 c 2,32,-1
 288 508 l 2,0,1
EndSplineSet
EndChar

StartChar: eth
Encoding: 240 240 178
Width: 456
GlyphClass: 2
Flags: HW
LayerCount: 2
Fore
SplineSet
390 626 m 1,0,-1
 431 626 l 2,1,2
 447 626 447 626 452.5 620.5 c 128,-1,3
 458 615 458 615 458 599 c 2,4,-1
 458 568 l 1,5,-1
 390 568 l 1,6,-1
 390 95 l 2,7,8
 390 43 390 43 370 21.5 c 128,-1,9
 350 0 350 0 298 0 c 2,10,-1
 158 0 l 2,11,12
 106 0 106 0 84.5 21.5 c 128,-1,13
 63 43 63 43 63 95 c 2,14,-1
 63 413 l 2,15,16
 63 465 63 465 84.5 486.5 c 128,-1,17
 106 508 106 508 158 508 c 2,18,-1
 313 508 l 1,19,-1
 313 568 l 1,20,-1
 266 568 l 2,21,22
 250 568 250 568 244.5 573.5 c 128,-1,23
 239 579 239 579 239 595 c 2,24,-1
 239 626 l 1,25,-1
 313 626 l 1,26,-1
 313 640 l 2,27,28
 313 671 313 671 305 684 c 128,-1,29
 297 697 297 697 266 697 c 2,30,-1
 219 697 l 1,31,32
 225 726 225 726 237.5 740.5 c 128,-1,33
 250 755 250 755 279 755 c 2,34,-1
 298 755 l 2,35,36
 350 755 350 755 370 733.5 c 128,-1,37
 390 712 390 712 390 660 c 2,38,-1
 390 626 l 1,0,-1
190 450 m 2,39,40
 159 450 159 450 151 437 c 128,-1,41
 143 424 143 424 143 393 c 2,42,-1
 143 115 l 2,43,44
 143 84 143 84 151 71 c 128,-1,45
 159 58 159 58 190 58 c 2,46,-1
 266 58 l 2,47,48
 297 58 297 58 305 71 c 128,-1,49
 313 84 313 84 313 115 c 2,50,-1
 313 450 l 1,51,-1
 190 450 l 2,39,40
EndSplineSet
EndChar

StartChar: divide
Encoding: 247 247 185
Width: 436
GlyphClass: 2
Flags: HW
LayerCount: 2
Fore
SplineSet
255 470 m 1,0,-1
 194 470 l 2,1,2
 178 470 178 470 172.5 475.5 c 128,-1,3
 167 481 167 481 167 497 c 2,4,-1
 167 550 l 1,5,-1
 228 550 l 2,6,7
 244 550 244 550 249.5 544.5 c 128,-1,8
 255 539 255 539 255 523 c 2,9,-1
 255 470 l 1,0,-1
255 150 m 1,10,-1
 194 150 l 2,11,12
 178 150 178 150 172.5 155.5 c 128,-1,13
 167 161 167 161 167 177 c 2,14,-1
 167 230 l 1,15,-1
 228 230 l 2,16,17
 244 230 244 230 249.5 224.5 c 128,-1,18
 255 219 255 219 255 203 c 2,19,-1
 255 150 l 1,10,-1
68 390 m 1,20,-1
 341 390 l 2,21,22
 357 390 357 390 362.5 384.5 c 128,-1,23
 368 379 368 379 368 363 c 2,24,-1
 368 332 l 1,25,-1
 95 332 l 2,26,27
 79 332 79 332 73.5 337.5 c 128,-1,28
 68 343 68 343 68 359 c 2,29,-1
 68 390 l 1,20,-1
EndSplineSet
EndChar

StartChar: oslash
Encoding: 248 248 186
Width: 483
GlyphClass: 2
Flags: HW
LayerCount: 2
Fore
SplineSet
175 0 m 2,0,1
 104.826086957 0 104.826086957 0 88 43 c 1,2,-1
 75 27 l 2,3,4
 62 11 62 11 52 5.5 c 128,-1,5
 42 0 42 0 27 0 c 2,6,-1
 -13 0 l 1,7,-1
 80 111 l 1,8,-1
 80 413 l 2,9,10
 80 465 80 465 101.5 486.5 c 128,-1,11
 123 508 123 508 175 508 c 2,12,-1
 315 508 l 2,13,14
 381.428571429 508 381.428571429 508 400 469 c 1,15,-1
 409 480 l 2,16,17
 422 496 422 496 432 501.5 c 128,-1,18
 442 507 442 507 458 507 c 2,19,-1
 498 507 l 1,20,-1
 410 402 l 1,21,-1
 410 95 l 2,22,23
 410 43 410 43 388.5 21.5 c 128,-1,24
 367 0 367 0 315 0 c 2,25,-1
 175 0 l 2,0,1
283 58 m 2,26,27
 314 58 314 58 322 71 c 128,-1,28
 330 84 330 84 330 115 c 2,29,-1
 330 318 l 1,30,-1
 160 116 l 1,31,-1
 160 115 l 2,32,33
 160 84 160 84 168 71 c 128,-1,34
 176 58 176 58 207 58 c 2,35,-1
 283 58 l 2,26,27
207 450 m 2,36,37
 176 450 176 450 168 437 c 128,-1,38
 160 424 160 424 160 393 c 2,39,-1
 160 195 l 1,40,-1
 330 397 l 1,41,42
 329 426 329 426 320.5 438 c 128,-1,43
 312 450 312 450 283 450 c 2,44,-1
 207 450 l 2,36,37
EndSplineSet
EndChar

StartChar: thorn
Encoding: 254 254 192
Width: 459
GlyphClass: 2
Flags: HW
LayerCount: 2
Fore
SplineSet
191 0 m 2,0,1
 175 0 175 0 170.5 5.5 c 128,-1,2
 166 11 166 11 166 27 c 2,3,-1
 166 58 l 1,4,-1
 269 58 l 2,5,6
 300 58 300 58 308 71 c 128,-1,7
 316 84 316 84 316 115 c 2,8,-1
 316 393 l 2,9,10
 316 424 316 424 308 437 c 128,-1,11
 300 450 300 450 269 450 c 2,12,-1
 146 450 l 1,13,-1
 146 -174 l 2,14,15
 146 -190 146 -190 140.5 -195.5 c 128,-1,16
 135 -201 135 -201 119 -201 c 2,17,-1
 66 -201 l 1,18,-1
 66 673 l 2,19,20
 66 689 66 689 71.5 694.5 c 128,-1,21
 77 700 77 700 93 700 c 2,22,-1
 146 700 l 1,23,-1
 146 450 l 1,24,25
 152 479 152 479 164.5 493.5 c 128,-1,26
 177 508 177 508 206 508 c 2,27,-1
 301 508 l 2,28,29
 353 508 353 508 374.5 486.5 c 128,-1,30
 396 465 396 465 396 413 c 2,31,-1
 396 95 l 2,32,33
 396 43 396 43 374.5 21.5 c 128,-1,34
 353 0 353 0 301 0 c 2,35,-1
 191 0 l 2,0,1
EndSplineSet
EndChar

StartChar: dotlessi
Encoding: 305 305 194
Width: 210
GlyphClass: 2
Flags: HW
LayerCount: 2
Fore
SplineSet
145 508 m 1,0,-1
 145 27 l 2,1,2
 145 11 145 11 139.5 5.5 c 128,-1,3
 134 0 134 0 118 0 c 2,4,-1
 65 0 l 1,5,-1
 65 481 l 2,6,7
 65 497 65 497 70.5 502.5 c 128,-1,8
 76 508 76 508 92 508 c 2,9,-1
 145 508 l 1,0,-1
EndSplineSet
EndChar

StartChar: OE
Encoding: 338 338 195
Width: 651
GlyphClass: 2
Flags: HW
LayerCount: 2
Fore
SplineSet
414 334 m 1,0,-1
 414 58 l 1,1,-1
 605 58 l 1,2,-1
 605 27 l 2,3,4
 605 11 605 11 599.5 5.5 c 128,-1,5
 594 0 594 0 578 0 c 2,6,-1
 165 0 l 2,7,8
 113 0 113 0 91.5 21.5 c 128,-1,9
 70 43 70 43 70 95 c 2,10,-1
 70 605 l 2,11,12
 70 657 70 657 91.5 678.5 c 128,-1,13
 113 700 113 700 165 700 c 2,14,-1
 605 700 l 1,15,-1
 605 669 l 2,16,17
 605 653 605 653 600.5 647.5 c 128,-1,18
 596 642 596 642 580 642 c 2,19,-1
 414 642 l 1,20,-1
 414 392 l 1,21,-1
 575 392 l 1,22,-1
 575 361 l 2,23,24
 575 345 575 345 570.5 339.5 c 128,-1,25
 566 334 566 334 550 334 c 2,26,-1
 414 334 l 1,0,-1
150 115 m 2,27,28
 150 84 150 84 158 71 c 128,-1,29
 166 58 166 58 197 58 c 2,30,-1
 287 58 l 2,31,32
 318 58 318 58 326 71 c 128,-1,33
 334 84 334 84 334 115 c 2,34,-1
 334 585 l 2,35,36
 334 616 334 616 326 629 c 128,-1,37
 318 642 318 642 287 642 c 2,38,-1
 197 642 l 2,39,40
 166 642 166 642 158 629 c 128,-1,41
 150 616 150 616 150 585 c 2,42,-1
 150 115 l 2,27,28
EndSplineSet
EndChar

StartChar: oe
Encoding: 339 339 196
Width: 683
GlyphClass: 2
Flags: HW
LayerCount: 2
Fore
SplineSet
280 508 m 2,0,1
 313 508 313 508 343 493 c 1,2,3
 365 508 365 508 408 508 c 2,4,-1
 538 508 l 2,5,6
 590 508 590 508 611.5 486.5 c 128,-1,7
 633 465 633 465 633 413 c 2,8,-1
 633 301 l 2,9,10
 633 249 633 249 611.5 227.5 c 128,-1,11
 590 206 590 206 538 206 c 2,12,-1
 438 206 l 2,13,14
 422 206 422 206 417.5 211.5 c 128,-1,15
 413 217 413 217 413 233 c 2,16,-1
 413 264 l 1,17,-1
 506 264 l 2,18,19
 537 264 537 264 545 277 c 128,-1,20
 553 290 553 290 553 321 c 2,21,-1
 553 393 l 2,22,23
 553 424 553 424 540 437 c 128,-1,24
 527 450 527 450 496 450 c 2,25,-1
 450 450 l 2,26,27
 421 450 421 450 407.5 438 c 128,-1,28
 394 426 394 426 393 399 c 1,29,-1
 393 115 l 2,30,31
 393 84 393 84 401 71 c 128,-1,32
 409 58 409 58 440 58 c 2,33,-1
 604 58 l 1,34,-1
 604 27 l 2,35,36
 604 11 604 11 599.5 5.5 c 128,-1,37
 595 0 595 0 579 0 c 2,38,-1
 408 0 l 2,39,40
 365 0 365 0 344 14 c 1,41,42
 321 0 321 0 288 0 c 2,43,-1
 158 0 l 2,44,45
 106 0 106 0 84.5 21.5 c 128,-1,46
 63 43 63 43 63 95 c 2,47,-1
 63 413 l 2,48,49
 63 465 63 465 84.5 486.5 c 128,-1,50
 106 508 106 508 158 508 c 2,51,-1
 280 508 l 2,0,1
190 450 m 2,52,53
 159 450 159 450 151 437 c 128,-1,54
 143 424 143 424 143 393 c 2,55,-1
 143 115 l 2,56,57
 143 84 143 84 151 71 c 128,-1,58
 159 58 159 58 190 58 c 2,59,-1
 266 58 l 2,60,61
 297 58 297 58 305 71 c 128,-1,62
 313 84 313 84 313 115 c 2,63,-1
 313 404 l 1,64,65
 311 429 311 429 302.5 439.5 c 128,-1,66
 294 450 294 450 266 450 c 2,67,-1
 190 450 l 2,52,53
EndSplineSet
EndChar

StartChar: circumflex
Encoding: 710 710 197
Width: 370
GlyphClass: 2
Flags: HW
LayerCount: 2
Fore
SplineSet
75 568 m 2,0,1
 56 568 56 568 56 583 c 0,2,3
 56 588 56 588 60 593 c 2,4,-1
 133 682 l 2,5,6
 148 700 148 700 166 700 c 2,7,-1
 225 700 l 1,8,-1
 311 593 l 2,9,10
 315 588 315 588 315 583 c 0,11,12
 315 568 315 568 296 568 c 2,13,-1
 269 568 l 1,14,-1
 184 652 l 1,15,-1
 99 568 l 1,16,-1
 75 568 l 2,0,1
EndSplineSet
EndChar

StartChar: caron
Encoding: 711 711 198
Width: 390
GlyphClass: 2
Flags: HW
LayerCount: 2
Fore
SplineSet
301 721 m 2,0,1
 320 721 320 721 320 706 c 0,2,3
 320 701 320 701 316 696 c 2,4,-1
 243 607 l 2,5,6
 228 589 228 589 210 589 c 2,7,-1
 151 589 l 1,8,-1
 65 696 l 2,9,10
 61 701 61 701 61 706 c 0,11,12
 61 721 61 721 80 721 c 2,13,-1
 107 721 l 1,14,-1
 192 637 l 1,15,-1
 277 721 l 1,16,-1
 301 721 l 2,0,1
EndSplineSet
EndChar

StartChar: ring
Encoding: 730 730 199
Width: 289
GlyphClass: 2
Flags: HW
LayerCount: 2
Fore
SplineSet
129 565 m 2,0,1
 91 565 91 565 75.5 577.5 c 128,-1,2
 60 590 60 590 60 627 c 2,3,-1
 60 666 l 2,4,5
 60 703 60 703 75.5 715.5 c 128,-1,6
 91 728 91 728 129 728 c 2,7,-1
 160 728 l 2,8,9
 198 728 198 728 213.5 715.5 c 128,-1,10
 229 703 229 703 229 666 c 2,11,-1
 229 627 l 2,12,13
 229 590 229 590 213.5 577.5 c 128,-1,14
 198 565 198 565 160 565 c 2,15,-1
 129 565 l 2,0,1
108 642 m 2,16,17
 108 613 108 613 113 608 c 0,18,19
 120 601 120 601 144.5 601 c 128,-1,20
 169 601 169 601 175 607 c 128,-1,21
 181 613 181 613 181 642 c 2,22,-1
 181 651 l 2,23,24
 181 680 181 680 176 685 c 0,25,26
 169 692 169 692 144.5 692 c 128,-1,27
 120 692 120 692 114 686 c 128,-1,28
 108 680 108 680 108 651 c 2,29,-1
 108 642 l 2,16,17
EndSplineSet
EndChar

StartChar: tilde
Encoding: 732 732 200
Width: 380
GlyphClass: 2
Flags: HW
LayerCount: 2
Fore
SplineSet
110 629 m 2,0,-1
 110 604 l 2,1,2
 110 590 110 590 103.5 587 c 128,-1,3
 97 584 97 584 86 584 c 2,4,-1
 66 584 l 1,5,-1
 66 600 l 2,6,7
 66 682.615384615 66 682.615384615 106 698 c 0,8,9
 119 703 119 703 138.5 703 c 128,-1,10
 158 703 158 703 173.5 693 c 128,-1,11
 189 683 189 683 201.5 671 c 128,-1,12
 214 659 214 659 226.5 649 c 128,-1,13
 239 639 239 639 251.5 639 c 128,-1,14
 264 639 264 639 273 641.5 c 128,-1,15
 282 644 282 644 282 655 c 2,16,-1
 282 680 l 2,17,18
 282 694 282 694 288.5 697 c 128,-1,19
 295 700 295 700 306 700 c 2,20,-1
 326 700 l 1,21,-1
 326 684 l 2,22,23
 326 600 326 600 285.5 586.5 c 0,24,25
 272 582 272 582 252.5 582 c 128,-1,26
 233 582 233 582 218 592 c 128,-1,27
 203 602 203 602 190 613.5 c 128,-1,28
 177 625 177 625 165 635 c 128,-1,29
 153 645 153 645 138 645 c 0,30,31
 110 645 110 645 110 629 c 2,0,-1
EndSplineSet
EndChar

StartChar: endash
Encoding: 8211 8211 201
Width: 432
GlyphClass: 2
Flags: HW
LayerCount: 2
Fore
SplineSet
66 392 m 1,0,-1
 339 392 l 2,1,2
 355 392 355 392 360.5 386.5 c 128,-1,3
 366 381 366 381 366 365 c 2,4,-1
 366 334 l 1,5,-1
 93 334 l 2,6,7
 77 334 77 334 71.5 339.5 c 128,-1,8
 66 345 66 345 66 361 c 2,9,-1
 66 392 l 1,0,-1
EndSplineSet
EndChar

StartChar: emdash
Encoding: 8212 8212 202
Width: 549
GlyphClass: 2
Flags: HW
LayerCount: 2
Fore
SplineSet
53 392 m 1,0,-1
 480 392 l 2,1,2
 496 392 496 392 501.5 386.5 c 128,-1,3
 507 381 507 381 507 365 c 2,4,-1
 507 334 l 1,5,-1
 80 334 l 2,6,7
 64 334 64 334 58.5 339.5 c 128,-1,8
 53 345 53 345 53 361 c 2,9,-1
 53 392 l 1,0,-1
EndSplineSet
EndChar

StartChar: quoteleft
Encoding: 8216 8216 203
Width: 205
GlyphClass: 2
Flags: HW
LayerCount: 2
Fore
SplineSet
116 700 m 1,0,-1
 119 700 l 2,1,2
 135 700 135 700 140.5 694.5 c 128,-1,3
 146 689 146 689 146 673 c 2,4,-1
 146 620 l 1,5,-1
 85 620 l 2,6,7
 69 620 69 620 63.5 625.5 c 128,-1,8
 58 631 58 631 58 647 c 2,9,-1
 58 722 l 2,10,11
 58 754 58 754 72.5 767 c 128,-1,12
 87 780 87 780 116 786 c 1,13,-1
 116 700 l 1,0,-1
EndSplineSet
EndChar

StartChar: quoteright
Encoding: 8217 8217 204
Width: 197
GlyphClass: 2
Flags: HW
LayerCount: 2
Fore
SplineSet
82 620 m 1,0,-1
 79 620 l 2,1,2
 63 620 63 620 57.5 625.5 c 128,-1,3
 52 631 52 631 52 647 c 2,4,-1
 52 700 l 1,5,-1
 113 700 l 2,6,7
 129 700 129 700 134.5 694.5 c 128,-1,8
 140 689 140 689 140 673 c 2,9,-1
 140 598 l 2,10,11
 140 566 140 566 125.5 553 c 128,-1,12
 111 540 111 540 82 534 c 1,13,-1
 82 620 l 1,0,-1
EndSplineSet
EndChar

StartChar: quotesinglbase
Encoding: 8218 8218 205
Width: 215
GlyphClass: 2
Flags: HW
LayerCount: 2
Fore
SplineSet
95 0 m 1,0,-1
 92 0 l 2,1,2
 76 0 76 0 70.5 5.5 c 128,-1,3
 65 11 65 11 65 27 c 2,4,-1
 65 80 l 1,5,-1
 126 80 l 2,6,7
 142 80 142 80 147.5 74.5 c 128,-1,8
 153 69 153 69 153 53 c 2,9,-1
 153 -22 l 2,10,11
 153 -54 153 -54 138.5 -67 c 128,-1,12
 124 -80 124 -80 95 -86 c 1,13,-1
 95 0 l 1,0,-1
EndSplineSet
EndChar

StartChar: quotedblleft
Encoding: 8220 8220 206
Width: 345
GlyphClass: 2
Flags: HW
LayerCount: 2
Fore
SplineSet
256 700 m 1,0,-1
 259 700 l 2,1,2
 275 700 275 700 280.5 694.5 c 128,-1,3
 286 689 286 689 286 673 c 2,4,-1
 286 620 l 1,5,-1
 225 620 l 2,6,7
 209 620 209 620 203.5 625.5 c 128,-1,8
 198 631 198 631 198 647 c 2,9,-1
 198 722 l 2,10,11
 198 754 198 754 212.5 767 c 128,-1,12
 227 780 227 780 256 786 c 1,13,-1
 256 700 l 1,0,-1
116 700 m 1,14,-1
 119 700 l 2,15,16
 135 700 135 700 140.5 694.5 c 128,-1,17
 146 689 146 689 146 673 c 2,18,-1
 146 620 l 1,19,-1
 85 620 l 2,20,21
 69 620 69 620 63.5 625.5 c 128,-1,22
 58 631 58 631 58 647 c 2,23,-1
 58 722 l 2,24,25
 58 754 58 754 72.5 767 c 128,-1,26
 87 780 87 780 116 786 c 1,27,-1
 116 700 l 1,14,-1
EndSplineSet
EndChar

StartChar: quotedblright
Encoding: 8221 8221 207
Width: 337
GlyphClass: 2
Flags: HW
LayerCount: 2
Fore
SplineSet
82 620 m 1,0,-1
 79 620 l 2,1,2
 63 620 63 620 57.5 625.5 c 128,-1,3
 52 631 52 631 52 647 c 2,4,-1
 52 700 l 1,5,-1
 113 700 l 2,6,7
 129 700 129 700 134.5 694.5 c 128,-1,8
 140 689 140 689 140 673 c 2,9,-1
 140 598 l 2,10,11
 140 566 140 566 125.5 553 c 128,-1,12
 111 540 111 540 82 534 c 1,13,-1
 82 620 l 1,0,-1
222 620 m 1,14,-1
 219 620 l 2,15,16
 203 620 203 620 197.5 625.5 c 128,-1,17
 192 631 192 631 192 647 c 2,18,-1
 192 700 l 1,19,-1
 253 700 l 2,20,21
 269 700 269 700 274.5 694.5 c 128,-1,22
 280 689 280 689 280 673 c 2,23,-1
 280 598 l 2,24,25
 280 566 280 566 265.5 553 c 128,-1,26
 251 540 251 540 222 534 c 1,27,-1
 222 620 l 1,14,-1
EndSplineSet
EndChar

StartChar: quotedblbase
Encoding: 8222 8222 208
Width: 355
GlyphClass: 2
Flags: HW
LayerCount: 2
Fore
SplineSet
95 0 m 1,0,-1
 92 0 l 2,1,2
 76 0 76 0 70.5 5.5 c 128,-1,3
 65 11 65 11 65 27 c 2,4,-1
 65 80 l 1,5,-1
 126 80 l 2,6,7
 142 80 142 80 147.5 74.5 c 128,-1,8
 153 69 153 69 153 53 c 2,9,-1
 153 -22 l 2,10,11
 153 -54 153 -54 138.5 -67 c 128,-1,12
 124 -80 124 -80 95 -86 c 1,13,-1
 95 0 l 1,0,-1
235 0 m 1,14,-1
 232 0 l 2,15,16
 216 0 216 0 210.5 5.5 c 128,-1,17
 205 11 205 11 205 27 c 2,18,-1
 205 80 l 1,19,-1
 266 80 l 2,20,21
 282 80 282 80 287.5 74.5 c 128,-1,22
 293 69 293 69 293 53 c 2,23,-1
 293 -22 l 2,24,25
 293 -54 293 -54 278.5 -67 c 128,-1,26
 264 -80 264 -80 235 -86 c 1,27,-1
 235 0 l 1,14,-1
EndSplineSet
EndChar

StartChar: bullet
Encoding: 8226 8226 209
Width: 285
GlyphClass: 2
Flags: HW
LayerCount: 2
Fore
SplineSet
79.5 279.5 m 128,-1,1
 54 301 54 301 54 356.5 c 128,-1,2
 54 412 54 412 79.5 433 c 128,-1,3
 105 454 105 454 142.5 454 c 128,-1,4
 180 454 180 454 206 432.5 c 128,-1,5
 232 411 232 411 232 356 c 256,6,7
 232 301 232 301 206 279.5 c 128,-1,8
 180 258 180 258 142.5 258 c 128,-1,0
 105 258 105 258 79.5 279.5 c 128,-1,1
EndSplineSet
EndChar

StartChar: guilsinglleft
Encoding: 8249 8249 210
Width: 290
GlyphClass: 2
Flags: HW
LayerCount: 2
Fore
SplineSet
126 297 m 1,0,-1
 183 239 l 1,1,2
 221.847352025 196.267912773 221.847352025 196.267912773 220.5 154.5 c 0,3,4
 220 139 220 139 212 127 c 1,5,-1
 46 292 l 1,6,-1
 46 302 l 1,7,-1
 214 468 l 1,8,9
 222 456 222 456 222 440.5 c 128,-1,10
 222 425 222 425 217 410 c 0,11,12
 207 380 207 380 184 357 c 2,13,-1
 126 299 l 1,14,-1
 126 297 l 1,0,-1
EndSplineSet
EndChar

StartChar: guilsinglright
Encoding: 8250 8250 211
Width: 290
GlyphClass: 2
Flags: HW
LayerCount: 2
Fore
SplineSet
163 299 m 1,0,-1
 105 357 l 2,1,2
 67 395 67 395 67 440.5 c 0,3,4
 67 456 67 456 75 468 c 1,5,-1
 243 302 l 1,6,-1
 243 292 l 1,7,-1
 77 127 l 1,8,9
 53.6181818182 162.072727273 53.6181818182 162.072727273 87 214 c 0,10,11
 96 228 96 228 106 239 c 2,12,-1
 163 297 l 1,13,-1
 163 299 l 1,0,-1
EndSplineSet
EndChar

StartChar: fraction
Encoding: 8260 8260 212
Width: 449
GlyphClass: 2
Flags: HW
LayerCount: 2
Fore
SplineSet
439 714 m 1,0,-1
 104 27 l 2,1,2
 96 11 96 11 88 5.5 c 128,-1,3
 80 0 80 0 64 0 c 2,4,-1
 11 0 l 1,5,-1
 346 687 l 2,6,7
 354 703 354 703 362 708.5 c 128,-1,8
 370 714 370 714 386 714 c 2,9,-1
 439 714 l 1,0,-1
EndSplineSet
EndChar

StartChar: foursuperior
Encoding: 8308 8308 213
Width: 349
GlyphClass: 2
Flags: HW
LayerCount: 2
Fore
SplineSet
251 700 m 1,0,-1
 251 436 l 1,1,-1
 315 436 l 1,2,3
 309 407 309 407 296 392.5 c 128,-1,4
 283 378 283 378 251 378 c 1,5,-1
 251 328 l 2,6,7
 251 312 251 312 245.5 306.5 c 128,-1,8
 240 301 240 301 224 301 c 2,9,-1
 176 301 l 1,10,-1
 176 378 l 1,11,-1
 66 378 l 2,12,13
 50 378 50 378 44.5 383.5 c 128,-1,14
 39 389 39 389 39 405 c 2,15,-1
 39 436 l 1,16,-1
 160 700 l 1,17,-1
 251 700 l 1,0,-1
176 436 m 1,18,-1
 176 591 l 1,19,-1
 174 591 l 1,20,-1
 103 436 l 1,21,-1
 176 436 l 1,18,-1
EndSplineSet
EndChar

StartChar: Euro
Encoding: 8364 8364 214
Width: 454
GlyphClass: 2
Flags: HW
LayerCount: 2
Fore
SplineSet
51 309 m 1,0,-1
 115 309 l 1,1,-1
 115 386 l 1,2,-1
 78 386 l 2,3,4
 62 386 62 386 56.5 391.5 c 128,-1,5
 51 397 51 397 51 413 c 2,6,-1
 51 444 l 1,7,-1
 115 444 l 1,8,-1
 115 605 l 2,9,10
 115 657 115 657 136.5 678.5 c 128,-1,11
 158 700 158 700 210 700 c 2,12,-1
 339 700 l 2,13,14
 368 700 368 700 380.5 685.5 c 128,-1,15
 393 671 393 671 399 642 c 1,16,-1
 242 642 l 2,17,18
 211 642 211 642 203 629 c 128,-1,19
 195 616 195 616 195 585 c 2,20,-1
 195 444 l 1,21,-1
 324 444 l 2,22,23
 340 444 340 444 345.5 438.5 c 128,-1,24
 351 433 351 433 351 417 c 2,25,-1
 351 386 l 1,26,-1
 195 386 l 1,27,-1
 195 309 l 1,28,-1
 324 309 l 2,29,30
 340 309 340 309 345.5 303.5 c 128,-1,31
 351 298 351 298 351 282 c 2,32,-1
 351 251 l 1,33,-1
 195 251 l 1,34,-1
 195 115 l 2,35,36
 195 84 195 84 203 71 c 128,-1,37
 211 58 211 58 242 58 c 2,38,-1
 399 58 l 1,39,-1
 399 27 l 2,40,41
 399 11 399 11 394.5 5.5 c 128,-1,42
 390 0 390 0 374 0 c 2,43,-1
 210 0 l 2,44,45
 158 0 158 0 136.5 21.5 c 128,-1,46
 115 43 115 43 115 95 c 2,47,-1
 115 251 l 1,48,-1
 78 251 l 2,49,50
 62 251 62 251 56.5 256.5 c 128,-1,51
 51 262 51 262 51 278 c 2,52,-1
 51 309 l 1,0,-1
EndSplineSet
EndChar

StartChar: minus
Encoding: 8722 8722 215
Width: 436
GlyphClass: 2
Flags: HW
LayerCount: 2
Fore
SplineSet
68 390 m 1,0,-1
 341 390 l 2,1,2
 357 390 357 390 362.5 384.5 c 128,-1,3
 368 379 368 379 368 363 c 2,4,-1
 368 332 l 1,5,-1
 95 332 l 2,6,7
 79 332 79 332 73.5 337.5 c 128,-1,8
 68 343 68 343 68 359 c 2,9,-1
 68 390 l 1,0,-1
EndSplineSet
EndChar

StartChar: foundryicon
Encoding: 65541 -1 218
Width: 1086
GlyphClass: 2
Flags: HW
LayerCount: 2
Fore
SplineSet
992 274 m 1,0,1
 1000 284 1000 284 1008 284 c 128,-1,2
 1016 284 1016 284 1022 282 c 1,3,-1
 1022 251 l 1,4,-1
 1006 251 l 1,5,6
 1007 249 1007 249 1007 240.5 c 128,-1,7
 1007 232 1007 232 996 221.5 c 128,-1,8
 985 211 985 211 969 211 c 128,-1,9
 953 211 953 211 950 212 c 1,10,-1
 950 197 l 1,11,-1
 968 197 l 2,12,13
 1007 197 1007 197 1007 161 c 0,14,15
 1007 150 1007 150 1001 138 c 1,16,-1
 974 138 l 1,17,-1
 974 167 l 1,18,-1
 928 167 l 1,19,20
 918 175 918 175 918 191 c 128,-1,21
 918 207 918 207 932 219 c 1,22,23
 918 227 918 227 918 245 c 128,-1,24
 918 263 918 263 929.5 273.5 c 128,-1,25
 941 284 941 284 960 284 c 128,-1,26
 979 284 979 284 992 274 c 1,0,1
260 175 m 1,27,28
 249.909090909 138 249.909090909 138 217 138 c 0,29,30
 198 138 198 138 191 145 c 1,31,-1
 191 171 l 1,32,-1
 208 171 l 2,33,34
 224 171 224 171 229 182 c 1,35,-1
 215 182 l 1,36,-1
 191 251 l 1,37,-1
 181 251 l 1,38,-1
 181 282 l 1,39,-1
 219 282 l 1,40,-1
 233 233 l 1,41,-1
 238 209 l 1,42,-1
 249 251 l 1,43,-1
 240 251 l 1,44,-1
 240 282 l 1,45,-1
 283 282 l 1,46,-1
 283 251 l 1,47,-1
 260 175 l 1,27,28
134 316 m 0,48,49
 149.666666667 316 149.666666667 316 173 309 c 1,50,-1
 173 269 l 1,51,-1
 142 269 l 1,52,-1
 142 284 l 1,53,54
 139 285 139 285 129 285 c 128,-1,55
 119 285 119 285 111.5 275 c 128,-1,56
 104 265 104 265 104 249 c 0,57,58
 104 212 104 212 141 212 c 2,59,-1
 173 212 l 1,60,-1
 173 187 l 1,61,62
 155 179 155 179 128 179 c 128,-1,63
 101 179 101 179 83.5 196.5 c 128,-1,64
 66 214 66 214 66 245.5 c 128,-1,65
 66 277 66 277 83 296.5 c 128,-1,66
 100 316 100 316 134 316 c 0,48,49
763 179 m 0,67,68
 714 179 714 179 714 231 c 0,69,70
 714 256 714 256 727.5 270 c 128,-1,71
 741 284 741 284 764 284 c 256,72,73
 787 284 787 284 800.5 270.5 c 128,-1,74
 814 257 814 257 814 232 c 256,75,76
 814 207 814 207 800.5 193 c 128,-1,77
 787 179 787 179 763 179 c 0,67,68
546 241 m 2,78,79
 546 251 546 251 524 251 c 2,80,-1
 499 251 l 1,81,-1
 499 277 l 1,82,83
 520 284 520 284 535 284 c 0,84,85
 581 284 581 284 581 246 c 2,86,-1
 581 212 l 1,87,-1
 592 212 l 1,88,-1
 592 185 l 1,89,90
 584 180 584 180 570 180 c 128,-1,91
 556 180 556 180 550 187 c 1,92,93
 541 179 541 179 526 179 c 128,-1,94
 511 179 511 179 501 187 c 128,-1,95
 491 195 491 195 491 210 c 0,96,97
 491 240 491 240 530 240 c 2,98,-1
 546 240 l 1,99,-1
 546 241 l 2,78,79
467 272 m 128,-1,101
 479 260 479 260 479 247 c 128,-1,102
 479 234 479 234 477 224 c 1,103,-1
 422 224 l 1,104,105
 426 212 426 212 447 212 c 2,106,-1
 476 212 l 1,107,-1
 476 186 l 1,108,109
 462 179 462 179 437.5 179 c 128,-1,110
 413 179 413 179 399.5 192.5 c 128,-1,111
 386 206 386 206 386 230 c 256,112,113
 386 254 386 254 398 269 c 128,-1,114
 410 284 410 284 432.5 284 c 128,-1,100
 455 284 455 284 467 272 c 128,-1,101
826 251 m 1,115,-1
 826 282 l 1,116,-1
 860 282 l 1,117,-1
 870 266 l 1,118,119
 872 271 872 271 880 279 c 1,120,121
 887 284 887 284 894 284 c 128,-1,122
 901 284 901 284 907 282 c 1,123,-1
 907 251 l 1,124,-1
 873 251 l 1,125,-1
 873 212 l 1,126,-1
 890 212 l 1,127,-1
 890 182 l 1,128,-1
 828 182 l 1,129,-1
 828 212 l 1,130,-1
 837 212 l 1,131,-1
 837 251 l 1,132,-1
 826 251 l 1,115,-1
297 251 m 1,133,-1
 297 282 l 1,134,-1
 331 282 l 1,135,-1
 341 266 l 1,136,137
 343 271 343 271 351 279 c 1,138,139
 358 284 358 284 365 284 c 128,-1,140
 372 284 372 284 378 282 c 1,141,-1
 378 251 l 1,142,-1
 344 251 l 1,143,-1
 344 212 l 1,144,-1
 361 212 l 1,145,-1
 361 182 l 1,146,-1
 299 182 l 1,147,-1
 299 212 l 1,148,-1
 309 212 l 1,149,-1
 309 251 l 1,150,-1
 297 251 l 1,133,-1
604 285 m 1,151,-1
 592 285 l 1,152,-1
 592 316 l 1,153,-1
 639 316 l 1,154,-1
 639 212 l 1,155,-1
 653 212 l 1,156,-1
 653 184 l 1,157,158
 644 180 644 180 631 180 c 0,159,160
 604 180 604 180 604 208 c 2,161,-1
 604 285 l 1,151,-1
686 180 m 0,162,163
 666 180 666 180 666 199 c 256,164,165
 666 219 666 219 686 219 c 0,166,167
 697 219 697 219 702.5 213 c 128,-1,168
 708 207 708 207 708 199 c 256,169,170
 708 191 708 191 702.5 185.5 c 128,-1,171
 697 180 697 180 686 180 c 0,162,163
764 206 m 256,172,173
 778 206 778 206 778 231 c 128,-1,174
 778 256 778 256 764 256 c 256,175,176
 750 256 750 256 750 231 c 128,-1,177
 750 206 750 206 764 206 c 256,172,173
951 247 m 256,178,179
 951 232 951 232 963 232 c 0,180,181
 973 232 973 232 973 247 c 256,182,183
 973 262 973 262 963 262 c 0,184,185
 951 262 951 262 951 247 c 256,178,179
535 204 m 0,186,187
 542 204 542 204 546 207 c 1,188,-1
 546 222 l 1,189,-1
 538 222 l 2,190,191
 525 222 525 222 525 213 c 256,192,193
 525 204 525 204 535 204 c 0,186,187
434 258 m 0,194,195
 424 258 424 258 421 242 c 1,196,-1
 446 242 l 1,197,198
 446 258 446 258 434 258 c 0,194,195
EndSplineSet
EndChar
